SplineFontDB: 3.0
FontName: Quando-Regular
FullName: Quando-Regular
FamilyName: Quando
Weight: Book
Copyright: Copyright (c) 2011-2012, Sorkin Type Co (www.sorkintype.com) with Reserved Font Name "Quando"
Version: 1.002
ItalicAngle: 0
UnderlinePosition: -50
UnderlineWidth: 50
Ascent: 1638
Descent: 410
LayerCount: 2
Layer: 0 1 "Back"  1
Layer: 1 1 "Fore"  0
XUID: [1021 631 1661839179 4938346]
FSType: 0
OS2Version: 3
OS2_WeightWidthSlopeOnly: 0
OS2_UseTypoMetrics: 1
CreationTime: 1341576180
ModificationTime: 1341558592
PfmFamily: 17
TTFWeight: 400
TTFWidth: 5
LineGap: 0
VLineGap: 0
Panose: 2 2 6 3 6 0 0 6 7 4
OS2TypoAscent: 392
OS2TypoAOffset: 1
OS2TypoDescent: -120
OS2TypoDOffset: 1
OS2TypoLinegap: 0
OS2WinAscent: 1
OS2WinAOffset: 1
OS2WinDescent: 16
OS2WinDOffset: 1
HheadAscent: 1
HheadAOffset: 1
HheadDescent: -16
HheadDOffset: 1
OS2SubXSize: 1331
OS2SubYSize: 1228
OS2SubXOff: 0
OS2SubYOff: 153
OS2SupXSize: 1331
OS2SupYSize: 1228
OS2SupXOff: 0
OS2SupYOff: 716
OS2StrikeYSize: 102
OS2StrikeYPos: 512
OS2Vendor: 'STC '
OS2CodePages: 20000093.00000000
OS2UnicodeRanges: a00000af.5000204a.00000000.00000000
DEI: 91125
TtTable: prep
MPPEM
PUSHW_1
 200
GT
IF
PUSHB_2
 1
 1
INSTCTRL
EIF
PUSHW_2
 2048
 2048
MUL
DUP
PUSHB_1
 1
SWAP
WCVTP
DUP
PUSHB_1
 3
SWAP
WCVTF
PUSHB_1
 21
RCVT
DUP
DUP
PUSHB_1
 40
ADD
FLOOR
DUP
ROLL
NEQ
IF
PUSHB_1
 2
CINDEX
SUB
PUSHB_1
 1
RCVT
MUL
SWAP
DIV
PUSHB_1
 2
SWAP
WCVTP
PUSHB_4
 10
 11
 3
 2
CALL
PUSHB_4
 12
 17
 3
 2
CALL
PUSHB_4
 18
 23
 3
 2
CALL
EIF
PUSHB_3
 4
 40
 7
RCVT
GT
WCVTP
PUSHB_4
 12
 17
 4
 2
CALL
PUSHW_1
 511
SCANCTRL
PUSHB_1
 4
SCANTYPE
PUSHB_2
 5
 0
WCVTP
EndTTInstrs
TtTable: fpgm
PUSHB_1
 0
FDEF
DUP
ABS
PUSHB_1
 32
ADD
FLOOR
SWAP
PUSHB_1
 0
LT
IF
NEG
EIF
ENDF
PUSHB_1
 1
FDEF
DUP
ABS
DUP
PUSHB_1
 192
LT
PUSHB_1
 4
MINDEX
AND
PUSHB_1
 4
RCVT
OR
IF
POP
SWAP
POP
ELSE
ROLL
IF
DUP
PUSHB_1
 80
LT
IF
POP
PUSHB_1
 64
EIF
ELSE
DUP
PUSHB_1
 56
LT
IF
POP
PUSHB_1
 56
EIF
EIF
DUP
PUSHB_1
 10
RCVT
SUB
ABS
PUSHB_1
 40
LT
IF
POP
PUSHB_1
 10
RCVT
DUP

StartChar: .notdef
Encoding: 65536 -1 0
Width: 1699
Flags: W
LayerCount: 2
Fore
SplineSet
855 1917 m 1,0,-1
 1957 815 l 1,1,-1
 855 -288 l 1,2,-1
 -247 815 l 1,3,-1
 855 1917 l 1,0,-1
919 461 m 1,4,-1
 918 477 l 1,5,-1
 918 491 l 2,6,7
 918 603 918 603 967 649 c 0,8,9
 986 666 986 666 1031.5 692.5 c 128,-1,10
 1077 719 1077 719 1125 750 c 128,-1,11
 1173 781 1173 781 1214 824 c 0,12,13
 1310 926 1310 926 1310 1045.5 c 128,-1,14
 1310 1165 1310 1165 1277.5 1234 c 128,-1,15
 1245 1303 1245 1303 1188 1344 c 0,16,17
 1084 1419 1084 1419 887 1419 c 0,18,19
 724 1419 724 1419 586 1335 c 0,20,21
 494 1280 494 1280 456 1196 c 0,22,23
 436 1153 436 1153 436 1114.5 c 128,-1,24
 436 1076 436 1076 444 1049.5 c 128,-1,25
 452 1023 452 1023 468 1002 c 0,26,27
 502 957 502 957 545 957 c 0,28,29
 601 957 601 957 637 976 c 2,30,-1
 657 986 l 1,31,32
 651 1010 651 1010 651 1022 c 2,33,-1
 651 1037 l 2,34,35
 651 1066 651 1066 661.5 1115 c 128,-1,36
 672 1164 672 1164 694 1196 c 1,37,38
 746 1267 746 1267 870 1267 c 0,39,40
 965 1267 965 1267 1030 1204 c 0,41,42
 1091 1144 1091 1144 1091 1054 c 0,43,44
 1091 929 1091 929 967 851 c 0,45,46
 932 829 932 829 897 810 c 1,47,-1
 830 770 l 2,48,49
 717 703 717 703 717 595 c 0,50,51
 717 527 717 527 771 440 c 0,52,53
 789 412 789 412 820 412 c 128,-1,54
 851 412 851 412 865 418.5 c 128,-1,55
 879 425 879 425 891 433 c 0,56,57
 917 450 917 450 919 461 c 1,4,-1
718.5 245.5 m 128,-1,59
 707 218 707 218 707 186.5 c 128,-1,60
 707 155 707 155 718.5 127.5 c 128,-1,61
 730 100 730 100 750 80 c 0,62,63
 791 39 791 39 838.5 39 c 128,-1,64
 886 39 886 39 913.5 50 c 128,-1,65
 941 61 941 61 961 80 c 0,66,67
 1004 122 1004 122 1004 187 c 0,68,69
 1004 250 1004 250 961 293 c 128,-1,70
 918 336 918 336 870.5 336 c 128,-1,71
 823 336 823 336 796 324.5 c 128,-1,72
 769 313 769 313 749.5 293 c 128,-1,58
 730 273 730 273 718.5 245.5 c 128,-1,59
EndSplineSet
EndChar

StartChar: exclam
Encoding: 33 33 23
Width: 664
GlyphClass: 2
Flags: W
LayerCount: 2
Fore
SplineSet
405 526 m 0,0,1
 403 505 403 505 330.5 505 c 128,-1,2
 258 505 258 505 258 529 c 128,-1,3
 258 553 258 553 254 609 c 0,4,5
 242 800 242 800 235 898 c 2,6,-1
 198 1435 l 2,7,8
 187 1600 187 1600 187 1642 c 0,9,10
 187 1672 187 1672 358 1708 c 0,11,12
 422 1721 422 1721 458 1721 c 128,-1,13
 494 1721 494 1721 494 1711.5 c 128,-1,14
 494 1702 494 1702 490 1656 c 2,15,-1
 414 640 l 2,16,17
 408 569 408 569 405 526 c 0,0,1
165 147 m 0,18,19
 165 219 165 219 212.5 266.5 c 128,-1,20
 260 314 260 314 330 314 c 0,21,22
 444 314 444 314 487 214 c 0,23,24
 500 183 500 183 500 147 c 0,25,26
 500 77 500 77 452 28 c 1,27,28
 404 -19 404 -19 330 -19 c 0,29,30
 260 -19 260 -19 212.5 28.5 c 128,-1,31
 165 76 165 76 165 147 c 0,18,19
EndSplineSet
EndChar

StartChar: numbersign
Encoding: 35 35 25
Width: 1651
GlyphClass: 2
Flags: W
LayerCount: 2
Fore
SplineSet
228 965 m 1,0,1
 217 991 217 991 217 1023.5 c 128,-1,2
 217 1056 217 1056 220.5 1077 c 128,-1,3
 224 1098 224 1098 232 1115 c 0,4,5
 248 1153 248 1153 273 1153 c 2,6,-1
 548 1153 l 1,7,-1
 624 1484 l 1,8,9
 650 1497 650 1497 683.5 1497 c 128,-1,10
 717 1497 717 1497 737.5 1493.5 c 128,-1,11
 758 1490 758 1490 773 1482 c 0,12,13
 807 1466 807 1466 801 1438 c 2,14,-1
 735 1153 l 1,15,-1
 1089 1153 l 1,16,-1
 1165 1484 l 1,17,18
 1191 1497 1191 1497 1224.5 1497 c 128,-1,19
 1258 1497 1258 1497 1278.5 1493.5 c 128,-1,20
 1299 1490 1299 1490 1314 1482 c 0,21,22
 1348 1466 1348 1466 1342 1438 c 2,23,-1
 1277 1153 l 1,24,-1
 1528 1153 l 1,25,26
 1541 1127 1541 1127 1541 1095.5 c 128,-1,27
 1541 1064 1541 1064 1537.5 1042.5 c 128,-1,28
 1534 1021 1534 1021 1526 1004 c 0,29,30
 1509 965 1509 965 1481 965 c 2,31,-1
 1234 965 l 1,32,-1
 1131 516 l 1,33,-1
 1421 516 l 1,34,35
 1434 490 1434 490 1434 458 c 128,-1,36
 1434 426 1434 426 1430.5 405 c 128,-1,37
 1427 384 1427 384 1420 366 c 0,38,39
 1403 328 1403 328 1374 328 c 2,40,-1
 1088 328 l 1,41,-1
 1013 0 l 1,42,43
 964 -18 964 -18 921.5 -11 c 128,-1,44
 879 -4 879 -4 864 4 c 0,45,46
 830 20 830 20 835 45 c 2,47,-1
 900 328 l 1,48,-1
 546 328 l 1,49,-1
 471 0 l 1,50,51
 444 -11 444 -11 411 -11 c 128,-1,52
 378 -11 378 -11 357.5 -7.5 c 128,-1,53
 337 -4 337 -4 322 4 c 0,54,55
 289 20 289 20 294 45 c 2,56,-1
 359 328 l 1,57,-1
 121 328 l 1,58,59
 110 354 110 354 110 386.5 c 128,-1,60
 110 419 110 419 113.5 440 c 128,-1,61
 117 461 117 461 124 478 c 0,62,63
 141 516 141 516 166 516 c 2,64,-1
 402 516 l 1,65,-1
 505 965 l 1,66,-1
 228 965 l 1,0,1
943 516 m 1,67,-1
 1046 965 l 1,68,-1
 692 965 l 1,69,-1
 589 516 l 1,70,-1
 943 516 l 1,67,-1
EndSplineSet
EndChar

StartChar: dollar
Encoding: 36 36 26
Width: 1322
GlyphClass: 2
Flags: W
LayerCount: 2
Fore
SplineSet
971 1111 m 0,0,1
 971 1235 971 1235 924 1310 c 128,-1,2
 877 1385 877 1385 770 1408 c 1,3,-1
 753 876 l 1,4,-1
 866 822 l 1,5,6
 1058 725 1058 725 1132 616 c 0,7,8
 1194 523 1194 523 1194 417.5 c 128,-1,9
 1194 312 1194 312 1157 240 c 128,-1,10
 1120 168 1120 168 1056 115 c 0,11,12
 927 7 927 7 724 -14 c 1,13,-1
 720 -159 l 1,14,15
 698 -167 698 -167 678.5 -167 c 128,-1,16
 659 -167 659 -167 641 -161.5 c 128,-1,17
 623 -156 623 -156 610 -146 c 0,18,19
 580 -124 580 -124 580 -95 c 2,20,-1
 582 -18 l 1,21,22
 406 -11 406 -11 277 49 c 0,23,24
 126 119 126 119 126 249 c 0,25,26
 126 366 126 366 182 463 c 1,27,28
 201 486 201 486 234 486 c 0,29,30
 298 486 298 486 308 448 c 1,31,32
 319 298 319 298 389 220 c 128,-1,33
 459 142 459 142 587 123 c 1,34,-1
 604 665 l 1,35,-1
 576 677 l 1,36,37
 382 759 382 759 287 852 c 0,38,39
 163 974 163 974 163 1153 c 0,40,41
 163 1321 163 1321 296 1428 c 0,42,43
 424 1532 424 1532 633 1548 c 1,44,-1
 638 1710 l 1,45,46
 656 1719 656 1719 676.5 1719 c 128,-1,47
 697 1719 697 1719 714.5 1713.5 c 128,-1,48
 732 1708 732 1708 746 1698 c 0,49,50
 778 1677 778 1677 778 1644 c 1,51,-1
 775 1550 l 1,52,53
 1034 1537 1034 1537 1112 1418 c 0,54,55
 1140 1376 1140 1376 1140 1306 c 128,-1,56
 1140 1236 1140 1236 1126.5 1182 c 128,-1,57
 1113 1128 1113 1128 1100 1112 c 0,58,59
 1078 1085 1078 1085 1024.5 1085 c 128,-1,60
 971 1085 971 1085 971 1111 c 0,0,1
628 1416 m 1,61,62
 452 1401 452 1401 400 1279 c 0,63,64
 385 1242 385 1242 385 1197 c 128,-1,65
 385 1152 385 1152 403 1115 c 128,-1,66
 421 1078 421 1078 452 1047 c 0,67,68
 505 994 505 994 613 941 c 1,69,-1
 628 1416 l 1,61,62
729 120 m 1,70,71
 889 137 889 137 940 254 c 0,72,73
 958 295 958 295 958 342 c 128,-1,74
 958 389 958 389 942 424 c 128,-1,75
 926 459 926 459 898 490 c 0,76,77
 844 547 844 547 744 599 c 1,78,-1
 729 120 l 1,70,71
EndSplineSet
EndChar

StartChar: percent
Encoding: 37 37 27
Width: 1969
GlyphClass: 2
Flags: W
LayerCount: 2
Fore
SplineSet
397 679 m 128,-1,1
 357 685 357 685 316.5 700.5 c 128,-1,2
 276 716 276 716 238 744 c 128,-1,3
 200 772 200 772 171 817 c 0,4,5
 107 916 107 916 107 1075 c 0,6,7
 107 1368 107 1368 320 1456 c 0,8,9
 392 1486 392 1486 450 1486 c 128,-1,10
 508 1486 508 1486 548.5 1480.5 c 128,-1,11
 589 1475 589 1475 629.5 1459.5 c 128,-1,12
 670 1444 670 1444 708 1416 c 128,-1,13
 746 1388 746 1388 776 1342 c 0,14,15
 840 1243 840 1243 840 1075 c 0,16,17
 840 797 840 797 626 706 c 0,18,19
 550 673 550 673 493.5 673 c 128,-1,0
 437 673 437 673 397 679 c 128,-1,1
641 1075 m 0,20,21
 641 1352 641 1352 473.5 1352 c 128,-1,22
 306 1352 306 1352 306 1075 c 0,23,24
 306 869 306 869 406 820 c 0,25,26
 437 805 437 805 473.5 805 c 128,-1,27
 510 805 510 805 540.5 820 c 128,-1,28
 571 835 571 835 594 868 c 0,29,30
 641 936 641 936 641 1075 c 0,20,21
1146 219 m 0,31,32
 1129 282 1129 282 1129 368.5 c 128,-1,33
 1129 455 1129 455 1147 519 c 128,-1,34
 1165 583 1165 583 1195 628.5 c 128,-1,35
 1225 674 1225 674 1263.5 703.5 c 128,-1,36
 1302 733 1302 733 1342 750 c 0,37,38
 1414 780 1414 780 1472.5 780 c 128,-1,39
 1531 780 1531 780 1571.5 774.5 c 128,-1,40
 1612 769 1612 769 1652.5 753.5 c 128,-1,41
 1693 738 1693 738 1730.5 710 c 128,-1,42
 1768 682 1768 682 1798 636 c 0,43,44
 1862 535 1862 535 1862 369 c 0,45,46
 1862 90 1862 90 1649 0 c 0,47,48
 1573 -33 1573 -33 1493 -33 c 0,49,50
 1216 -33 1216 -33 1146 219 c 0,31,32
1664 369 m 0,51,52
 1664 646 1664 646 1496 646 c 128,-1,53
 1328 646 1328 646 1328 369 c 0,54,55
 1328 163 1328 163 1429 114 c 0,56,57
 1460 99 1460 99 1496.5 99 c 128,-1,58
 1533 99 1533 99 1563.5 114 c 128,-1,59
 1594 129 1594 129 1616 162 c 1,60,61
 1664 230 1664 230 1664 369 c 0,51,52
1345 1448 m 1,62,63
 1393 1453 1393 1453 1429 1426 c 0,64,65
 1496 1376 1496 1376 1474 1342 c 2,66,-1
 610 3 l 1,67,68
 556 5 556 5 523 31 c 1,69,70
 461 77 461 77 480 109 c 1,71,-1
 1345 1448 l 1,62,63
EndSplineSet
EndChar

StartChar: ampersand
Encoding: 38 38 28
Width: 1712
GlyphClass: 2
Flags: W
LayerCount: 2
Fore
SplineSet
1171 170 m 1,0,1
 922 -19 922 -19 624 -19 c 0,2,3
 428 -19 428 -19 282 84 c 0,4,5
 117 201 117 201 117 404 c 0,6,7
 117 620 117 620 300 767 c 0,8,9
 353 809 353 809 408 839 c 1,10,11
 284 1009 284 1009 284 1143 c 0,12,13
 284 1321 284 1321 416 1435 c 0,14,15
 540 1541 540 1541 707 1541 c 0,16,17
 855 1541 855 1541 952 1482 c 0,18,19
 1061 1416 1061 1416 1061 1297 c 0,20,21
 1061 1167 1061 1167 942 1115 c 1,22,23
 918 1107 918 1107 898.5 1107 c 128,-1,24
 879 1107 879 1107 859 1124 c 1,25,26
 866 1154 866 1154 866 1196 c 2,27,-1
 866 1219 l 1,28,29
 857 1293 857 1293 805 1336.5 c 128,-1,30
 753 1380 753 1380 662 1380 c 0,31,32
 541 1380 541 1380 496 1294 c 0,33,34
 479 1262 479 1262 479 1211 c 128,-1,35
 479 1160 479 1160 508 1098.5 c 128,-1,36
 537 1037 537 1037 587.5 971 c 128,-1,37
 638 905 638 905 705.5 836 c 128,-1,38
 773 767 773 767 850 698 c 1,39,40
 1055 525 1055 525 1171 436 c 1,41,42
 1293 627 1293 627 1321 904 c 1,43,44
 1354 910 1354 910 1389 910 c 0,45,46
 1543 910 1543 910 1543 764 c 0,47,48
 1543 633 1543 633 1421 441 c 0,49,50
 1381 378 1381 378 1328 317 c 1,51,-1
 1412 256 l 2,52,53
 1521 178 1521 178 1596 178 c 0,54,55
 1636 178 1636 178 1663 196.5 c 128,-1,56
 1690 215 1690 215 1696.5 217 c 128,-1,57
 1703 219 1703 219 1711.5 216 c 128,-1,58
 1720 213 1720 213 1728 208 c 0,59,60
 1747 194 1747 194 1747 172.5 c 128,-1,61
 1747 151 1747 151 1728 115.5 c 128,-1,62
 1709 80 1709 80 1678 50 c 0,63,64
 1605 -21 1605 -21 1522 -21 c 0,65,66
 1442 -21 1442 -21 1338 52 c 2,67,-1
 1171 170 l 1,0,1
498 730 m 1,68,69
 352 624 352 624 352 472 c 0,70,71
 352 318 352 318 448 230 c 0,72,73
 535 149 535 149 656 149 c 0,74,75
 875 149 875 149 1028 273 c 1,76,77
 747 487 747 487 650 578.5 c 128,-1,78
 553 670 553 670 498 730 c 1,68,69
EndSplineSet
EndChar

StartChar: quotesingle
Encoding: 39 39 29
Width: 644
GlyphClass: 2
Flags: W
LayerCount: 2
Fore
SplineSet
328 1725 m 0,0,1
 365 1728 365 1728 415 1728 c 128,-1,2
 465 1728 465 1728 465 1712 c 1,3,4
 460 1649 460 1649 454 1587 c 0,5,6
 422 1259 422 1259 417 1197 c 2,7,-1
 406 1076 l 1,8,9
 406 1055 406 1055 307 1055 c 0,10,11
 239 1055 239 1055 237 1079 c 0,12,13
 234 1112 234 1112 229 1162 c 2,14,-1
 206 1386 l 2,15,16
 199 1446 199 1446 194 1502 c 2,17,-1
 185 1607 l 2,18,19
 181 1655 181 1655 180 1686 c 0,20,21
 180 1713 180 1713 328 1725 c 0,0,1
EndSplineSet
EndChar

StartChar: parenleft
Encoding: 40 40 30
Width: 960
GlyphClass: 2
Flags: W
LayerCount: 2
Fore
SplineSet
158.5 373 m 128,-1,1
 107 555 107 555 107 719 c 128,-1,2
 107 883 107 883 130.5 1009 c 128,-1,3
 154 1135 154 1135 196.5 1251.5 c 128,-1,4
 239 1368 239 1368 300 1473.5 c 128,-1,5
 361 1579 361 1579 436 1670 c 0,6,7
 586 1852 586 1852 779 1964 c 1,8,9
 829 1934 829 1934 844 1861 c 1,10,11
 468 1602 468 1602 378 1080 c 0,12,13
 351 920 351 920 351 752 c 0,14,15
 351 225 351 225 634 -122 c 0,16,17
 731 -240 731 -240 863 -331 c 1,18,19
 855 -380 855 -380 804 -430 c 0,20,21
 791 -444 791 -444 779 -451 c 1,22,23
 482 -281 482 -281 300 35 c 0,24,0
 210 191 210 191 158.5 373 c 128,-1,1
EndSplineSet
EndChar

StartChar: asterisk
Encoding: 42 42 32
Width: 1290
GlyphClass: 2
Flags: W
LayerCount: 2
Fore
SplineSet
498 1049 m 0,0,1
 472 1012 472 1012 422.5 1012 c 128,-1,2
 373 1012 373 1012 339 1039 c 0,3,4
 276 1088 276 1088 276 1151 c 0,5,6
 276 1197 276 1197 308 1224 c 1,7,8
 342 1251 342 1251 380 1280 c 2,9,10
 380 1280 380 1280 446 1331 c 0,11,12
 510 1380 510 1380 556 1426 c 1,13,14
 487 1442 487 1442 411 1446.5 c 128,-1,15
 335 1451 335 1451 290 1454 c 0,16,17
 236 1458 236 1458 212.5 1466.5 c 128,-1,18
 189 1475 189 1475 170 1502.5 c 128,-1,19
 151 1530 151 1530 151 1563.5 c 128,-1,20
 151 1597 151 1597 163 1630.5 c 128,-1,21
 175 1664 175 1664 206.5 1689.5 c 128,-1,22
 238 1715 238 1715 260 1715 c 0,23,24
 294 1715 294 1715 307 1710 c 1,25,-1
 339 1692 l 1,26,-1
 467 1603 l 1,27,28
 533 1559 533 1559 591 1530 c 1,29,30
 578 1626 578 1626 558 1704 c 2,31,-1
 527 1825 l 1,32,33
 522 1840 522 1840 522 1862.5 c 128,-1,34
 522 1885 522 1885 532.5 1904.5 c 128,-1,35
 543 1924 543 1924 561 1938 c 0,36,37
 599 1969 599 1969 640.5 1969 c 128,-1,38
 682 1969 682 1969 706.5 1959.5 c 128,-1,39
 731 1950 731 1950 748 1934 c 0,40,41
 781 1903 781 1903 781 1862 c 0,42,43
 781 1838 781 1838 768 1792 c 2,44,-1
 732 1672 l 1,45,46
 709 1600 709 1600 698 1528 c 1,47,48
 769 1566 769 1566 811 1594 c 2,49,-1
 952 1692 l 1,50,51
 992 1715 992 1715 1022 1715 c 128,-1,52
 1052 1715 1052 1715 1083.5 1689.5 c 128,-1,53
 1115 1664 1115 1664 1127 1630.5 c 128,-1,54
 1139 1597 1139 1597 1139 1563.5 c 128,-1,55
 1139 1530 1139 1530 1120 1502.5 c 128,-1,56
 1101 1475 1101 1475 1082 1468 c 0,57,58
 1050 1457 1050 1457 1002 1454 c 2,59,-1
 879 1446 l 2,60,61
 803 1442 803 1442 734 1426 c 1,62,63
 780 1380 780 1380 826 1345 c 2,64,-1
 967 1236 l 1,65,66
 991 1216 991 1216 1002.5 1201 c 128,-1,67
 1014 1186 1014 1186 1014 1154 c 0,68,69
 1014 1088 1014 1088 960 1046 c 0,70,71
 917 1012 917 1012 881 1012 c 0,72,73
 803 1012 803 1012 771 1083 c 1,74,-1
 712 1226 l 2,75,76
 683 1295 683 1295 646 1358 c 1,77,78
 610 1295 610 1295 580 1226 c 2,79,-1
 519 1083 l 2,80,81
 511 1066 511 1066 498 1049 c 0,0,1
EndSplineSet
EndChar

StartChar: plus
Encoding: 43 43 33
Width: 1157
GlyphClass: 2
Flags: W
LayerCount: 2
Fore
SplineSet
486 664 m 1,0,-1
 151 664 l 1,1,2
 140 694 140 694 140 723.5 c 128,-1,3
 140 753 140 753 143.5 774 c 128,-1,4
 147 795 147 795 154 812 c 1,5,6
 172 849 172 849 196 849 c 2,7,-1
 486 849 l 1,8,-1
 486 1203 l 1,9,10
 512 1216 512 1216 543.5 1216 c 128,-1,11
 575 1216 575 1216 596.5 1212.5 c 128,-1,12
 618 1209 618 1209 635 1202 c 0,13,14
 674 1184 674 1184 674 1156 c 2,15,-1
 674 849 l 1,16,-1
 1004 849 l 1,17,18
 1017 823 1017 823 1017 791 c 128,-1,19
 1017 759 1017 759 1013.5 738.5 c 128,-1,20
 1010 718 1010 718 1002 702 c 0,21,22
 985 664 985 664 957 664 c 2,23,-1
 674 664 l 1,24,-1
 674 311 l 1,25,26
 644 300 644 300 614 300 c 128,-1,27
 584 300 584 300 562.5 303.5 c 128,-1,28
 541 307 541 307 524 314 c 0,29,30
 486 331 486 331 486 356 c 2,31,-1
 486 664 l 1,0,-1
EndSplineSet
EndChar

StartChar: comma
Encoding: 44 44 34
Width: 664
GlyphClass: 2
Flags: W
LayerCount: 2
Fore
SplineSet
316 319 m 0,0,1
 501 319 501 319 501 108 c 0,2,3
 501 -137 501 -137 338 -312 c 0,4,5
 294 -360 294 -360 261 -376 c 1,6,7
 224 -376 224 -376 194 -339 c 0,8,9
 185 -328 185 -328 185 -316 c 1,10,11
 191 -307 191 -307 207.5 -285 c 128,-1,12
 224 -263 224 -263 242 -230 c 0,13,14
 286 -144 286 -144 286 -52 c 0,15,16
 286 72 286 72 165 81 c 1,17,18
 151 114 151 114 151 149.5 c 128,-1,19
 151 185 151 185 162.5 214.5 c 128,-1,20
 174 244 174 244 196 267 c 0,21,22
 244 319 244 319 316 319 c 0,0,1
EndSplineSet
EndChar

StartChar: hyphen
Encoding: 45 45 35
Width: 1002
GlyphClass: 2
Flags: W
LayerCount: 2
Fore
SplineSet
849 849 m 1,0,1
 862 823 862 823 862 791.5 c 128,-1,2
 862 760 862 760 858.5 739 c 128,-1,3
 855 718 855 718 848 702 c 0,4,5
 830 664 830 664 802 664 c 2,6,-1
 151 664 l 1,7,8
 140 694 140 694 140 723.5 c 128,-1,9
 140 753 140 753 143.5 774 c 128,-1,10
 147 795 147 795 154 812 c 1,11,12
 172 849 172 849 196 849 c 2,13,-1
 849 849 l 1,0,1
EndSplineSet
EndChar

StartChar: period
Encoding: 46 46 36
Width: 664
GlyphClass: 2
Flags: W
LayerCount: 2
Fore
SplineSet
165 147 m 0,0,1
 165 219 165 219 212.5 266.5 c 128,-1,2
 260 314 260 314 330 314 c 0,3,4
 444 314 444 314 487 214 c 0,5,6
 500 183 500 183 500 147 c 0,7,8
 500 77 500 77 452 28 c 1,9,10
 404 -19 404 -19 330 -19 c 0,11,12
 260 -19 260 -19 212.5 28.5 c 128,-1,13
 165 76 165 76 165 147 c 0,0,1
EndSplineSet
EndChar

StartChar: slash
Encoding: 47 47 37
Width: 921
GlyphClass: 2
Flags: W
LayerCount: 2
Fore
SplineSet
732 1814 m 1,0,1
 762 1827 762 1827 795 1827 c 128,-1,2
 828 1827 828 1827 850 1823.5 c 128,-1,3
 872 1820 872 1820 888 1812 c 1,4,5
 926 1796 926 1796 920 1767 c 1,6,-1
 188 -165 l 1,7,8
 159 -176 159 -176 125.5 -176 c 128,-1,9
 92 -176 92 -176 70.5 -172.5 c 128,-1,10
 49 -169 49 -169 32 -162 c 0,11,12
 -4 -145 -4 -145 1 -120 c 1,13,-1
 732 1814 l 1,0,1
EndSplineSet
EndChar

StartChar: zero
Encoding: 48 48 38
Width: 1527
GlyphClass: 2
Flags: W
LayerCount: 2
Fore
SplineSet
758 -19 m 0,0,1
 530 -19 530 -19 358 130 c 0,2,3
 222 249 222 249 166 476 c 0,4,5
 136 594 136 594 136 751.5 c 128,-1,6
 136 909 136 909 166.5 1029 c 128,-1,7
 197 1149 197 1149 247.5 1237 c 128,-1,8
 298 1325 298 1325 363.5 1383.5 c 128,-1,9
 429 1442 429 1442 498 1477 c 0,10,11
 628 1542 628 1542 764 1542 c 0,12,13
 1001 1542 1001 1542 1168 1396 c 0,14,15
 1305 1276 1305 1276 1362 1040 c 0,16,17
 1391 917 1391 917 1391 760.5 c 128,-1,18
 1391 604 1391 604 1360.5 489 c 128,-1,19
 1330 374 1330 374 1279.5 288.5 c 128,-1,20
 1229 203 1229 203 1163.5 144 c 128,-1,21
 1098 85 1098 85 1028 49 c 0,22,23
 894 -19 894 -19 758 -19 c 0,0,1
612 178 m 0,24,25
 681 145 681 145 764.5 145 c 128,-1,26
 848 145 848 145 917.5 178 c 128,-1,27
 987 211 987 211 1036 284 c 0,28,29
 1141 437 1141 437 1141 752 c 0,30,31
 1141 1248 1141 1248 916 1346 c 0,32,33
 846 1377 846 1377 762.5 1377 c 128,-1,34
 679 1377 679 1377 609 1346.5 c 128,-1,35
 539 1316 539 1316 490 1243 c 0,36,37
 386 1090 386 1090 386 752 c 0,38,39
 386 285 386 285 612 178 c 0,24,25
EndSplineSet
EndChar

StartChar: one
Encoding: 49 49 39
Width: 1022
GlyphClass: 2
Flags: W
LayerCount: 2
Fore
SplineSet
886 -8 m 1,0,1
 862 0 862 0 787 0 c 2,2,-1
 282 0 l 2,3,4
 197 0 197 0 176 50 c 0,5,6
 168 68 168 68 168 88 c 0,7,8
 168 130 168 130 183 147 c 1,9,10
 218 137 218 137 277 137 c 128,-1,11
 336 137 336 137 361.5 149 c 128,-1,12
 387 161 387 161 402 183 c 0,13,14
 428 221 428 221 428 305 c 2,15,-1
 429 1161 l 1,16,17
 409 1273 409 1273 306 1273 c 0,18,19
 277 1273 277 1273 246 1268 c 2,20,21
 246 1268 246 1268 187 1257 c 0,22,23
 168 1253 168 1253 156 1289 c 1,24,25
 132 1355 132 1355 148 1367 c 1,26,27
 408 1444 408 1444 566 1538 c 1,28,29
 570 1542 570 1542 581 1542 c 128,-1,30
 592 1542 592 1542 606.5 1534 c 128,-1,31
 621 1526 621 1526 633 1514 c 0,32,33
 661 1486 661 1486 661 1466 c 2,34,-1
 661 255 l 2,35,36
 661 198 661 198 674 180 c 0,37,38
 695 153 695 153 731 146.5 c 128,-1,39
 767 140 767 140 796.5 133.5 c 128,-1,40
 826 127 826 127 850 116 c 0,41,42
 901 93 901 93 901 47 c 0,43,44
 901 13 901 13 886 -8 c 1,0,1
EndSplineSet
EndChar

StartChar: two
Encoding: 50 50 40
Width: 1406
GlyphClass: 2
Flags: W
LayerCount: 2
Fore
SplineSet
466 185 m 1,0,1
 564 183 564 183 661 183 c 128,-1,2
 758 183 758 183 843 187 c 128,-1,3
 928 191 928 191 988 213 c 0,4,5
 1113 259 1113 259 1122 415 c 1,6,7
 1142 420 1142 420 1157 420 c 0,8,9
 1196 420 1196 420 1209.5 398.5 c 128,-1,10
 1223 377 1223 377 1230 350 c 128,-1,11
 1237 323 1237 323 1240 292 c 0,12,13
 1247 236 1247 236 1247 192.5 c 128,-1,14
 1247 149 1247 149 1237.5 115.5 c 128,-1,15
 1228 82 1228 82 1208 56 c 0,16,17
 1164 0 1164 0 1076 0 c 2,18,-1
 201 0 l 1,19,20
 172 14 172 14 158.5 47 c 128,-1,21
 145 80 145 80 145 104 c 0,22,23
 145 148 145 148 162 163 c 1,24,25
 490 371 490 371 707 634 c 1,26,27
 932 905 932 905 932 1120 c 0,28,29
 932 1231 932 1231 867 1302 c 0,30,31
 798 1377 798 1377 680 1377 c 0,32,33
 559 1377 559 1377 480 1308 c 0,34,35
 394 1233 394 1233 394 1096 c 0,36,37
 394 1078 394 1078 396 1060 c 1,38,39
 348 1034 348 1034 314 1034 c 128,-1,40
 280 1034 280 1034 256.5 1044 c 128,-1,41
 233 1054 233 1054 215 1075 c 0,42,43
 175 1122 175 1122 175 1200 c 128,-1,44
 175 1278 175 1278 208.5 1338 c 128,-1,45
 242 1398 242 1398 308 1444 c 0,46,47
 449 1542 449 1542 695 1542 c 0,48,49
 925 1542 925 1542 1055 1429.5 c 128,-1,50
 1185 1317 1185 1317 1185 1125 c 0,51,52
 1185 812 1185 812 740 410 c 0,53,54
 610 292 610 292 466 185 c 1,0,1
EndSplineSet
EndChar

StartChar: three
Encoding: 51 51 41
Width: 1452
GlyphClass: 2
Flags: W
LayerCount: 2
Fore
SplineSet
1217 1186 m 0,0,1
 1217 924 1217 924 923 795 c 1,2,3
 1080 766 1080 766 1178 669 c 0,4,5
 1283 565 1283 565 1283 419 c 0,6,7
 1283 233 1283 233 1124 110 c 1,8,9
 959 -19 959 -19 698 -19 c 0,10,11
 463 -19 463 -19 315 62 c 0,12,13
 165 143 165 143 165 273 c 0,14,15
 165 367 165 367 232 418 c 1,16,17
 272 450 272 450 302 450 c 128,-1,18
 332 450 332 450 372 440 c 1,19,20
 372 212 372 212 589 158 c 0,21,22
 641 145 641 145 714.5 145 c 128,-1,23
 788 145 788 145 848.5 166.5 c 128,-1,24
 909 188 909 188 950 227 c 0,25,26
 1035 306 1035 306 1035 437 c 0,27,28
 1035 543 1035 543 948 620 c 0,29,30
 845 710 845 710 660 710 c 0,31,32
 630 710 630 710 572 705 c 1,33,34
 539 705 539 705 523 781 c 0,35,36
 519 800 519 800 519 823 c 128,-1,37
 519 846 519 846 534 846 c 0,38,39
 746 850 746 850 866 943 c 0,40,41
 975 1027 975 1027 975 1148 c 0,42,43
 975 1248 975 1248 902 1312 c 1,44,45
 830 1377 830 1377 728 1377 c 128,-1,46
 626 1377 626 1377 570 1358.5 c 128,-1,47
 514 1340 514 1340 482 1306 c 1,48,49
 426 1243 426 1243 430 1115 c 1,50,51
 396 1091 396 1091 364 1091 c 128,-1,52
 332 1091 332 1091 307 1101 c 128,-1,53
 282 1111 282 1111 263 1132 c 0,54,55
 221 1178 221 1178 221 1243.5 c 128,-1,56
 221 1309 221 1309 255 1359 c 128,-1,57
 289 1409 289 1409 354 1450 c 0,58,59
 504 1542 504 1542 729 1542 c 0,60,61
 937 1542 937 1542 1072 1450 c 0,62,63
 1217 1351 1217 1351 1217 1186 c 0,0,1
EndSplineSet
EndChar

StartChar: four
Encoding: 52 52 42
Width: 1484
GlyphClass: 2
Flags: W
LayerCount: 2
Fore
SplineSet
988 -28 m 0,0,1
 960 -32 960 -32 921 -32 c 128,-1,2
 882 -32 882 -32 861 -18 c 1,3,-1
 861 349 l 1,4,-1
 175 349 l 2,5,6
 131 349 131 349 92 417 c 0,7,8
 54 483 54 483 73 511 c 0,9,10
 216 722 216 722 280 828 c 1,11,-1
 402 1034 l 1,12,13
 600 1385 600 1385 652 1585 c 1,14,15
 778 1585 778 1585 844 1542 c 0,16,17
 895 1509 895 1509 872 1426 c 1,18,19
 839 1301 839 1301 677 1046 c 1,20,21
 545 847 545 847 484 766 c 1,22,-1
 375 625 l 1,23,24
 327 565 327 565 287 520 c 1,25,-1
 861 520 l 1,26,-1
 861 855 l 2,27,28
 861 897 861 897 928 935 c 0,29,30
 991 970 991 970 1041.5 970 c 128,-1,31
 1092 970 1092 970 1092 940 c 2,32,-1
 1092 520 l 1,33,-1
 1355 520 l 2,34,35
 1374 520 1374 520 1374 493.5 c 128,-1,36
 1374 467 1374 467 1368 443.5 c 128,-1,37
 1362 420 1362 420 1352 399 c 0,38,39
 1326 349 1326 349 1299 349 c 2,40,-1
 1092 349 l 1,41,-1
 1092 21 l 2,42,43
 1092 -11 1092 -11 988 -28 c 0,0,1
EndSplineSet
EndChar

StartChar: five
Encoding: 53 53 43
Width: 1478
GlyphClass: 2
Flags: W
LayerCount: 2
Fore
SplineSet
467 924 m 1,0,1
 612 973 612 973 756.5 973 c 128,-1,2
 901 973 901 973 998 941.5 c 128,-1,3
 1095 910 1095 910 1162 852 c 0,4,5
 1302 731 1302 731 1302 520 c 0,6,7
 1302 288 1302 288 1122 134 c 0,8,9
 942 -19 942 -19 667 -19 c 0,10,11
 451 -19 451 -19 312 65 c 256,12,13
 173 149 173 149 173 280 c 0,14,15
 173 386 173 386 240 436 c 0,16,17
 284 469 284 469 323 462.5 c 128,-1,18
 362 456 362 456 370 448 c 1,19,20
 374 251 374 251 537 175 c 0,21,22
 601 145 601 145 682.5 145 c 128,-1,23
 764 145 764 145 827.5 165 c 128,-1,24
 891 185 891 185 941 226 c 0,25,26
 1054 317 1054 317 1054 467 c 0,27,28
 1054 626 1054 626 948 724 c 1,29,30
 848 815 848 815 700 815 c 0,31,32
 530 815 530 815 386 740 c 1,33,-1
 341 716 l 1,34,35
 312 723 312 723 292 742 c 0,36,37
 255 778 255 778 260 812 c 1,38,-1
 320 1439 l 1,39,40
 320 1473 320 1473 348 1496 c 1,41,42
 398 1540 398 1540 459 1535 c 0,43,44
 597 1524 597 1524 682 1524 c 128,-1,45
 767 1524 767 1524 821 1526 c 128,-1,46
 875 1528 875 1528 933 1532 c 2,47,-1
 1054 1540 l 2,48,49
 1117 1545 1117 1545 1191 1551 c 1,50,51
 1218 1524 1218 1524 1218 1461 c 0,52,53
 1218 1373 1218 1373 1173 1342 c 1,54,55
 1130 1314 1130 1314 1037 1314 c 128,-1,56
 944 1314 944 1314 879.5 1320 c 128,-1,57
 815 1326 815 1326 749.5 1334.5 c 128,-1,58
 684 1343 684 1343 622 1353 c 2,59,-1
 511 1371 l 1,60,-1
 467 924 l 1,0,1
EndSplineSet
EndChar

StartChar: six
Encoding: 54 54 44
Width: 1483
GlyphClass: 2
Flags: W
LayerCount: 2
Fore
SplineSet
1029 1177 m 1,0,1
 1029 1397 1029 1397 801 1397 c 0,2,3
 658 1397 658 1397 548 1256 c 0,4,5
 420 1091 420 1091 398 792 c 1,6,7
 527 909 527 909 706 952 c 0,8,9
 774 969 774 969 862 969 c 128,-1,10
 950 969 950 969 1034 938.5 c 128,-1,11
 1118 908 1118 908 1180 850 c 0,12,13
 1312 728 1312 728 1312 521 c 0,14,15
 1312 292 1312 292 1144 136 c 0,16,17
 978 -19 978 -19 740 -19 c 0,18,19
 512 -19 512 -19 348 138 c 0,20,21
 151 326 151 326 159 693 c 0,22,23
 165 1003 165 1003 290 1216 c 0,24,25
 393 1393 393 1393 568 1486 c 0,26,27
 712 1562 712 1562 858 1562 c 0,28,29
 1026 1562 1026 1562 1128 1500 c 0,30,31
 1234 1435 1234 1435 1234 1319 c 0,32,33
 1234 1255 1234 1255 1206 1223 c 0,34,35
 1157 1166 1157 1166 1102.5 1166 c 128,-1,36
 1048 1166 1048 1166 1029 1177 c 1,0,1
395 637 m 1,37,38
 406 373 406 373 530 246 c 0,39,40
 627 146 627 146 772 146 c 0,41,42
 988 146 988 146 1061 328 c 0,43,44
 1086 390 1086 390 1086 467.5 c 128,-1,45
 1086 545 1086 545 1062 603 c 128,-1,46
 1038 661 1038 661 996 702 c 0,47,48
 906 790 906 790 766 790 c 0,49,50
 592 790 592 790 460 688 c 1,51,-1
 395 637 l 1,37,38
EndSplineSet
EndChar

StartChar: seven
Encoding: 55 55 45
Width: 1281
GlyphClass: 2
Flags: W
LayerCount: 2
Fore
SplineSet
145 1541 m 1,0,1
 324 1524 324 1524 671 1524 c 128,-1,2
 1018 1524 1018 1524 1115 1539 c 1,3,4
 1173 1502 1173 1502 1184 1446 c 0,5,6
 1187 1427 1187 1427 1180 1408 c 1,7,8
 970 1144 970 1144 815 740 c 0,9,10
 657 328 657 328 639 0 c 1,11,12
 613 -6 613 -6 581 -6 c 0,13,14
 518 -6 518 -6 480.5 0.5 c 128,-1,15
 443 7 443 7 421 21.5 c 128,-1,16
 399 36 399 36 400 53 c 0,17,18
 411 461 411 461 724 1012 c 0,19,20
 842 1219 842 1219 949 1346 c 1,21,22
 678 1289 678 1289 399 1289 c 0,23,24
 185 1289 185 1289 152 1334 c 1,25,26
 124 1375 124 1375 124 1443.5 c 128,-1,27
 124 1512 124 1512 145 1541 c 1,0,1
EndSplineSet
EndChar

StartChar: eight
Encoding: 56 56 46
Width: 1483
GlyphClass: 2
Flags: W
LayerCount: 2
Fore
SplineSet
1244 1174 m 0,0,1
 1244 945 1244 945 992 798 c 1,2,3
 1167 702 1167 702 1215 645 c 128,-1,4
 1263 588 1263 588 1280.5 533 c 128,-1,5
 1298 478 1298 478 1298 404.5 c 128,-1,6
 1298 331 1298 331 1266.5 256.5 c 128,-1,7
 1235 182 1235 182 1168 120 c 0,8,9
 1018 -19 1018 -19 747 -19 c 0,10,11
 512 -19 512 -19 358 84 c 1,12,13
 184 199 184 199 184 412 c 0,14,15
 184 585 184 585 370 736 c 0,16,17
 421 778 421 778 474 808 c 1,18,19
 255 946 255 946 255 1152 c 0,20,21
 255 1345 255 1345 416 1451 c 0,22,23
 555 1542 555 1542 755 1542 c 0,24,25
 970 1542 970 1542 1108 1436 c 0,26,27
 1244 1332 1244 1332 1244 1174 c 0,0,1
1025 1144 m 0,28,29
 1025 1379 1025 1379 742 1379 c 0,30,31
 540 1379 540 1379 486 1265 c 0,32,33
 470 1230 470 1230 470 1179 c 128,-1,34
 470 1128 470 1128 506 1083 c 128,-1,35
 542 1038 542 1038 599 1000.5 c 128,-1,36
 656 963 656 963 726 930 c 2,37,-1
 866 864 l 1,38,39
 1025 976 1025 976 1025 1144 c 0,28,29
413 420 m 0,40,41
 413 352 413 352 446.5 291.5 c 128,-1,42
 480 231 480 231 532 197 c 0,43,44
 622 138 622 138 769 138 c 0,45,46
 915 138 915 138 998 203 c 0,47,48
 1076 263 1076 263 1076 360 c 0,49,50
 1076 445 1076 445 990 514 c 0,51,52
 946 550 946 550 876 589 c 2,53,-1
 709 680 l 1,54,-1
 590 741 l 1,55,56
 413 610 413 610 413 420 c 0,40,41
EndSplineSet
EndChar

StartChar: nine
Encoding: 57 57 47
Width: 1483
GlyphClass: 2
Flags: W
LayerCount: 2
Fore
SplineSet
1080 692 m 1,0,1
 931 554 931 554 688 554 c 0,2,3
 462 554 462 554 327 675 c 0,4,5
 188 799 188 799 188 1012 c 0,6,7
 188 1240 188 1240 346 1390 c 0,8,9
 507 1542 507 1542 770 1542 c 0,10,11
 1005 1542 1005 1542 1156 1376 c 0,12,13
 1328 1186 1328 1186 1322 807 c 0,14,15
 1316 489 1316 489 1202 285 c 0,16,17
 1110 119 1110 119 953 41 c 0,18,19
 833 -19 833 -19 717 -19 c 128,-1,20
 601 -19 601 -19 521 -3.5 c 128,-1,21
 441 12 441 12 386 43 c 0,22,23
 271 107 271 107 271 223 c 0,24,25
 271 286 271 286 308.5 326.5 c 128,-1,26
 346 367 346 367 401 367 c 128,-1,27
 456 367 456 367 475 356 c 1,28,29
 475 200 475 200 590 154 c 0,30,31
 630 138 630 138 668.5 138 c 128,-1,32
 707 138 707 138 752 142.5 c 128,-1,33
 797 147 797 147 857 173 c 128,-1,34
 917 199 917 199 964 260 c 0,35,36
 1069 394 1069 394 1080 692 c 1,0,1
726 725 m 0,37,38
 794 725 794 725 847.5 734.5 c 128,-1,39
 901 744 901 744 943 760 c 0,40,41
 1010 787 1010 787 1081 843 c 1,42,43
 1067 1273 1067 1273 876 1352 c 0,44,45
 817 1376 817 1376 746.5 1376 c 128,-1,46
 676 1376 676 1376 614.5 1357 c 128,-1,47
 553 1338 553 1338 507 1299 c 0,48,49
 409 1216 409 1216 409 1058 c 0,50,51
 409 913 409 913 500 818 c 0,52,53
 589 725 589 725 726 725 c 0,37,38
EndSplineSet
EndChar

StartChar: less
Encoding: 60 60 50
Width: 1398
GlyphClass: 2
Flags: W
LayerCount: 2
Fore
SplineSet
1128 1335 m 0,0,1
 1185 1335 1185 1335 1185 1190 c 0,2,3
 1185 1154 1185 1154 1137 1126 c 1,4,-1
 440 749 l 1,5,-1
 1129 355 l 1,6,7
 1186 324 1186 324 1186 272 c 128,-1,8
 1186 220 1186 220 1168.5 185.5 c 128,-1,9
 1151 151 1151 151 1127 151 c 128,-1,10
 1103 151 1103 151 1084 162 c 2,11,-1
 279 608 l 1,12,13
 210 649 210 649 210 740 c 0,14,15
 210 785 210 785 229.5 826.5 c 128,-1,16
 249 868 249 868 279 886 c 1,17,-1
 1084 1320 l 2,18,19
 1111 1335 1111 1335 1128 1335 c 0,0,1
EndSplineSet
EndChar

StartChar: equal
Encoding: 61 61 51
Width: 1118
GlyphClass: 2
Flags: W
LayerCount: 2
Fore
SplineSet
965 1048 m 1,0,1
 978 1026 978 1026 978 992 c 128,-1,2
 978 958 978 958 974.5 937.5 c 128,-1,3
 971 917 971 917 964 900 c 1,4,5
 946 863 946 863 919 863 c 2,6,-1
 151 863 l 1,7,8
 140 893 140 893 140 922.5 c 128,-1,9
 140 952 140 952 143.5 973 c 128,-1,10
 147 994 147 994 154 1010 c 0,11,12
 172 1048 172 1048 196 1048 c 2,13,-1
 965 1048 l 1,0,1
965 652 m 1,14,15
 978 630 978 630 978 596 c 128,-1,16
 978 562 978 562 974.5 541.5 c 128,-1,17
 971 521 971 521 964 504 c 0,18,19
 947 468 947 468 919 468 c 2,20,-1
 151 468 l 1,21,22
 140 498 140 498 140 527.5 c 128,-1,23
 140 557 140 557 143.5 578 c 128,-1,24
 147 599 147 599 154 616 c 0,25,26
 171 652 171 652 196 652 c 2,27,-1
 965 652 l 1,14,15
EndSplineSet
EndChar

StartChar: question
Encoding: 63 63 53
Width: 1268
GlyphClass: 2
Flags: W
LayerCount: 2
Fore
SplineSet
688 542 m 1,0,-1
 689 506 l 1,1,2
 683 489 683 489 651 477 c 128,-1,3
 619 465 619 465 610 464.5 c 128,-1,4
 601 464 601 464 593.5 464 c 128,-1,5
 586 464 586 464 577 466 c 0,6,7
 557 471 557 471 545 488 c 1,8,9
 519 531 519 531 498.5 576 c 128,-1,10
 478 621 478 621 478 675.5 c 128,-1,11
 478 730 478 730 499 769 c 128,-1,12
 520 808 520 808 554 839 c 128,-1,13
 588 870 588 870 632 896 c 2,14,-1
 721 947 l 2,15,16
 838 1013 838 1013 880 1060 c 0,17,18
 964 1154 964 1154 964 1274 c 0,19,20
 964 1400 964 1400 877 1487 c 0,21,22
 788 1576 788 1576 652 1576 c 0,23,24
 399 1576 399 1576 358 1378 c 0,25,26
 341 1299 341 1299 341 1274 c 2,27,-1
 341 1241 l 2,28,29
 341 1211 341 1211 344 1199 c 1,30,31
 292 1173 292 1173 253 1173 c 128,-1,32
 214 1173 214 1173 189.5 1187 c 128,-1,33
 165 1201 165 1201 148 1224 c 0,34,35
 113 1271 113 1271 113 1334.5 c 128,-1,36
 113 1398 113 1398 137 1449.5 c 128,-1,37
 161 1501 161 1501 202.5 1543.5 c 128,-1,38
 244 1586 244 1586 299.5 1619 c 128,-1,39
 355 1652 355 1652 417 1674 c 0,40,41
 545 1721 545 1721 664.5 1721 c 128,-1,42
 784 1721 784 1721 879.5 1700 c 128,-1,43
 975 1679 975 1679 1046 1628 c 0,44,45
 1197 1520 1197 1520 1197 1281 c 0,46,47
 1197 1072 1197 1072 1012 932 c 0,48,49
 961 894 961 894 912 864 c 2,50,-1
 822 810 l 2,51,52
 751 768 751 768 730.5 733.5 c 128,-1,53
 710 699 710 699 702 672 c 0,54,55
 688 623 688 623 688 542 c 1,0,-1
466 147 m 0,56,57
 466 218 466 218 513 266 c 0,58,59
 559 314 559 314 630 314 c 0,60,61
 744 314 744 314 787 214 c 0,62,63
 800 183 800 183 800 147 c 0,64,65
 800 77 800 77 752 28 c 1,66,67
 704 -19 704 -19 630 -19 c 0,68,69
 559 -19 559 -19 513 28 c 0,70,71
 466 77 466 77 466 147 c 0,56,57
EndSplineSet
EndChar

StartChar: at
Encoding: 64 64 54
Width: 2433
GlyphClass: 2
Flags: W
LayerCount: 2
Fore
SplineSet
1704 -223 m 1,0,-1
 1708 -222 l 1,1,2
 1721 -222 1721 -222 1732 -240.5 c 128,-1,3
 1743 -259 1743 -259 1743 -283.5 c 128,-1,4
 1743 -308 1743 -308 1732 -326.5 c 128,-1,5
 1721 -345 1721 -345 1686 -373.5 c 128,-1,6
 1651 -402 1651 -402 1581 -430 c 0,7,8
 1411 -498 1411 -498 1160.5 -498 c 128,-1,9
 910 -498 910 -498 731 -437.5 c 128,-1,10
 552 -377 552 -377 425 -260 c 0,11,12
 160 -14 160 -14 160 430 c 0,13,14
 160 1009 160 1009 584 1362 c 0,15,16
 855 1587 855 1587 1212 1649 c 0,17,18
 1321 1668 1321 1668 1457 1668 c 128,-1,19
 1593 1668 1593 1668 1722.5 1634.5 c 128,-1,20
 1852 1601 1852 1601 1948 1542.5 c 128,-1,21
 2044 1484 2044 1484 2109.5 1405.5 c 128,-1,22
 2175 1327 2175 1327 2215 1236 c 0,23,24
 2290 1067 2290 1067 2290 871.5 c 128,-1,25
 2290 676 2290 676 2246.5 541.5 c 128,-1,26
 2203 407 2203 407 2133.5 310.5 c 128,-1,27
 2064 214 2064 214 1977.5 152.5 c 128,-1,28
 1891 91 1891 91 1805 55 c 0,29,30
 1652 -9 1652 -9 1518 -9 c 0,31,32
 1397 -9 1397 -9 1363 114 c 0,33,34
 1353 150 1353 150 1353 192 c 1,35,36
 1187 -10 1187 -10 1018 -10 c 0,37,38
 890 -10 890 -10 800 100 c 1,39,40
 696 230 696 230 696 464 c 0,41,42
 696 662 696 662 790 838 c 0,43,44
 881 1010 881 1010 1031 1112 c 0,45,46
 1187 1219 1187 1219 1362 1219 c 0,47,48
 1472 1219 1472 1219 1564 1168 c 1,49,50
 1623 1218 1623 1218 1677.5 1217 c 128,-1,51
 1732 1216 1732 1216 1752.5 1192 c 128,-1,52
 1773 1168 1773 1168 1778 1133 c 1,53,54
 1706 1103 1706 1103 1680 950 c 0,55,56
 1671 901 1671 901 1663.5 842.5 c 128,-1,57
 1656 784 1656 784 1644 708 c 2,58,-1
 1620 554 l 1,59,60
 1580 308 1580 308 1580 231 c 128,-1,61
 1580 154 1580 154 1611 154 c 0,62,63
 1765 154 1765 154 1886 266 c 0,64,65
 2048 416 2048 416 2096 688 c 0,66,67
 2111 768 2111 768 2111 844 c 0,68,69
 2111 1174 2111 1174 1913 1353 c 0,70,71
 1722 1526 1722 1526 1385 1526 c 0,72,73
 1101 1526 1101 1526 862 1386 c 0,74,75
 626 1248 626 1248 489 1010 c 0,76,77
 346 760 346 760 346 459 c 0,78,79
 346 74 346 74 557 -136 c 0,80,81
 775 -352 775 -352 1182 -352 c 0,82,83
 1471 -352 1471 -352 1634 -261 c 1,84,-1
 1704 -223 l 1,0,-1
1477 988 m 1,85,86
 1425 1057 1425 1057 1320 1057 c 0,87,88
 1120 1057 1120 1057 1010 864 c 1,89,90
 915 700 915 700 915 488 c 0,91,92
 915 182 915 182 1120 182 c 0,93,94
 1219 182 1219 182 1326 306 c 0,95,96
 1355 339 1355 339 1377 372 c 1,97,-1
 1477 988 l 1,85,86
EndSplineSet
EndChar

StartChar: A
Encoding: 65 65 55
Width: 1658
GlyphClass: 2
Flags: W
LayerCount: 2
Fore
SplineSet
1060 118 m 1,0,1
 1102 111 1102 111 1123 111 c 128,-1,2
 1144 111 1144 111 1164.5 115.5 c 128,-1,3
 1185 120 1185 120 1201 130 c 0,4,5
 1237 152 1237 152 1237 199 c 0,6,7
 1237 238 1237 238 1213 286 c 1,8,-1
 1119 519 l 1,9,-1
 486 519 l 1,10,-1
 374 235 l 2,11,12
 358 196 358 196 358 178.5 c 128,-1,13
 358 161 358 161 363.5 152.5 c 128,-1,14
 369 144 369 144 380.5 138 c 128,-1,15
 392 132 392 132 409 128 c 2,16,-1
 450 117 l 1,17,18
 516 106 516 106 535 97 c 0,19,20
 574 78 574 78 574 41 c 0,21,22
 574 14 574 14 559 -5 c 1,23,24
 540 0 540 0 524 0 c 2,25,-1
 117 0 l 2,26,27
 -16 0 -16 0 -16 73 c 0,28,29
 -16 107 -16 107 -1 128 c 1,30,31
 36 118 36 118 61.5 118 c 128,-1,32
 87 118 87 118 104.5 126 c 128,-1,33
 122 134 122 134 138 153 c 0,34,35
 165 186 165 186 201 285 c 1,36,-1
 695 1481 l 1,37,38
 716 1529 716 1529 814 1547 c 0,39,40
 841 1552 841 1552 871 1552 c 0,41,42
 932 1552 932 1552 946 1519 c 2,43,-1
 1046 1269 l 1,44,45
 1335 587 1335 587 1380 473 c 1,46,-1
 1470 237 l 1,47,48
 1497 160 1497 160 1515 142 c 128,-1,49
 1533 124 1533 124 1554 117 c 128,-1,50
 1575 110 1575 110 1597.5 105.5 c 128,-1,51
 1620 101 1620 101 1637 94 c 0,52,53
 1675 77 1675 77 1675 42 c 0,54,55
 1675 15 1675 15 1660 -4 c 1,56,57
 1641 1 1641 1 1626 1 c 2,58,-1
 1149 1 l 2,59,60
 1098 1 1098 1 1069.5 13.5 c 128,-1,61
 1041 26 1041 26 1041 52 c 0,62,63
 1041 97 1041 97 1060 118 c 1,0,1
1061 661 m 1,64,-1
 799 1309 l 1,65,-1
 542 661 l 1,66,-1
 1061 661 l 1,64,-1
EndSplineSet
EndChar

StartChar: B
Encoding: 66 66 56
Width: 1540
GlyphClass: 2
Flags: W
LayerCount: 2
Fore
SplineSet
786 -10 m 1,0,-1
 454 1 l 1,1,-1
 201 1 l 2,2,3
 149 1 149 1 114 18.5 c 128,-1,4
 79 36 79 36 79 62 c 0,5,6
 79 110 79 110 94 129 c 1,7,8
 128 119 128 119 166 119 c 128,-1,9
 204 119 204 119 228.5 124 c 128,-1,10
 253 129 253 129 272 145 c 0,11,12
 316 181 316 181 316 270 c 2,13,-1
 316 1289 l 2,14,15
 316 1382 316 1382 203 1405 c 0,16,17
 131 1420 131 1420 110.5 1437.5 c 128,-1,18
 90 1455 90 1455 90 1476 c 0,19,20
 90 1522 90 1522 106 1538 c 1,21,22
 124 1533 124 1533 140 1533 c 2,23,24
 140 1533 140 1533 437 1533 c 0,25,26
 483 1533 483 1533 561.5 1538 c 128,-1,27
 640 1543 640 1543 780.5 1543 c 128,-1,28
 921 1543 921 1543 1032.5 1517 c 128,-1,29
 1144 1491 1144 1491 1216 1444 c 0,30,31
 1354 1353 1354 1353 1354 1188 c 0,32,33
 1354 1000 1354 1000 1196 884 c 0,34,35
 1137 841 1137 841 1045 810 c 1,36,37
 1340 786 1340 786 1424 584 c 0,38,39
 1450 519 1450 519 1450 429.5 c 128,-1,40
 1450 340 1450 340 1409 256.5 c 128,-1,41
 1368 173 1368 173 1285 114 c 0,42,43
 1113 -10 1113 -10 786 -10 c 1,0,-1
549 850 m 1,44,-1
 700 849 l 2,45,46
 745 849 745 849 807.5 849 c 128,-1,47
 870 849 870 849 930 871.5 c 128,-1,48
 990 894 990 894 1030 932 c 0,49,50
 1112 1010 1112 1010 1112 1132 c 0,51,52
 1112 1271 1112 1271 1044 1336 c 1,53,54
 964 1415 964 1415 767 1415 c 0,55,56
 633 1415 633 1415 600.5 1390 c 128,-1,57
 568 1365 568 1365 558.5 1331.5 c 128,-1,58
 549 1298 549 1298 549 1244 c 2,59,-1
 549 850 l 1,44,-1
790 717 m 0,60,61
 627 717 627 717 549 715 c 1,62,-1
 549 241 l 2,63,64
 549 140 549 140 681 128 c 0,65,66
 722 125 722 125 795 125 c 128,-1,67
 868 125 868 125 948 140 c 128,-1,68
 1028 155 1028 155 1086 191 c 0,69,70
 1207 267 1207 267 1207 432 c 0,71,72
 1207 717 1207 717 790 717 c 0,60,61
EndSplineSet
EndChar

StartChar: C
Encoding: 67 67 57
Width: 1457
GlyphClass: 2
Flags: W
LayerCount: 2
Fore
SplineSet
1138 1100 m 1,0,1
 1142 1128 1142 1128 1142 1182 c 128,-1,2
 1142 1236 1142 1236 1121 1280.5 c 128,-1,3
 1100 1325 1100 1325 1064 1350 c 0,4,5
 1001 1393 1001 1393 874.5 1393 c 128,-1,6
 748 1393 748 1393 651.5 1347.5 c 128,-1,7
 555 1302 555 1302 490 1220 c 0,8,9
 359 1055 359 1055 359 771 c 0,10,11
 359 502 359 502 492 342 c 0,12,13
 630 175 630 175 865 175 c 0,14,15
 1096 175 1096 175 1225 276 c 0,16,17
 1264 306 1264 306 1296 341 c 1,18,19
 1326 332 1326 332 1345 288 c 0,20,21
 1351 273 1351 273 1351 248.5 c 128,-1,22
 1351 224 1351 224 1315.5 176.5 c 128,-1,23
 1280 129 1280 129 1212 85 c 0,24,25
 1050 -21 1050 -21 824 -21 c 0,26,27
 500 -21 500 -21 308 176 c 1,28,29
 118 369 118 369 118 693 c 0,30,31
 118 891 118 891 181 1050 c 128,-1,32
 244 1209 244 1209 353 1320.5 c 128,-1,33
 462 1432 462 1432 607.5 1492 c 128,-1,34
 753 1552 753 1552 890.5 1552 c 128,-1,35
 1028 1552 1028 1552 1111 1529 c 128,-1,36
 1194 1506 1194 1506 1249 1466 c 0,37,38
 1359 1384 1359 1384 1359 1248 c 0,39,40
 1359 1144 1359 1144 1282 1101 c 0,41,42
 1256 1086 1256 1086 1226 1086 c 0,43,44
 1164 1086 1164 1086 1138 1100 c 1,0,1
EndSplineSet
EndChar

StartChar: D
Encoding: 68 68 58
Width: 1725
GlyphClass: 2
Flags: W
LayerCount: 2
Fore
SplineSet
739 -10 m 1,0,-1
 454 1 l 1,1,-1
 196 1 l 2,2,3
 144 1 144 1 109 18.5 c 128,-1,4
 74 36 74 36 74 62 c 0,5,6
 74 110 74 110 89 129 c 1,7,8
 125 119 125 119 162 119 c 128,-1,9
 199 119 199 119 224.5 124 c 128,-1,10
 250 129 250 129 270 145 c 0,11,12
 316 181 316 181 316 270 c 2,13,-1
 316 1289 l 2,14,15
 316 1382 316 1382 200 1405 c 0,16,17
 128 1420 128 1420 106.5 1437.5 c 128,-1,18
 85 1455 85 1455 85 1476 c 0,19,20
 85 1522 85 1522 101 1538 c 1,21,22
 119 1533 119 1533 134 1533 c 2,23,24
 134 1533 134 1533 437 1533 c 0,25,26
 460 1533 460 1533 498 1535 c 2,27,28
 498 1535 498 1535 583 1540 c 0,29,30
 708 1546 708 1546 839.5 1546 c 128,-1,31
 971 1546 971 1546 1095 1514.5 c 128,-1,32
 1219 1483 1219 1483 1309.5 1429 c 128,-1,33
 1400 1375 1400 1375 1460.5 1303.5 c 128,-1,34
 1521 1232 1521 1232 1558 1152 c 0,35,36
 1624 1005 1624 1005 1624 822 c 0,37,38
 1624 490 1624 490 1452 270 c 0,39,40
 1317 97 1317 97 1055 26 c 0,41,42
 919 -10 919 -10 739 -10 c 1,0,-1
552 241 m 2,43,44
 552 166 552 166 599 144 c 0,45,46
 639 126 639 126 790.5 126 c 128,-1,47
 942 126 942 126 1060 176 c 128,-1,48
 1178 226 1178 226 1248 311 c 0,49,50
 1374 464 1374 464 1374 742 c 0,51,52
 1374 1219 1374 1219 1037 1365 c 0,53,54
 915 1418 915 1418 736 1418 c 0,55,56
 617 1418 617 1418 591 1394.5 c 128,-1,57
 565 1371 565 1371 558.5 1336.5 c 128,-1,58
 552 1302 552 1302 552 1244 c 2,59,-1
 552 241 l 2,43,44
EndSplineSet
EndChar

StartChar: E
Encoding: 69 69 59
Width: 1443
GlyphClass: 2
Flags: W
LayerCount: 2
Fore
SplineSet
1209 445 m 1,0,1
 1236 468 1236 468 1266 468 c 0,2,3
 1312 468 1312 468 1319 455 c 0,4,5
 1358 377 1358 377 1358 197 c 0,6,7
 1358 72 1358 72 1330 16 c 0,8,9
 1321 0 1321 0 1311 0 c 2,10,-1
 207 0 l 2,11,12
 88 0 88 0 88 71 c 0,13,14
 88 109 88 109 104 129 c 1,15,16
 138 119 138 119 170 119 c 128,-1,17
 202 119 202 119 225 124 c 128,-1,18
 248 129 248 129 268 145 c 0,19,20
 316 182 316 182 316 270 c 2,21,-1
 316 1283 l 2,22,23
 316 1370 316 1370 246 1394 c 0,24,25
 226 1401 226 1401 204.5 1406.5 c 128,-1,26
 183 1412 183 1412 163.5 1417.5 c 128,-1,27
 144 1423 144 1423 129 1430 c 0,28,29
 95 1448 95 1448 95 1479 c 0,30,31
 95 1520 95 1520 111 1538 c 1,32,33
 129 1533 129 1533 147 1533 c 2,34,-1
 1170 1533 l 2,35,36
 1262 1533 1262 1533 1285 1516 c 0,37,38
 1327 1486 1327 1486 1327 1384 c 0,39,40
 1327 1286 1327 1286 1310.5 1224 c 128,-1,41
 1294 1162 1294 1162 1287 1150 c 0,42,43
 1277 1132 1277 1132 1248 1132 c 0,44,45
 1206 1132 1206 1132 1190.5 1142.5 c 128,-1,46
 1175 1153 1175 1153 1174 1158 c 0,47,48
 1161 1301 1161 1301 1129 1340.5 c 128,-1,49
 1097 1380 1097 1380 1053.5 1394.5 c 128,-1,50
 1010 1409 1010 1409 940 1409 c 2,51,-1
 717 1409 l 2,52,53
 611 1409 611 1409 587.5 1388 c 128,-1,54
 564 1367 564 1367 558 1339.5 c 128,-1,55
 552 1312 552 1312 552 1269 c 2,56,-1
 552 843 l 1,57,-1
 611 842 l 1,58,59
 832 842 832 842 1021 881 c 1,60,61
 1035 874 1035 874 1046 841.5 c 128,-1,62
 1057 809 1057 809 1057 777 c 0,63,64
 1057 723 1057 723 1039 683 c 1,65,66
 973 677 973 677 887 677 c 128,-1,67
 801 677 801 677 552 705 c 1,68,-1
 552 254 l 2,69,70
 552 179 552 179 592 153 c 0,71,72
 626 131 626 131 714 131 c 1,73,-1
 865 135 l 1,74,75
 1084 143 1084 143 1150 196 c 0,76,77
 1187 226 1187 226 1199 275 c 128,-1,78
 1211 324 1211 324 1211 373.5 c 128,-1,79
 1211 423 1211 423 1209 445 c 1,0,1
EndSplineSet
EndChar

StartChar: F
Encoding: 70 70 60
Width: 1314
GlyphClass: 2
Flags: W
LayerCount: 2
Fore
SplineSet
855 -8 m 1,0,1
 831 0 831 0 756 0 c 2,2,-1
 203 0 l 2,3,4
 151 0 151 0 119.5 16.5 c 128,-1,5
 88 33 88 33 88 77 c 0,6,7
 88 108 88 108 104 128 c 1,8,9
 140 118 140 118 175.5 118 c 128,-1,10
 211 118 211 118 234 125.5 c 128,-1,11
 257 133 257 133 275 152 c 0,12,13
 316 195 316 195 316 285 c 2,14,-1
 316 1283 l 2,15,16
 316 1370 316 1370 246 1394 c 0,17,18
 226 1401 226 1401 204.5 1406.5 c 128,-1,19
 183 1412 183 1412 163.5 1417.5 c 128,-1,20
 144 1423 144 1423 129 1430 c 0,21,22
 95 1448 95 1448 95 1479 c 0,23,24
 95 1520 95 1520 111 1538 c 1,25,26
 128 1533 128 1533 146 1533 c 2,27,-1
 1158 1533 l 2,28,29
 1248 1533 1248 1533 1269 1516 c 0,30,31
 1306 1488 1306 1488 1306 1384 c 0,32,33
 1306 1284 1306 1284 1290 1224.5 c 128,-1,34
 1274 1165 1274 1165 1266 1152 c 0,35,36
 1253 1130 1253 1130 1228 1130 c 0,37,38
 1187 1130 1187 1130 1169.5 1144 c 128,-1,39
 1152 1158 1152 1158 1152 1164 c 0,40,41
 1142 1306 1142 1306 1100 1355 c 0,42,43
 1055 1409 1055 1409 919 1409 c 2,44,-1
 727 1409 l 2,45,46
 620 1409 620 1409 593.5 1390.5 c 128,-1,47
 567 1372 567 1372 560 1347.5 c 128,-1,48
 553 1323 553 1323 552 1285 c 1,49,-1
 552 824 l 1,50,-1
 599 824 l 2,51,52
 840 824 840 824 1021 862 c 1,53,54
 1057 847 1057 847 1057 754 c 0,55,56
 1057 706 1057 706 1039 664 c 1,57,58
 974 658 974 658 899 658 c 128,-1,59
 824 658 824 658 737 667 c 2,60,-1
 552 687 l 1,61,-1
 552 236 l 2,62,63
 552 150 552 150 687 134 c 0,64,65
 799 120 799 120 826.5 106.5 c 128,-1,66
 854 93 854 93 862 80.5 c 128,-1,67
 870 68 870 68 870 50 c 0,68,69
 870 13 870 13 855 -8 c 1,0,1
EndSplineSet
EndChar

StartChar: G
Encoding: 71 71 61
Width: 1644
GlyphClass: 2
Flags: W
LayerCount: 2
Fore
SplineSet
1568 728 m 1,0,1
 1580 694 1580 694 1580 669 c 128,-1,2
 1580 644 1580 644 1572.5 634 c 128,-1,3
 1565 624 1565 624 1553 619 c 128,-1,4
 1541 614 1541 614 1525 611 c 128,-1,5
 1509 608 1509 608 1486 595 c 0,6,7
 1442 570 1442 570 1442 463 c 2,8,-1
 1442 230 l 1,9,10
 1429 203 1429 203 1387 160 c 128,-1,11
 1345 117 1345 117 1273 77 c 0,12,13
 1097 -21 1097 -21 886.5 -21 c 128,-1,14
 676 -21 676 -21 538 34 c 128,-1,15
 400 89 400 89 307 187 c 0,16,17
 120 384 120 384 120 712 c 0,18,19
 120 914 120 914 184.5 1071 c 128,-1,20
 249 1228 249 1228 359 1334 c 0,21,22
 584 1552 584 1552 923 1552 c 0,23,24
 1194 1552 1194 1552 1328 1454 c 0,25,26
 1434 1376 1434 1376 1434 1257 c 0,27,28
 1434 1183 1434 1183 1391 1138 c 0,29,30
 1350 1095 1350 1095 1284 1095 c 0,31,32
 1226 1095 1226 1095 1202 1110 c 1,33,34
 1207 1142 1207 1142 1207 1189 c 128,-1,35
 1207 1236 1207 1236 1186.5 1280.5 c 128,-1,36
 1166 1325 1166 1325 1126 1351 c 0,37,38
 1057 1397 1057 1397 918 1397 c 128,-1,39
 779 1397 779 1397 680.5 1361 c 128,-1,40
 582 1325 582 1325 514 1250 c 0,41,42
 373 1096 373 1096 373 796 c 0,43,44
 373 137 373 137 935 137 c 0,45,46
 1068 137 1068 137 1164 178 c 0,47,48
 1195 191 1195 191 1212 207 c 1,49,-1
 1211 493 l 2,50,51
 1211 565 1211 565 1117 592 c 0,52,53
 1094 598 1094 598 1070 603 c 128,-1,54
 1046 608 1046 608 1022.5 613.5 c 128,-1,55
 999 619 999 619 983 628 c 0,56,57
 951 644 951 644 951 681.5 c 128,-1,58
 951 719 951 719 966 736 c 1,59,60
 989 728 989 728 1065 728 c 2,61,-1
 1568 728 l 1,0,1
EndSplineSet
EndChar

StartChar: H
Encoding: 72 72 62
Width: 1892
GlyphClass: 2
Flags: W
LayerCount: 2
Fore
SplineSet
732 -8 m 1,0,1
 709 0 709 0 633 0 c 2,2,-1
 216 0 l 2,3,4
 164 0 164 0 133 16.5 c 128,-1,5
 102 33 102 33 102 77 c 0,6,7
 102 109 102 109 117 128 c 1,8,9
 157 118 157 118 191 118 c 128,-1,10
 225 118 225 118 245 125.5 c 128,-1,11
 265 133 265 133 280 152 c 0,12,13
 310 192 310 192 310 285 c 2,14,-1
 310 1308 l 1,15,16
 307 1378 307 1378 264 1397 c 0,17,18
 251 1403 251 1403 228 1408 c 2,19,-1
 180 1418 l 1,20,21
 131 1430 131 1430 120 1447.5 c 128,-1,22
 109 1465 109 1465 109 1483 c 0,23,24
 109 1520 109 1520 124 1541 c 1,25,26
 147 1533 147 1533 223 1533 c 2,27,-1
 630 1533 l 2,28,29
 682 1533 682 1533 713.5 1516.5 c 128,-1,30
 745 1500 745 1500 745 1456 c 0,31,32
 745 1423 745 1423 729 1405 c 1,33,34
 691 1415 691 1415 646 1415 c 0,35,36
 549 1415 549 1415 546 1257 c 1,37,-1
 546 815 l 1,38,-1
 1346 815 l 1,39,-1
 1346 1308 l 1,40,41
 1343 1378 1343 1378 1300 1397 c 0,42,43
 1287 1403 1287 1403 1264 1408 c 2,44,-1
 1216 1418 l 1,45,46
 1167 1430 1167 1430 1156 1447.5 c 128,-1,47
 1145 1465 1145 1465 1145 1483 c 0,48,49
 1145 1523 1145 1523 1160 1541 c 1,50,51
 1183 1533 1183 1533 1259 1533 c 2,52,-1
 1666 1533 l 2,53,54
 1718 1533 1718 1533 1749.5 1516.5 c 128,-1,55
 1781 1500 1781 1500 1781 1456 c 0,56,57
 1781 1423 1781 1423 1765 1405 c 1,58,59
 1727 1415 1727 1415 1682 1415 c 0,60,61
 1585 1415 1585 1415 1582 1257 c 1,62,-1
 1582 236 l 2,63,64
 1582 180 1582 180 1599 162 c 0,65,66
 1624 135 1624 135 1661 127.5 c 128,-1,67
 1698 120 1698 120 1722 114.5 c 128,-1,68
 1746 109 1746 109 1762 101 c 0,69,70
 1794 85 1794 85 1794 47 c 0,71,72
 1794 12 1794 12 1778 -8 c 1,73,74
 1755 0 1755 0 1679 0 c 2,75,-1
 1262 0 l 2,76,77
 1210 0 1210 0 1179 16.5 c 128,-1,78
 1148 33 1148 33 1148 77 c 0,79,80
 1148 109 1148 109 1163 128 c 1,81,82
 1201 118 1201 118 1234 118 c 128,-1,83
 1267 118 1267 118 1285 125 c 128,-1,84
 1303 132 1303 132 1316 150 c 0,85,86
 1344 187 1344 187 1346 275 c 1,87,-1
 1346 677 l 1,88,-1
 546 677 l 1,89,-1
 546 236 l 2,90,91
 546 157 546 157 590 136 c 0,92,93
 604 130 604 130 628 125 c 128,-1,94
 652 120 652 120 675.5 114.5 c 128,-1,95
 699 109 699 109 715 101 c 0,96,97
 748 84 748 84 748 47 c 0,98,99
 748 12 748 12 732 -8 c 1,0,1
EndSplineSet
EndChar

StartChar: I
Encoding: 73 73 63
Width: 858
GlyphClass: 2
Flags: W
LayerCount: 2
Fore
SplineSet
733 -8 m 1,0,1
 710 0 710 0 634 0 c 2,2,-1
 217 0 l 2,3,4
 165 0 165 0 134 16.5 c 128,-1,5
 103 33 103 33 103 77 c 0,6,7
 103 109 103 109 118 128 c 1,8,9
 158 118 158 118 191.5 118 c 128,-1,10
 225 118 225 118 244.5 125 c 128,-1,11
 264 132 264 132 278 150 c 0,12,13
 309 188 309 188 311 275 c 1,14,-1
 311 1297 l 2,15,16
 311 1376 311 1376 267 1396 c 0,17,18
 253 1403 253 1403 229 1408 c 128,-1,19
 205 1413 205 1413 181.5 1418.5 c 128,-1,20
 158 1424 158 1424 142 1432 c 0,21,22
 110 1448 110 1448 110 1486 c 0,23,24
 110 1523 110 1523 125 1541 c 1,25,26
 148 1533 148 1533 224 1533 c 2,27,-1
 631 1533 l 2,28,29
 683 1533 683 1533 714.5 1516.5 c 128,-1,30
 746 1500 746 1500 746 1456 c 0,31,32
 746 1423 746 1423 730 1405 c 1,33,34
 692 1415 692 1415 647 1415 c 0,35,36
 550 1415 550 1415 547 1257 c 1,37,-1
 547 236 l 2,38,39
 547 157 547 157 591 136 c 0,40,41
 605 130 605 130 629 125 c 128,-1,42
 653 120 653 120 676.5 114.5 c 128,-1,43
 700 109 700 109 716 101 c 0,44,45
 749 84 749 84 749 47 c 0,46,47
 749 12 749 12 733 -8 c 1,0,1
EndSplineSet
EndChar

StartChar: J
Encoding: 74 74 64
Width: 1139
GlyphClass: 2
Flags: W
LayerCount: 2
Fore
SplineSet
1001 1415 m 0,0,1
 901 1415 901 1415 901 1243 c 2,2,-1
 901 440 l 2,3,4
 901 112 901 112 644 14 c 0,5,6
 556 -19 556 -19 445 -19 c 128,-1,7
 334 -19 334 -19 256 5 c 128,-1,8
 178 29 178 29 124 69 c 0,9,10
 15 151 15 151 15 268 c 0,11,12
 15 356 15 356 56 407.5 c 128,-1,13
 97 459 97 459 169 459 c 0,14,15
 229 459 229 459 249 431 c 1,16,17
 237 383 237 383 237 338 c 0,18,19
 237 133 237 133 449 133 c 0,20,21
 553 133 553 133 609 193.5 c 128,-1,22
 665 254 665 254 665 365 c 2,23,-1
 665 1298 l 1,24,25
 663 1351 663 1351 645 1368 c 0,26,27
 617 1393 617 1393 579 1400.5 c 128,-1,28
 541 1408 541 1408 515.5 1414 c 128,-1,29
 490 1420 490 1420 472 1429 c 0,30,31
 438 1447 438 1447 438 1486 c 0,32,33
 438 1523 438 1523 454 1541 c 1,34,35
 477 1533 477 1533 553 1533 c 2,36,-1
 986 1533 l 2,37,38
 1100 1533 1100 1533 1100 1456 c 0,39,40
 1100 1423 1100 1423 1084 1405 c 1,41,42
 1048 1415 1048 1415 1001 1415 c 0,0,1
EndSplineSet
EndChar

StartChar: K
Encoding: 75 75 65
Width: 1617
GlyphClass: 2
Flags: W
LayerCount: 2
Fore
SplineSet
748 -8 m 1,0,1
 725 0 725 0 649 0 c 2,2,-1
 232 0 l 2,3,4
 180 0 180 0 148.5 16.5 c 128,-1,5
 117 33 117 33 117 77 c 0,6,7
 117 108 117 108 133 128 c 1,8,9
 171 118 171 118 204 118 c 128,-1,10
 237 118 237 118 255 125 c 128,-1,11
 273 132 273 132 286 150 c 0,12,13
 314 187 314 187 316 275 c 1,14,-1
 316 1308 l 1,15,16
 313 1378 313 1378 270 1397 c 0,17,18
 257 1403 257 1403 234 1408 c 2,19,-1
 186 1418 l 1,20,21
 136 1430 136 1430 125 1447.5 c 128,-1,22
 114 1465 114 1465 114 1483 c 0,23,24
 114 1521 114 1521 130 1541 c 1,25,26
 153 1533 153 1533 229 1533 c 2,27,-1
 646 1533 l 2,28,29
 698 1533 698 1533 729 1516.5 c 128,-1,30
 760 1500 760 1500 760 1456 c 0,31,32
 760 1422 760 1422 745 1405 c 1,33,34
 707 1415 707 1415 672.5 1415 c 128,-1,35
 638 1415 638 1415 618.5 1407.5 c 128,-1,36
 599 1400 599 1400 584 1382 c 0,37,38
 554 1344 554 1344 552 1257 c 1,39,-1
 552 224 l 1,40,41
 554 175 554 175 571 158 c 1,42,43
 596 135 596 135 632 127.5 c 128,-1,44
 668 120 668 120 691.5 114.5 c 128,-1,45
 715 109 715 109 731 101 c 0,46,47
 763 85 763 85 763 47 c 0,48,49
 763 10 763 10 748 -8 c 1,0,1
1576 1408 m 1,50,51
 1552 1416 1552 1416 1523 1416 c 128,-1,52
 1494 1416 1494 1416 1477 1405.5 c 128,-1,53
 1460 1395 1460 1395 1440 1376.5 c 128,-1,54
 1420 1358 1420 1358 1396 1332 c 2,55,-1
 868 785 l 1,56,57
 1051 734 1051 734 1185 539 c 0,58,59
 1223 484 1223 484 1256 430 c 1,60,-1
 1317 326 l 1,61,62
 1416 155 1416 155 1500 160 c 1,63,64
 1541 160 1541 160 1564.5 170 c 128,-1,65
 1588 180 1588 180 1598 180 c 128,-1,66
 1608 180 1608 180 1619.5 164.5 c 128,-1,67
 1631 149 1631 149 1631 129 c 128,-1,68
 1631 109 1631 109 1614 81.5 c 128,-1,69
 1597 54 1597 54 1566 32 c 0,70,71
 1496 -19 1496 -19 1411.5 -19 c 128,-1,72
 1327 -19 1327 -19 1276.5 3 c 128,-1,73
 1226 25 1226 25 1184.5 72 c 128,-1,74
 1143 119 1143 119 1108 178.5 c 128,-1,75
 1073 238 1073 238 1041 299 c 2,76,-1
 978 420 l 1,77,78
 867 631 867 631 736 673 c 0,79,80
 716 679 716 679 700 676.5 c 128,-1,81
 684 674 684 674 663 671 c 1,82,83
 651 675 651 675 645 699.5 c 128,-1,84
 639 724 639 724 639 739.5 c 128,-1,85
 639 755 639 755 651 766 c 1,86,-1
 1158 1328 l 2,87,88
 1183 1355 1183 1355 1183 1372 c 0,89,90
 1183 1408 1183 1408 1070 1423 c 0,91,92
 1021 1429 1021 1429 1010.5 1444.5 c 128,-1,93
 1000 1460 1000 1460 1000 1480 c 0,94,95
 1000 1518 1000 1518 1016 1538 c 1,96,97
 1034 1533 1034 1533 1050 1533 c 2,98,-1
 1439 1533 l 2,99,100
 1547 1533 1547 1533 1578 1504 c 0,101,102
 1592 1491 1592 1491 1592 1472 c 0,103,104
 1592 1426 1592 1426 1576 1408 c 1,50,51
EndSplineSet
EndChar

StartChar: L
Encoding: 76 76 66
Width: 1434
GlyphClass: 2
Flags: W
LayerCount: 2
Fore
SplineSet
1358 311 m 0,0,1
 1358 86 1358 86 1298 0 c 1,2,-1
 207 0 l 2,3,4
 128 0 128 0 98 40 c 0,5,6
 88 54 88 54 88 71 c 0,7,8
 88 109 88 109 104 129 c 1,9,10
 138 119 138 119 193 119 c 0,11,12
 316 119 316 119 316 270 c 2,13,-1
 316 1297 l 2,14,15
 316 1366 316 1366 258 1390 c 0,16,17
 241 1398 241 1398 216 1405 c 2,18,-1
 166 1418 l 2,19,20
 118 1430 118 1430 106.5 1447.5 c 128,-1,21
 95 1465 95 1465 95 1483 c 0,22,23
 95 1521 95 1521 111 1541 c 1,24,25
 134 1533 134 1533 210 1533 c 2,26,-1
 646 1533 l 2,27,28
 698 1533 698 1533 729 1516.5 c 128,-1,29
 760 1500 760 1500 760 1456 c 0,30,31
 760 1422 760 1422 745 1405 c 1,32,33
 707 1415 707 1415 672.5 1415 c 128,-1,34
 638 1415 638 1415 618.5 1407.5 c 128,-1,35
 599 1400 599 1400 584 1382 c 0,36,37
 554 1344 554 1344 552 1257 c 1,38,-1
 552 246 l 1,39,40
 554 176 554 176 593 152 c 0,41,42
 626 131 626 131 714 131 c 1,43,-1
 789 132 l 1,44,-1
 875 133 l 1,45,46
 1093 133 1093 133 1160 230 c 0,47,48
 1193 278 1193 278 1204.5 350.5 c 128,-1,49
 1216 423 1216 423 1225 519 c 1,50,51
 1241 529 1241 529 1268 529 c 0,52,53
 1319 529 1319 529 1337 517 c 1,54,55
 1358 435 1358 435 1358 311 c 0,0,1
EndSplineSet
EndChar

StartChar: M
Encoding: 77 77 67
Width: 2133
GlyphClass: 2
Flags: W
LayerCount: 2
Fore
SplineSet
195 0 m 2,0,1
 61 0 61 0 61 74 c 0,2,3
 61 107 61 107 77 127 c 1,4,5
 106 119 106 119 136 119 c 128,-1,6
 166 119 166 119 187 121 c 128,-1,7
 208 123 208 123 226 138 c 1,8,9
 263 172 263 172 272 289 c 1,10,-1
 375 1351 l 2,11,12
 377 1376 377 1376 358 1390 c 128,-1,13
 339 1404 339 1404 311 1410 c 128,-1,14
 283 1416 283 1416 262.5 1420 c 128,-1,15
 242 1424 242 1424 227 1432 c 0,16,17
 196 1447 196 1447 196 1483.5 c 128,-1,18
 196 1520 196 1520 210 1538 c 1,19,20
 229 1533 229 1533 244 1533 c 2,21,-1
 540 1533 l 2,22,23
 689 1533 689 1533 723 1460 c 1,24,-1
 1095 587 l 1,25,-1
 1479 1465 l 2,26,27
 1498 1509 1498 1509 1536 1521 c 128,-1,28
 1574 1533 1574 1533 1633 1533 c 2,29,-1
 1827 1533 l 2,30,31
 1962 1533 1962 1533 1962 1462 c 0,32,33
 1962 1424 1962 1424 1947 1407 c 1,34,35
 1907 1418 1907 1418 1881.5 1418 c 128,-1,36
 1856 1418 1856 1418 1836 1414 c 128,-1,37
 1816 1410 1816 1410 1804 1399 c 0,38,39
 1779 1378 1779 1378 1785 1315 c 2,40,-1
 1893 221 l 2,41,42
 1900 151 1900 151 1968 133 c 0,43,44
 1987 128 1987 128 2008 121 c 2,45,-1
 2047 108 l 2,46,47
 2084 96 2084 96 2092 76.5 c 128,-1,48
 2100 57 2100 57 2100 39 c 0,49,50
 2100 14 2100 14 2085 -5 c 1,51,52
 2062 0 2062 0 2038 0 c 2,53,-1
 1582 0 l 2,54,55
 1460 0 1460 0 1460 73 c 0,56,57
 1460 85 1460 85 1467 103.5 c 128,-1,58
 1474 122 1474 122 1478 127 c 1,59,60
 1508 119 1508 119 1533.5 119 c 128,-1,61
 1559 119 1559 119 1586.5 123 c 128,-1,62
 1614 127 1614 127 1633 142 c 0,63,64
 1674 176 1674 176 1668 271 c 1,65,-1
 1603 1129 l 1,66,-1
 1594 1296 l 1,67,-1
 1134 277 l 1,68,69
 1121 269 1121 269 1094 269 c 128,-1,70
 1067 269 1067 269 1038.5 288.5 c 128,-1,71
 1010 308 1010 308 987 337 c 0,72,73
 950 384 950 384 916 457 c 1,74,-1
 544 1329 l 1,75,-1
 463 240 l 2,76,77
 459 183 459 183 479 163 c 0,78,79
 504 138 504 138 545 127 c 128,-1,80
 586 116 586 116 609 110.5 c 128,-1,81
 632 105 632 105 649 96 c 0,82,83
 686 78 686 78 686 36 c 0,84,85
 686 15 686 15 670 -5 c 1,86,87
 652 0 652 0 636 0 c 2,88,-1
 195 0 l 2,0,1
EndSplineSet
EndChar

StartChar: N
Encoding: 78 78 68
Width: 1795
GlyphClass: 2
Flags: W
LayerCount: 2
Fore
SplineSet
215 0 m 2,0,1
 81 0 81 0 81 77 c 0,2,3
 81 112 81 112 97 126 c 1,4,5
 126 118 126 118 157.5 118 c 128,-1,6
 189 118 189 118 212.5 126 c 128,-1,7
 236 134 236 134 254 149 c 0,8,9
 290 180 290 180 290 236 c 2,10,-1
 290 1325 l 1,11,12
 288 1365 288 1365 273 1385 c 128,-1,13
 258 1405 258 1405 228 1413.5 c 128,-1,14
 198 1422 198 1422 178.5 1426 c 128,-1,15
 159 1430 159 1430 143 1436 c 0,16,17
 108 1451 108 1451 108 1473 c 0,18,19
 108 1519 108 1519 123 1538 c 1,20,21
 144 1533 144 1533 187 1533 c 2,22,-1
 382 1533 l 2,23,24
 470 1533 470 1533 540 1444 c 2,25,-1
 1381 378 l 1,26,-1
 1381 1311 l 1,27,28
 1380 1351 1380 1351 1364.5 1378 c 128,-1,29
 1349 1405 1349 1405 1312.5 1414 c 128,-1,30
 1276 1423 1276 1423 1248 1427.5 c 128,-1,31
 1220 1432 1220 1432 1198 1440 c 0,32,33
 1151 1456 1151 1456 1151 1492 c 0,34,35
 1151 1522 1151 1522 1167 1538 c 1,36,37
 1188 1533 1188 1533 1231 1533 c 2,38,-1
 1634 1533 l 2,39,40
 1768 1533 1768 1533 1768 1476 c 0,41,42
 1768 1428 1768 1428 1753 1411 c 1,43,44
 1728 1418 1728 1418 1695.5 1418 c 128,-1,45
 1663 1418 1663 1418 1639 1416.5 c 128,-1,46
 1615 1415 1615 1415 1596 1404 c 0,47,48
 1554 1381 1554 1381 1552 1310 c 1,49,-1
 1552 28 l 2,50,51
 1552 -1 1552 -1 1536 -7.5 c 128,-1,52
 1520 -14 1520 -14 1478 -14 c 0,53,54
 1407 -14 1407 -14 1326 91 c 1,55,-1
 461 1179 l 1,56,-1
 461 222 l 1,57,58
 466 136 466 136 542 116 c 1,59,60
 571 110 571 110 599.5 106 c 128,-1,61
 628 102 628 102 650 96 c 0,62,63
 701 83 701 83 701 50 c 0,64,65
 701 14 701 14 686 -5 c 1,66,67
 665 0 665 0 622 0 c 2,68,-1
 215 0 l 2,0,1
EndSplineSet
EndChar

StartChar: O
Encoding: 79 79 69
Width: 1697
GlyphClass: 2
Flags: W
LayerCount: 2
Fore
SplineSet
162.5 407.5 m 128,-1,1
 109 542 109 542 109 692.5 c 128,-1,2
 109 843 109 843 139 958 c 128,-1,3
 169 1073 169 1073 222 1166.5 c 128,-1,4
 275 1260 275 1260 348 1332 c 128,-1,5
 421 1404 421 1404 507 1453 c 0,6,7
 681 1552 681 1552 884 1552 c 0,8,9
 1192 1552 1192 1552 1386 1356 c 0,10,11
 1589 1152 1589 1152 1589 819 c 0,12,13
 1589 568 1589 568 1476 368 c 0,14,15
 1373 186 1373 186 1192 82 c 0,16,17
 1018 -19 1018 -19 841.5 -19 c 128,-1,18
 665 -19 665 -19 535.5 32.5 c 128,-1,19
 406 84 406 84 311 178.5 c 128,-1,0
 216 273 216 273 162.5 407.5 c 128,-1,1
392 1023 m 128,-1,21
 364 905 364 905 364 769.5 c 128,-1,22
 364 634 364 634 390 521.5 c 128,-1,23
 416 409 416 409 473 324 c 0,24,25
 597 139 597 139 841 139 c 0,26,27
 1087 139 1087 139 1214 300 c 1,28,29
 1336 457 1336 457 1336 747 c 0,30,31
 1336 1192 1336 1192 1072 1344 c 0,32,33
 978 1397 978 1397 849 1397 c 128,-1,34
 720 1397 720 1397 629 1352 c 128,-1,35
 538 1307 538 1307 479 1224 c 128,-1,20
 420 1141 420 1141 392 1023 c 128,-1,21
EndSplineSet
EndChar

StartChar: P
Encoding: 80 80 70
Width: 1434
GlyphClass: 2
Flags: W
LayerCount: 2
Fore
SplineSet
835 -8 m 1,0,1
 812 0 812 0 736 0 c 2,2,-1
 222 0 l 2,3,4
 170 0 170 0 139 16.5 c 128,-1,5
 108 33 108 33 108 77 c 0,6,7
 108 109 108 109 123 128 c 1,8,9
 161 118 161 118 196 118 c 128,-1,10
 231 118 231 118 251 125.5 c 128,-1,11
 271 133 271 133 286 152 c 0,12,13
 316 192 316 192 316 285 c 2,14,-1
 316 1289 l 2,15,16
 316 1382 316 1382 206 1405 c 0,17,18
 137 1419 137 1419 116 1437 c 128,-1,19
 95 1455 95 1455 95 1476 c 0,20,21
 95 1522 95 1522 111 1538 c 1,22,23
 129 1533 129 1533 144 1533 c 2,24,-1
 392 1533 l 1,25,-1
 748 1543 l 1,26,27
 1216 1543 1216 1543 1340 1288 c 0,28,29
 1385 1196 1385 1196 1385 1104 c 128,-1,30
 1385 1012 1385 1012 1372 947 c 128,-1,31
 1359 882 1359 882 1327.5 820.5 c 128,-1,32
 1296 759 1296 759 1244 704.5 c 128,-1,33
 1192 650 1192 650 1114 609 c 0,34,35
 945 521 945 521 682 521 c 2,36,-1
 644 521 l 2,37,38
 616 521 616 521 616 557 c 0,39,40
 616 636 616 636 659 646 c 1,41,42
 1035 638 1035 638 1114 870 c 0,43,44
 1138 943 1138 943 1138 1026 c 128,-1,45
 1138 1109 1138 1109 1120 1178.5 c 128,-1,46
 1102 1248 1102 1248 1055 1302 c 0,47,48
 951 1420 951 1420 711 1420 c 0,49,50
 614 1420 614 1420 582 1378 c 1,51,52
 552 1341 552 1341 552 1228 c 2,53,-1
 552 229 l 1,54,55
 557 151 557 151 676 134 c 0,56,57
 783 119 783 119 809 106 c 128,-1,58
 835 93 835 93 843 80.5 c 128,-1,59
 851 68 851 68 851 50 c 0,60,61
 851 12 851 12 835 -8 c 1,0,1
EndSplineSet
EndChar

StartChar: Q
Encoding: 81 81 71
Width: 1711
GlyphClass: 2
Flags: W
LayerCount: 2
Fore
SplineSet
444 -306 m 1,0,1
 356 -306 356 -306 356 -220 c 0,2,3
 356 -131 356 -131 519 -85 c 1,4,5
 955 35 955 35 1142 210 c 0,6,7
 1346 402 1346 402 1346 739 c 0,8,9
 1346 921 1346 921 1312.5 1025 c 128,-1,10
 1279 1129 1279 1129 1241.5 1191.5 c 128,-1,11
 1204 1254 1204 1254 1149 1300 c 0,12,13
 1032 1396 1032 1396 853 1396 c 0,14,15
 504 1396 504 1396 402 1041 c 0,16,17
 368 920 368 920 368 754 c 0,18,19
 368 364 368 364 570 242 c 0,20,21
 619 212 619 212 686 202 c 1,22,23
 707 196 707 196 717 173 c 0,24,25
 735 132 735 132 723 119 c 0,26,27
 698 92 698 92 620.5 94.5 c 128,-1,28
 543 97 543 97 475 120 c 128,-1,29
 407 143 407 143 350 184 c 128,-1,30
 293 225 293 225 249 280 c 128,-1,31
 205 335 205 335 174 402 c 0,32,33
 111 538 111 538 111 693 c 128,-1,34
 111 848 111 848 143.5 968.5 c 128,-1,35
 176 1089 176 1089 232.5 1183.5 c 128,-1,36
 289 1278 289 1278 365.5 1347.5 c 128,-1,37
 442 1417 442 1417 530 1462 c 0,38,39
 703 1552 703 1552 875 1552 c 128,-1,40
 1047 1552 1047 1552 1174.5 1501.5 c 128,-1,41
 1302 1451 1302 1451 1396 1356 c 0,42,43
 1600 1151 1600 1151 1600 814 c 0,44,45
 1600 324 1600 324 1236 68 c 0,46,47
 1085 -37 1085 -37 877 -100 c 1,48,-1
 972 -138 l 1,49,50
 1153 -208 1153 -208 1250 -208 c 0,51,52
 1479 -208 1479 -208 1568 -96 c 1,53,54
 1602 -94 1602 -94 1619 -118.5 c 128,-1,55
 1636 -143 1636 -143 1636 -183 c 128,-1,56
 1636 -223 1636 -223 1609 -268.5 c 128,-1,57
 1582 -314 1582 -314 1533 -348 c 0,58,59
 1427 -423 1427 -423 1269 -423 c 0,60,61
 1169 -423 1169 -423 1073 -386.5 c 128,-1,62
 977 -350 977 -350 922 -324 c 1,63,-1
 814 -277 l 2,64,65
 695 -226 695 -226 642.5 -226 c 128,-1,66
 590 -226 590 -226 560 -233 c 128,-1,67
 530 -240 530 -240 509 -251 c 0,68,69
 482 -265 482 -265 444 -306 c 1,0,1
EndSplineSet
EndChar

StartChar: R
Encoding: 82 82 72
Width: 1585
GlyphClass: 2
Flags: W
LayerCount: 2
Fore
SplineSet
728 -8 m 1,0,1
 705 0 705 0 630 0 c 2,2,-1
 222 0 l 2,3,4
 170 0 170 0 139 16.5 c 128,-1,5
 108 33 108 33 108 77 c 0,6,7
 108 109 108 109 123 128 c 1,8,9
 161 118 161 118 196 118 c 128,-1,10
 231 118 231 118 251 125.5 c 128,-1,11
 271 133 271 133 286 152 c 0,12,13
 316 192 316 192 316 285 c 2,14,-1
 316 1308 l 1,15,16
 313 1378 313 1378 270 1397 c 0,17,18
 257 1403 257 1403 234.5 1408 c 128,-1,19
 212 1413 212 1413 190.5 1418.5 c 128,-1,20
 169 1424 169 1424 154 1432 c 0,21,22
 124 1448 124 1448 124 1474 c 0,23,24
 124 1521 124 1521 140 1541 c 1,25,26
 163 1533 163 1533 239 1533 c 2,27,-1
 369 1533 l 1,28,-1
 720 1543 l 1,29,-1
 763 1544 l 1,30,31
 1071 1544 1071 1544 1224 1434.5 c 128,-1,32
 1377 1325 1377 1325 1377 1126 c 0,33,34
 1377 977 1377 977 1280 852 c 0,35,36
 1172 713 1172 713 982 664 c 1,37,38
 1034 628 1034 628 1100 532 c 2,39,-1
 1206 377 l 2,40,41
 1355 160 1355 160 1453 160 c 0,42,43
 1490 160 1490 160 1509 167 c 2,44,-1
 1534 177 l 2,45,46
 1542 180 1542 180 1552 180 c 128,-1,47
 1562 180 1562 180 1573 164.5 c 128,-1,48
 1584 149 1584 149 1584 129 c 128,-1,49
 1584 109 1584 109 1567 81.5 c 128,-1,50
 1550 54 1550 54 1519 32 c 0,51,52
 1449 -19 1449 -19 1366 -19 c 128,-1,53
 1283 -19 1283 -19 1229.5 9 c 128,-1,54
 1176 37 1176 37 1131.5 82.5 c 128,-1,55
 1087 128 1087 128 1050.5 186 c 128,-1,56
 1014 244 1014 244 982 305 c 1,57,-1
 923 424 l 1,58,59
 860 554 860 554 822.5 591.5 c 128,-1,60
 785 629 785 629 754 629 c 2,61,-1
 653 629 l 2,62,63
 628 629 628 629 628 665 c 0,64,65
 628 715 628 715 666 743 c 0,66,67
 679 752 679 752 744 753.5 c 128,-1,68
 809 755 809 755 890.5 781 c 128,-1,69
 972 807 972 807 1025 852 c 0,70,71
 1128 941 1128 941 1128 1102 c 0,72,73
 1128 1237 1128 1237 1038 1323 c 0,74,75
 936 1420 936 1420 754 1422 c 1,76,77
 634 1422 634 1422 594 1386 c 1,78,79
 554 1352 554 1352 552 1257 c 1,80,-1
 552 236 l 2,81,82
 552 157 552 157 596 136 c 0,83,84
 610 130 610 130 633 125 c 128,-1,85
 656 120 656 120 677.5 114.5 c 128,-1,86
 699 109 699 109 714 101 c 0,87,88
 744 85 744 85 744 58 c 0,89,90
 744 12 744 12 728 -8 c 1,0,1
EndSplineSet
EndChar

StartChar: S
Encoding: 83 83 73
Width: 1322
GlyphClass: 2
Flags: W
LayerCount: 2
Fore
SplineSet
971 1111 m 0,0,1
 971 1340 971 1340 808 1398 c 0,2,3
 752 1418 752 1418 677 1418 c 128,-1,4
 602 1418 602 1418 548 1401 c 128,-1,5
 494 1384 494 1384 458 1355 c 0,6,7
 385 1296 385 1296 385 1199 c 0,8,9
 385 1052 385 1052 601 948 c 1,10,-1
 726 889 l 2,11,12
 817 847 817 847 901.5 803.5 c 128,-1,13
 986 760 986 760 1051 704 c 0,14,15
 1194 582 1194 582 1194 402 c 0,16,17
 1194 209 1194 209 1026 91 c 0,18,19
 869 -19 869 -19 632 -19 c 0,20,21
 444 -19 444 -19 300 40 c 1,22,23
 194 82 194 82 149 159 c 0,24,25
 126 198 126 198 126 254 c 0,26,27
 126 366 126 366 182 463 c 1,28,29
 201 486 201 486 234 486 c 0,30,31
 298 486 298 486 308 448 c 1,32,33
 321 275 321 275 414.5 196 c 128,-1,34
 508 117 508 117 676 117 c 0,35,36
 869 117 869 117 935 243 c 0,37,38
 958 287 958 287 958 346.5 c 128,-1,39
 958 406 958 406 926 453 c 128,-1,40
 894 500 894 500 841 540 c 0,41,42
 760 600 760 600 626.5 656 c 128,-1,43
 493 712 493 712 418.5 754 c 128,-1,44
 344 796 344 796 287 852 c 0,45,46
 163 974 163 974 163 1153 c 0,47,48
 163 1336 163 1336 320 1446 c 0,49,50
 471 1552 471 1552 710 1552 c 0,51,52
 1013 1552 1013 1552 1106 1427 c 0,53,54
 1140 1382 1140 1382 1140 1309 c 128,-1,55
 1140 1236 1140 1236 1126.5 1182 c 128,-1,56
 1113 1128 1113 1128 1100 1112 c 0,57,58
 1078 1085 1078 1085 1024.5 1085 c 128,-1,59
 971 1085 971 1085 971 1111 c 0,0,1
EndSplineSet
EndChar

StartChar: T
Encoding: 84 84 74
Width: 1524
GlyphClass: 2
Flags: W
LayerCount: 2
Fore
SplineSet
1163 -8 m 1,0,1
 1140 0 1140 0 1064 0 c 2,2,-1
 492 0 l 2,3,4
 440 0 440 0 408.5 16.5 c 128,-1,5
 377 33 377 33 377 77 c 0,6,7
 377 108 377 108 393 128 c 1,8,9
 431 118 431 118 465 118 c 128,-1,10
 499 118 499 118 529 125 c 128,-1,11
 559 132 559 132 586 150 c 0,12,13
 650 191 650 191 654 275 c 1,14,-1
 654 1387 l 1,15,-1
 524 1387 l 2,16,17
 379 1387 379 1387 334.5 1373.5 c 128,-1,18
 290 1360 290 1360 267.5 1339 c 128,-1,19
 245 1318 245 1318 231 1282 c 0,20,21
 206 1220 206 1220 192 1068 c 1,22,23
 170 1063 170 1063 152 1063 c 0,24,25
 112 1063 112 1063 101 1084 c 128,-1,26
 90 1105 90 1105 86 1127.5 c 128,-1,27
 82 1150 82 1150 80 1177 c 0,28,29
 76 1231 76 1231 76 1292 c 0,30,31
 76 1459 76 1459 102 1504 c 1,32,33
 128 1552 128 1552 206 1552 c 0,34,35
 221 1552 221 1552 250 1549 c 128,-1,36
 279 1546 279 1546 334 1542 c 0,37,38
 483 1533 483 1533 691 1533 c 2,39,-1
 860 1533 l 2,40,41
 1150 1533 1150 1533 1248 1542.5 c 128,-1,42
 1346 1552 1346 1552 1370 1552 c 128,-1,43
 1394 1552 1394 1552 1414 1545 c 128,-1,44
 1434 1538 1434 1538 1446 1525 c 0,45,46
 1465 1503 1465 1503 1465 1470 c 0,47,48
 1465 1420 1465 1420 1462 1390 c 128,-1,49
 1459 1360 1459 1360 1455.5 1319 c 128,-1,50
 1452 1278 1452 1278 1446 1234 c 0,51,52
 1432 1130 1432 1130 1411 1091 c 1,53,54
 1391 1063 1391 1063 1362.5 1063 c 128,-1,55
 1334 1063 1334 1063 1312 1068 c 1,56,-1
 1313 1131 l 1,57,58
 1313 1220 1313 1220 1303 1271.5 c 128,-1,59
 1293 1323 1293 1323 1261 1348.5 c 128,-1,60
 1229 1374 1229 1374 1169 1380.5 c 128,-1,61
 1109 1387 1109 1387 1009 1387 c 2,62,-1
 889 1387 l 1,63,-1
 889 236 l 2,64,65
 889 164 889 164 1004 136 c 0,66,67
 1032 130 1032 130 1057.5 125 c 128,-1,68
 1083 120 1083 120 1107 114.5 c 128,-1,69
 1131 109 1131 109 1147 101 c 0,70,71
 1179 85 1179 85 1179 47 c 0,72,73
 1179 12 1179 12 1163 -8 c 1,0,1
EndSplineSet
EndChar

StartChar: U
Encoding: 85 85 75
Width: 1633
GlyphClass: 2
Flags: W
LayerCount: 2
Fore
SplineSet
1516 1416 m 0,0,1
 1440 1416 1440 1416 1437 1258 c 1,2,-1
 1437 658 l 2,3,4
 1437 328 1437 328 1274 154 c 1,5,6
 1114 -19 1114 -19 817 -19 c 0,7,8
 565 -19 565 -19 404 108 c 1,9,10
 200 267 200 267 200 636 c 2,11,-1
 200 1324 l 1,12,13
 199 1367 199 1367 190.5 1384 c 128,-1,14
 182 1401 182 1401 152 1407 c 128,-1,15
 122 1413 122 1413 98.5 1418.5 c 128,-1,16
 75 1424 75 1424 59 1432 c 0,17,18
 27 1448 27 1448 27 1486 c 0,19,20
 27 1521 27 1521 43 1541 c 1,21,22
 66 1533 66 1533 142 1533 c 2,23,-1
 530 1533 l 2,24,25
 644 1533 644 1533 644 1456 c 0,26,27
 644 1422 644 1422 629 1405 c 1,28,29
 592 1415 592 1415 559.5 1415 c 128,-1,30
 527 1415 527 1415 507.5 1407.5 c 128,-1,31
 488 1400 488 1400 472 1381 c 0,32,33
 436 1338 436 1338 436 1248 c 2,34,-1
 436 706 l 2,35,36
 436 397 436 397 560 262 c 1,37,38
 656 159 656 159 826 159 c 0,39,40
 1256 159 1256 159 1256 695 c 2,41,-1
 1256 1297 l 2,42,43
 1256 1376 1256 1376 1212 1396 c 0,44,45
 1198 1403 1198 1403 1173.5 1408 c 128,-1,46
 1149 1413 1149 1413 1125.5 1418.5 c 128,-1,47
 1102 1424 1102 1424 1086 1432 c 0,48,49
 1054 1448 1054 1448 1054 1486 c 0,50,51
 1054 1523 1054 1523 1070 1541 c 1,52,53
 1093 1533 1093 1533 1169 1533 c 2,54,-1
 1501 1533 l 2,55,56
 1552 1533 1552 1533 1583.5 1517 c 128,-1,57
 1615 1501 1615 1501 1615 1457 c 0,58,59
 1615 1423 1615 1423 1600 1406 c 1,60,61
 1560 1416 1560 1416 1516 1416 c 0,0,1
EndSplineSet
EndChar

StartChar: V
Encoding: 86 86 76
Width: 1553
GlyphClass: 2
Flags: W
LayerCount: 2
Fore
SplineSet
1545 1405 m 1,0,1
 1524 1415 1524 1415 1487 1415 c 128,-1,2
 1450 1415 1450 1415 1431.5 1399.5 c 128,-1,3
 1413 1384 1413 1384 1397 1356 c 128,-1,4
 1381 1328 1381 1328 1366 1289 c 2,5,-1
 953 168 l 1,6,7
 886 -19 886 -19 730 -19 c 0,8,9
 681 -19 681 -19 670 9 c 2,10,-1
 177 1264 l 2,11,12
 169 1284 169 1284 162 1307.5 c 128,-1,13
 155 1331 155 1331 146 1353 c 0,14,15
 124 1404 124 1404 85 1416 c 0,16,17
 62 1424 62 1424 44.5 1429.5 c 128,-1,18
 27 1435 27 1435 16 1442 c 0,19,20
 -7 1457 -7 1457 -7 1480 c 0,21,22
 -7 1516 -7 1516 9 1541 c 1,23,24
 32 1533 32 1533 88 1533 c 2,25,-1
 502 1533 l 2,26,27
 569 1533 569 1533 593 1524 c 0,28,29
 639 1506 639 1506 639 1456 c 0,30,31
 639 1422 639 1422 624 1405 c 1,32,33
 602 1415 602 1415 537 1415 c 0,34,35
 419 1415 419 1415 419 1317 c 0,36,37
 419 1305 419 1305 426 1282 c 2,38,-1
 438 1247 l 2,39,40
 443 1234 443 1234 447 1224 c 2,41,-1
 806 236 l 1,42,-1
 1177 1297 l 1,43,44
 1183 1319 1183 1319 1183 1336.5 c 128,-1,45
 1183 1354 1183 1354 1175 1366.5 c 128,-1,46
 1167 1379 1167 1379 1154 1388 c 0,47,48
 1140 1398 1140 1398 1104 1405.5 c 128,-1,49
 1068 1413 1068 1413 1044.5 1419 c 128,-1,50
 1021 1425 1021 1425 1005 1434 c 0,51,52
 973 1452 973 1452 971 1494 c 1,53,54
 971 1522 971 1522 981 1541 c 1,55,56
 1004 1533 1004 1533 1080 1533 c 2,57,-1
 1427 1533 l 2,58,59
 1561 1533 1561 1533 1561 1456 c 0,60,61
 1561 1423 1561 1423 1545 1405 c 1,0,1
EndSplineSet
EndChar

StartChar: W
Encoding: 87 87 77
Width: 2310
GlyphClass: 2
Flags: W
LayerCount: 2
Fore
SplineSet
2344 1405 m 1,0,1
 2306 1415 2306 1415 2278.5 1415 c 128,-1,2
 2251 1415 2251 1415 2231.5 1395.5 c 128,-1,3
 2212 1376 2212 1376 2194 1346 c 1,4,5
 2166 1296 2166 1296 2139 1204 c 1,6,-1
 2018 818 l 1,7,-1
 1802 168 l 2,8,9
 1772 80 1772 80 1698 27 c 1,10,11
 1632 -19 1632 -19 1577 -19 c 0,12,13
 1535 -19 1535 -19 1517 -13 c 1,14,-1
 1197 814 l 1,15,-1
 1166 914 l 1,16,17
 901 230 901 230 878.5 175.5 c 128,-1,18
 856 121 856 121 828 86 c 128,-1,19
 800 51 800 51 768 28 c 0,20,21
 704 -19 704 -19 649 -19 c 0,22,23
 600 -19 600 -19 589 -13 c 1,24,-1
 182 1264 l 2,25,26
 174 1286 174 1286 167 1310.5 c 128,-1,27
 160 1335 160 1335 151 1356 c 0,28,29
 130 1406 130 1406 106 1412.5 c 128,-1,30
 82 1419 82 1419 64 1423.5 c 128,-1,31
 46 1428 46 1428 32 1435 c 0,32,33
 1 1450 1 1450 1 1476 c 0,34,35
 1 1520 1 1520 16 1541 c 1,36,37
 40 1533 40 1533 115 1533 c 2,38,-1
 533 1533 l 2,39,40
 647 1533 647 1533 647 1456 c 0,41,42
 647 1423 647 1423 631 1405 c 1,43,44
 595 1415 595 1415 548 1415 c 0,45,46
 427 1415 427 1415 427 1317 c 0,47,48
 427 1285 427 1285 437 1249 c 2,49,-1
 731 233 l 1,50,51
 810 433 810 433 851 545 c 1,52,-1
 1096 1245 l 1,53,54
 1109 1287 1109 1287 1160 1312 c 1,55,56
 1204 1335 1204 1335 1263 1333 c 1,57,-1
 1651 233 l 1,58,59
 1777 625 1777 625 1811 745 c 2,60,-1
 1919 1130 l 1,61,62
 1961 1288 1961 1288 1961 1323 c 128,-1,63
 1961 1358 1961 1358 1938.5 1379 c 128,-1,64
 1916 1400 1916 1400 1884.5 1406.5 c 128,-1,65
 1853 1413 1853 1413 1829.5 1418.5 c 128,-1,66
 1806 1424 1806 1424 1790 1432 c 0,67,68
 1758 1448 1758 1448 1758 1486 c 0,69,70
 1758 1520 1758 1520 1773 1541 c 1,71,72
 1796 1533 1796 1533 1872 1533 c 2,73,-1
 2246 1533 l 2,74,75
 2360 1533 2360 1533 2360 1456 c 0,76,77
 2360 1423 2360 1423 2344 1405 c 1,0,1
EndSplineSet
EndChar

StartChar: X
Encoding: 88 88 78
Width: 1583
GlyphClass: 2
Flags: W
LayerCount: 2
Fore
SplineSet
125 0 m 2,0,1
 0 0 0 0 0 83 c 0,2,3
 0 114 0 114 16 130 c 1,4,5
 38 121 38 121 77 121 c 128,-1,6
 116 121 116 121 143 129.5 c 128,-1,7
 170 138 170 138 197 156 c 0,8,9
 249 192 249 192 313 276 c 1,10,-1
 681 735 l 1,11,-1
 253 1282 l 1,12,13
 238 1298 238 1298 222 1317 c 128,-1,14
 206 1336 206 1336 190 1353 c 0,15,16
 150 1394 150 1394 122.5 1402 c 128,-1,17
 95 1410 95 1410 72.5 1415.5 c 128,-1,18
 50 1421 50 1421 34 1430 c 0,19,20
 1 1447 1 1447 1 1490 c 0,21,22
 1 1518 1 1518 16 1540 c 1,23,24
 41 1533 41 1533 115 1533 c 2,25,-1
 546 1533 l 2,26,27
 644 1533 644 1533 670 1498 c 0,28,29
 681 1483 681 1483 681 1464 c 0,30,31
 681 1421 681 1421 665 1405 c 1,32,33
 616 1416 616 1416 568 1416 c 0,34,35
 490 1416 490 1416 490 1374 c 0,36,37
 490 1352 490 1352 528 1301 c 1,38,-1
 827 886 l 1,39,-1
 1100 1277 l 1,40,41
 1130 1322 1130 1322 1130 1342 c 128,-1,42
 1130 1362 1130 1362 1121.5 1373.5 c 128,-1,43
 1113 1385 1113 1385 1100 1392 c 128,-1,44
 1087 1399 1087 1399 1071 1402.5 c 128,-1,45
 1055 1406 1055 1406 1034.5 1410.5 c 128,-1,46
 1014 1415 1014 1415 995 1420 c 128,-1,47
 976 1425 976 1425 963 1433 c 0,48,49
 937 1449 937 1449 937 1476 c 0,50,51
 937 1518 937 1518 953 1539 c 1,52,53
 973 1533 973 1533 1051 1533 c 2,54,-1
 1439 1533 l 2,55,56
 1538 1533 1538 1533 1564 1498 c 0,57,58
 1575 1483 1575 1483 1575 1464 c 0,59,60
 1575 1420 1575 1420 1562 1405 c 1,61,62
 1539 1414 1539 1414 1502.5 1414 c 128,-1,63
 1466 1414 1466 1414 1436.5 1396.5 c 128,-1,64
 1407 1379 1407 1379 1376 1351 c 0,65,66
 1315 1296 1315 1296 1260 1221 c 1,67,-1
 919 767 l 1,68,-1
 1334 252 l 1,69,-1
 1366 216 l 1,70,71
 1429 143 1429 143 1465 132.5 c 128,-1,72
 1501 122 1501 122 1524.5 117 c 128,-1,73
 1548 112 1548 112 1564 104 c 0,74,75
 1600 85 1600 85 1600 44 c 0,76,77
 1600 18 1600 18 1585 -6 c 1,78,79
 1565 0 1565 0 1486 0 c 2,80,-1
 1050 0 l 2,81,82
 959 0 959 0 936 39 c 0,83,84
 926 55 926 55 926 73 c 0,85,86
 926 112 926 112 942 130 c 1,87,-1
 963 126 l 1,88,89
 999 118 999 118 1032.5 118.5 c 128,-1,90
 1066 119 1066 119 1082 123 c 128,-1,91
 1098 127 1098 127 1098 144 c 0,92,93
 1098 174 1098 174 1055 233 c 2,94,-1
 771 613 l 1,95,-1
 492 229 l 1,96,97
 466 197 466 197 466 173.5 c 128,-1,98
 466 150 466 150 489.5 140 c 128,-1,99
 513 130 513 130 540 124 c 2,100,-1
 588 114 l 1,101,102
 637 105 637 105 650.5 86.5 c 128,-1,103
 664 68 664 68 664 50 c 0,104,105
 664 18 664 18 649 -6 c 1,106,107
 629 0 629 0 550 0 c 2,108,-1
 125 0 l 2,0,1
EndSplineSet
EndChar

StartChar: Y
Encoding: 89 89 79
Width: 1488
GlyphClass: 2
Flags: W
LayerCount: 2
Fore
SplineSet
514 0 m 2,0,1
 400 0 400 0 400 75 c 0,2,3
 400 109 400 109 415 128 c 1,4,5
 453 118 453 118 490.5 118 c 128,-1,6
 528 118 528 118 552.5 123 c 128,-1,7
 577 128 577 128 596 144 c 1,8,9
 635 180 635 180 637 274 c 1,10,-1
 637 526 l 1,11,-1
 155 1326 l 2,12,13
 115 1391 115 1391 88 1404.5 c 128,-1,14
 61 1418 61 1418 45.5 1423 c 128,-1,15
 30 1428 30 1428 18 1436 c 0,16,17
 -10 1452 -10 1452 -10 1480 c 0,18,19
 -10 1521 -10 1521 6 1541 c 1,20,21
 29 1533 29 1533 105 1533 c 2,22,-1
 466 1533 l 2,23,24
 564 1533 564 1533 590 1501 c 0,25,26
 603 1486 603 1486 603 1455.5 c 128,-1,27
 603 1425 603 1425 584 1404 c 1,28,29
 550 1414 550 1414 508 1414 c 0,30,31
 425 1414 425 1414 425 1350 c 0,32,33
 425 1304 425 1304 466 1238 c 1,34,-1
 787 684 l 1,35,36
 910 889 910 889 966 991 c 1,37,-1
 1060 1167 l 1,38,39
 1125 1293 1125 1293 1130 1314.5 c 128,-1,40
 1135 1336 1135 1336 1135 1349 c 128,-1,41
 1135 1362 1135 1362 1127.5 1372 c 128,-1,42
 1120 1382 1120 1382 1108 1388.5 c 128,-1,43
 1096 1395 1096 1395 1081 1398.5 c 128,-1,44
 1066 1402 1066 1402 1045 1407 c 128,-1,45
 1024 1412 1024 1412 1000 1417 c 128,-1,46
 976 1422 976 1422 958 1430 c 0,47,48
 918 1447 918 1447 918 1486.5 c 128,-1,49
 918 1526 918 1526 933 1541 c 1,50,51
 956 1533 956 1533 1032 1533 c 2,52,-1
 1378 1533 l 2,53,54
 1469 1533 1469 1533 1494 1500 c 0,55,56
 1505 1485 1505 1485 1505 1464 c 0,57,58
 1505 1424 1505 1424 1487 1404 c 1,59,60
 1453 1414 1453 1414 1429 1414 c 128,-1,61
 1405 1414 1405 1414 1386 1399 c 128,-1,62
 1367 1384 1367 1384 1349.5 1358 c 128,-1,63
 1332 1332 1332 1332 1314 1298 c 0,64,65
 1258 1188 1258 1188 1226 1131 c 1,66,67
 908 591 908 591 898 572 c 1,68,-1
 873 530 l 1,69,-1
 873 236 l 2,70,71
 873 150 873 150 968 134 c 0,72,73
 1082 116 1082 116 1103 103 c 1,74,75
 1139 83 1139 83 1139 46 c 0,76,77
 1139 12 1139 12 1123 -8 c 1,78,79
 1100 0 1100 0 1024 0 c 2,80,-1
 514 0 l 2,0,1
EndSplineSet
EndChar

StartChar: Z
Encoding: 90 90 80
Width: 1413
GlyphClass: 2
Flags: W
LayerCount: 2
Fore
SplineSet
92 133 m 2,0,1
 92 133 92 133 603 834 c 1,2,3
 787 1094 787 1094 852 1194 c 1,4,-1
 976 1391 l 1,5,-1
 560 1376 l 2,6,7
 489 1373 489 1373 445 1365.5 c 128,-1,8
 401 1358 401 1358 376 1336 c 0,9,10
 333 1299 333 1299 321 1164 c 1,11,12
 321 1144 321 1144 274 1133 c 0,13,14
 262 1130 262 1130 243 1130 c 128,-1,15
 224 1130 224 1130 213.5 1148 c 128,-1,16
 203 1166 203 1166 194.5 1197.5 c 128,-1,17
 186 1229 186 1229 181 1263 c 0,18,19
 171 1331 171 1331 171 1380.5 c 128,-1,20
 171 1430 171 1430 175 1459.5 c 128,-1,21
 179 1489 179 1489 190 1505 c 0,22,23
 209 1533 209 1533 271 1533 c 2,24,-1
 1185 1533 l 2,25,26
 1222 1533 1222 1533 1262 1487 c 0,27,28
 1301 1442 1301 1442 1289 1416 c 1,29,-1
 397 146 l 1,30,-1
 915 166 l 2,31,32
 1051 172 1051 172 1100 230 c 0,33,34
 1142 280 1142 280 1155 426 c 0,35,36
 1156 436 1156 436 1176.5 445 c 128,-1,37
 1197 454 1197 454 1223.5 454 c 128,-1,38
 1250 454 1250 454 1260.5 435 c 128,-1,39
 1271 416 1271 416 1279.5 380 c 128,-1,40
 1288 344 1288 344 1294 305 c 0,41,42
 1306 227 1306 227 1306 170.5 c 128,-1,43
 1306 114 1306 114 1291 81 c 128,-1,44
 1276 48 1276 48 1246 30 c 0,45,46
 1196 0 1196 0 1071 0 c 2,47,-1
 188 0 l 2,48,49
 148 0 148 0 112 56 c 1,50,51
 76 110 76 110 92 133 c 2,0,1
EndSplineSet
EndChar

StartChar: bracketleft
Encoding: 91 91 81
Width: 867
GlyphClass: 2
Flags: W
LayerCount: 2
Fore
SplineSet
710 -259 m 1,0,1
 721 -285 721 -285 721 -319.5 c 128,-1,2
 721 -354 721 -354 706.5 -381 c 128,-1,3
 692 -408 692 -408 665 -408 c 2,4,-1
 190 -408 l 2,5,6
 157 -408 157 -408 148 -374 c 0,7,8
 145 -366 145 -366 145 -360 c 2,9,-1
 145 1883 l 2,10,11
 145 1910 145 1910 161.5 1920.5 c 128,-1,12
 178 1931 178 1931 190 1931 c 2,13,-1
 665 1931 l 2,14,15
 692 1931 692 1931 706.5 1904 c 128,-1,16
 721 1877 721 1877 721 1842.5 c 128,-1,17
 721 1808 721 1808 710 1782 c 1,18,-1
 353 1782 l 1,19,-1
 353 -259 l 1,20,-1
 710 -259 l 1,0,1
EndSplineSet
EndChar

StartChar: asciicircum
Encoding: 94 94 84
Width: 1656
GlyphClass: 2
Flags: W
LayerCount: 2
Fore
SplineSet
396 380 m 0,0,1
 268 380 268 380 268 447 c 0,2,3
 268 457 268 457 278 482 c 2,4,-1
 705 1465 l 2,5,6
 736 1534 736 1534 827 1534 c 0,7,8
 873 1534 873 1534 911 1515.5 c 128,-1,9
 949 1497 949 1497 963 1465 c 0,10,11
 1383 471 1383 471 1388 459.5 c 128,-1,12
 1393 448 1393 448 1393 438 c 0,13,14
 1393 381 1393 381 1248 381 c 0,15,16
 1220 381 1220 381 1194 430 c 1,17,-1
 837 1309 l 1,18,-1
 462 437 l 1,19,20
 428 380 428 380 396 380 c 0,0,1
EndSplineSet
EndChar

StartChar: underscore
Encoding: 95 95 85
Width: 1380
GlyphClass: 2
Flags: W
LayerCount: 2
Fore
SplineSet
-101 -330 m 1,0,1
 -112 -304 -112 -304 -112 -267.5 c 128,-1,2
 -112 -231 -112 -231 -97.5 -203 c 128,-1,3
 -83 -175 -83 -175 -56 -175 c 2,4,-1
 1480 -175 l 1,5,6
 1493 -197 1493 -197 1493 -236 c 0,7,8
 1493 -298 1493 -298 1460 -322 c 0,9,10
 1449 -330 1449 -330 1434 -330 c 2,11,-1
 -101 -330 l 1,0,1
EndSplineSet
EndChar

StartChar: grave
Encoding: 96 96 86
Width: 582
GlyphClass: 2
Flags: W
LayerCount: 2
Fore
SplineSet
20 1568 m 2,0,1
 0 1578 0 1578 0 1600.5 c 128,-1,2
 0 1623 0 1623 16.5 1652.5 c 128,-1,3
 33 1682 33 1682 58 1708 c 1,4,5
 120 1769 120 1769 175 1769 c 0,6,7
 205 1769 205 1769 227 1747 c 2,8,-1
 546 1428 l 2,9,10
 553 1421 553 1421 553 1411 c 128,-1,11
 553 1401 553 1401 547 1390.5 c 128,-1,12
 541 1380 541 1380 530 1370 c 0,13,14
 505 1347 505 1347 476 1347 c 1,15,-1
 20 1568 l 2,0,1
EndSplineSet
EndChar

StartChar: a
Encoding: 97 97 87
Width: 1247
GlyphClass: 2
Flags: W
LayerCount: 2
Fore
SplineSet
815 127 m 1,0,1
 669 -19 669 -19 462 -19 c 0,2,3
 302 -19 302 -19 206 73 c 0,4,5
 109 166 109 166 109 314 c 0,6,7
 109 498 109 498 273 590 c 0,8,9
 421 674 421 674 690 674 c 2,10,-1
 815 674 l 1,11,12
 816 712 816 712 816 748 c 2,13,-1
 816 823 l 2,14,15
 816 957 816 957 777 1012 c 0,16,17
 733 1074 733 1074 627 1074 c 0,18,19
 384 1074 384 1074 377 900 c 0,20,21
 376 873 376 873 378 855 c 1,22,23
 358 839 358 839 310.5 839 c 128,-1,24
 263 839 263 839 241.5 850 c 128,-1,25
 220 861 220 861 204 880 c 0,26,27
 170 919 170 919 170 979.5 c 128,-1,28
 170 1040 170 1040 205.5 1085.5 c 128,-1,29
 241 1131 241 1131 302 1160 c 1,30,31
 421 1219 421 1219 583 1219 c 128,-1,32
 745 1219 745 1219 826.5 1187.5 c 128,-1,33
 908 1156 908 1156 956 1104 c 0,34,35
 1041 1012 1041 1012 1041 857 c 1,36,-1
 1031 377 l 1,37,38
 1031 246 1031 246 1043.5 211 c 128,-1,39
 1056 176 1056 176 1073.5 164 c 128,-1,40
 1091 152 1091 152 1116.5 152 c 128,-1,41
 1142 152 1142 152 1158 160 c 2,42,-1
 1186 173 l 1,43,44
 1200 178 1200 178 1210.5 161.5 c 128,-1,45
 1221 145 1221 145 1221 132.5 c 128,-1,46
 1221 120 1221 120 1210.5 100 c 128,-1,47
 1200 80 1200 80 1171.5 57.5 c 128,-1,48
 1143 35 1143 35 1107 18 c 0,49,50
 908 -76 908 -76 836 62 c 0,51,52
 821 89 821 89 815 127 c 1,0,1
812 258 m 1,53,54
 812 402 812 402 814 544 c 1,55,56
 606 536 606 536 531.5 517.5 c 128,-1,57
 457 499 457 499 424 482 c 128,-1,58
 391 465 391 465 372 442 c 0,59,60
 341 404 341 404 341 327.5 c 128,-1,61
 341 251 341 251 395 205.5 c 128,-1,62
 449 160 449 160 550 160 c 0,63,64
 693 160 693 160 812 258 c 1,53,54
EndSplineSet
EndChar

StartChar: b
Encoding: 98 98 88
Width: 1328
GlyphClass: 2
Flags: W
LayerCount: 2
Fore
SplineSet
415 1079 m 1,0,1
 565 1219 565 1219 750 1219 c 0,2,3
 954 1219 954 1219 1082 1078 c 1,4,5
 1222 926 1222 926 1222 654 c 0,6,7
 1222 348 1222 348 1030 158 c 1,8,9
 849 -19 849 -19 602 -19 c 0,10,11
 441 -19 441 -19 281 54 c 0,12,13
 229 77 229 77 192 107 c 1,14,-1
 192 1475 l 2,15,16
 192 1544 192 1544 178 1564 c 0,17,18
 157 1596 157 1596 104 1596 c 0,19,20
 80 1596 80 1596 59 1591.5 c 128,-1,21
 38 1587 38 1587 30 1591.5 c 128,-1,22
 22 1596 22 1596 16 1604 c 0,23,24
 -5 1636 -5 1636 66 1688 c 0,25,26
 176 1769 176 1769 283 1769 c 0,27,28
 397 1769 397 1769 411 1646 c 0,29,30
 415 1609 415 1609 415 1568 c 2,31,-1
 415 1079 l 1,0,1
415 920 m 1,32,-1
 415 219 l 1,33,34
 509 141 509 141 640 141 c 0,35,36
 795 141 795 141 892 256 c 0,37,38
 995 378 995 378 995 591 c 0,39,40
 995 815 995 815 904 928 c 1,41,42
 823 1031 823 1031 677.5 1031 c 128,-1,43
 532 1031 532 1031 415 920 c 1,32,-1
EndSplineSet
EndChar

StartChar: c
Encoding: 99 99 89
Width: 1134
GlyphClass: 2
Flags: W
LayerCount: 2
Fore
SplineSet
826 854 m 1,0,-1
 827 890 l 2,1,2
 827 909 827 909 818 954.5 c 128,-1,3
 809 1000 809 1000 760.5 1029 c 128,-1,4
 712 1058 712 1058 637.5 1058 c 128,-1,5
 563 1058 563 1058 505.5 1020.5 c 128,-1,6
 448 983 448 983 412 920 c 0,7,8
 344 800 344 800 344 599 c 0,9,10
 344 409 344 409 436 290 c 0,11,12
 530 168 530 168 684 168 c 0,13,14
 824 168 824 168 952 245 c 0,15,16
 983 264 983 264 1000 278 c 1,17,18
 1010 278 1010 278 1023 262 c 0,19,20
 1048 233 1048 233 1048 215.5 c 128,-1,21
 1048 198 1048 198 1034 175.5 c 128,-1,22
 1020 153 1020 153 993.5 127.5 c 128,-1,23
 967 102 967 102 930 76 c 128,-1,24
 893 50 893 50 847 29 c 0,25,26
 742 -19 742 -19 632 -19 c 128,-1,27
 522 -19 522 -19 426.5 18.5 c 128,-1,28
 331 56 331 56 262 129 c 0,29,30
 114 284 114 284 114 555 c 0,31,32
 114 863 114 863 302 1050 c 0,33,34
 473 1219 473 1219 697 1219 c 0,35,36
 844 1219 844 1219 942 1156 c 0,37,38
 1045 1090 1045 1090 1045 982 c 0,39,40
 1045 923 1045 923 1019 893 c 0,41,42
 974 840 974 840 914.5 840 c 128,-1,43
 855 840 855 840 826 854 c 1,0,-1
EndSplineSet
EndChar

StartChar: d
Encoding: 100 100 90
Width: 1378
GlyphClass: 2
Flags: W
LayerCount: 2
Fore
SplineSet
919 125 m 1,0,1
 764 -20 764 -20 578 -20 c 0,2,3
 373 -20 373 -20 244 120 c 1,4,5
 104 274 104 274 104 545 c 0,6,7
 104 850 104 850 298 1041 c 0,8,9
 479 1219 479 1219 726 1219 c 0,10,11
 825 1219 825 1219 916 1186 c 1,12,-1
 916 1475 l 2,13,14
 916 1545 916 1545 902 1564 c 0,15,16
 879 1596 879 1596 827 1596 c 0,17,18
 805 1596 805 1596 783.5 1591.5 c 128,-1,19
 762 1587 762 1587 753.5 1591.5 c 128,-1,20
 745 1596 745 1596 740 1604 c 0,21,22
 720 1637 720 1637 790 1688 c 0,23,24
 900 1769 900 1769 1007 1769 c 0,25,26
 1120 1769 1120 1769 1136 1646 c 0,27,28
 1140 1609 1140 1609 1140 1568 c 2,29,-1
 1140 407 l 2,30,31
 1140 253 1140 253 1152 215 c 128,-1,32
 1164 177 1164 177 1180.5 165.5 c 128,-1,33
 1197 154 1197 154 1222 154 c 128,-1,34
 1247 154 1247 154 1263 162 c 2,35,-1
 1293 175 l 1,36,37
 1306 178 1306 178 1316 163 c 0,38,39
 1337 132 1337 132 1322 107 c 128,-1,40
 1307 82 1307 82 1277 59 c 128,-1,41
 1247 36 1247 36 1210 19 c 0,42,43
 1048 -54 1048 -54 968 16 c 0,44,45
 929 50 929 50 919 125 c 1,0,1
916 983 m 1,46,47
 818 1058 818 1058 688 1058 c 0,48,49
 532 1058 532 1058 435 943 c 0,50,51
 331 820 331 820 331 608 c 0,52,53
 331 271 331 271 523 192 c 0,54,55
 583 168 583 168 639.5 168 c 128,-1,56
 696 168 696 168 734 177 c 128,-1,57
 772 186 772 186 805 201 c 0,58,59
 871 231 871 231 916 274 c 1,60,-1
 916 983 l 1,46,47
EndSplineSet
EndChar

StartChar: e
Encoding: 101 101 91
Width: 1209
GlyphClass: 2
Flags: W
LayerCount: 2
Fore
SplineSet
108 538 m 0,0,1
 108 659 108 659 133 753 c 128,-1,2
 158 847 158 847 200.5 921.5 c 128,-1,3
 243 996 243 996 300.5 1052 c 128,-1,4
 358 1108 358 1108 424 1145 c 0,5,6
 554 1219 554 1219 680 1219 c 128,-1,7
 806 1219 806 1219 882 1174.5 c 128,-1,8
 958 1130 958 1130 1006 1056 c 1,9,10
 1095 915 1095 915 1095 681 c 0,11,12
 1095 594 1095 594 1022 592 c 2,13,-1
 324 577 l 1,14,15
 330 360 330 360 436 256 c 0,16,17
 526 168 526 168 669 168 c 0,18,19
 882 168 882 168 1015 257 c 1,20,21
 1024 257 1024 257 1037 242 c 0,22,23
 1062 212 1062 212 1062 190 c 0,24,25
 1062 142 1062 142 942 67 c 0,26,27
 804 -19 804 -19 620 -19 c 0,28,29
 380 -19 380 -19 243 134 c 0,30,31
 108 284 108 284 108 538 c 0,0,1
330 706 m 1,32,33
 618 720 618 720 857 743 c 1,34,35
 868 1061 868 1061 637 1061 c 0,36,37
 508 1061 508 1061 426 961 c 0,38,39
 351 869 351 869 330 706 c 1,32,33
EndSplineSet
EndChar

StartChar: f
Encoding: 102 102 92
Width: 861
GlyphClass: 2
Flags: W
LayerCount: 2
Fore
SplineSet
264 0 m 2,0,1
 111 0 111 0 111 70 c 0,2,3
 111 107 111 107 126 126 c 1,4,5
 150 118 150 118 171 118 c 0,6,7
 263 118 263 118 261 236 c 1,8,-1
 261 1027 l 1,9,-1
 242 1027 l 2,10,11
 134 1027 134 1027 102 1024 c 1,12,13
 85 1063 85 1063 85 1097 c 128,-1,14
 85 1131 85 1131 111 1152.5 c 128,-1,15
 137 1174 137 1174 178 1174 c 2,16,-1
 261 1174 l 1,17,-1
 261 1210 l 2,18,19
 261 1584 261 1584 519 1718 c 0,20,21
 617 1769 617 1769 725 1769 c 128,-1,22
 833 1769 833 1769 881 1720 c 128,-1,23
 929 1671 929 1671 929 1590 c 0,24,25
 929 1499 929 1499 865 1449 c 1,26,27
 846 1436 846 1436 808 1436 c 128,-1,28
 770 1436 770 1436 770 1455 c 0,29,30
 770 1602 770 1602 660 1602 c 0,31,32
 587 1602 587 1602 551 1568 c 0,33,34
 482 1501 482 1501 482 1365 c 0,35,36
 482 1344 482 1344 484 1320 c 1,37,-1
 484 1174 l 1,38,-1
 801 1174 l 1,39,40
 814 1151 814 1151 814 1115 c 128,-1,41
 814 1079 814 1079 806.5 1062 c 128,-1,42
 799 1045 799 1045 778 1031 c 0,43,44
 732 999 732 999 658.5 999 c 128,-1,45
 585 999 585 999 484 1011 c 1,46,-1
 484 208 l 2,47,48
 484 131 484 131 582 120 c 0,49,50
 668 111 668 111 686 98 c 0,51,52
 711 79 711 79 711 50 c 0,53,54
 711 15 711 15 695 -5 c 1,55,56
 675 0 675 0 631 0 c 2,57,-1
 264 0 l 2,0,1
EndSplineSet
EndChar

StartChar: g
Encoding: 103 103 93
Width: 1249
GlyphClass: 2
Flags: W
LayerCount: 2
Fore
SplineSet
493 399 m 1,0,1
 455 361 455 361 455 325 c 128,-1,2
 455 289 455 289 476 270.5 c 128,-1,3
 497 252 497 252 531 242 c 0,4,5
 583 228 583 228 646 228 c 2,6,-1
 732 228 l 2,7,8
 1058 228 1058 228 1161 72 c 0,9,10
 1199 14 1199 14 1199 -69.5 c 128,-1,11
 1199 -153 1199 -153 1171 -216 c 128,-1,12
 1143 -279 1143 -279 1096 -327.5 c 128,-1,13
 1049 -376 1049 -376 987 -411 c 128,-1,14
 925 -446 925 -446 856 -468 c 0,15,16
 721 -513 721 -513 604 -513 c 128,-1,17
 487 -513 487 -513 399.5 -494.5 c 128,-1,18
 312 -476 312 -476 244 -437 c 0,19,20
 97 -352 97 -352 97 -193 c 0,21,22
 97 -58 97 -58 232 49 c 0,23,24
 273 81 273 81 319 106 c 1,25,26
 265 151 265 151 265 227 c 0,27,28
 265 346 265 346 383 427 c 1,29,30
 210 493 210 493 156 663 c 0,31,32
 139 719 139 719 139 788 c 128,-1,33
 139 857 139 857 160.5 918 c 128,-1,34
 182 979 182 979 219.5 1027 c 128,-1,35
 257 1075 257 1075 307 1111 c 128,-1,36
 357 1147 357 1147 414 1171 c 0,37,38
 526 1219 526 1219 649 1219 c 0,39,40
 852 1219 852 1219 973 1117 c 1,41,42
 986 1167 986 1167 986 1220 c 128,-1,43
 986 1273 986 1273 963 1306 c 1,44,45
 1002 1352 1002 1352 1079 1352 c 0,46,47
 1123 1352 1123 1352 1149 1328 c 1,48,49
 1199 1285 1199 1285 1199 1242.5 c 128,-1,50
 1199 1200 1199 1200 1186 1168.5 c 128,-1,51
 1173 1137 1173 1137 1152 1109 c 0,52,53
 1115 1057 1115 1057 1056 1015 c 1,54,55
 1096 940 1096 940 1096 841.5 c 128,-1,56
 1096 743 1096 743 1052.5 658.5 c 128,-1,57
 1009 574 1009 574 936 515 c 0,58,59
 786 394 786 394 566 394 c 0,60,61
 536 394 536 394 493 399 c 1,0,1
526 560 m 128,-1,63
 572 543 572 543 624.5 543 c 128,-1,64
 677 543 677 543 723.5 558 c 128,-1,65
 770 573 770 573 804 602 c 0,66,67
 877 664 877 664 877 778 c 0,68,69
 877 904 877 904 812 988 c 1,70,71
 738 1081 738 1081 604 1081 c 0,72,73
 435 1081 435 1081 385 943 c 0,74,75
 368 896 368 896 368 827 c 128,-1,76
 368 758 368 758 388.5 703 c 128,-1,77
 409 648 409 648 444.5 612.5 c 128,-1,62
 480 577 480 577 526 560 c 128,-1,63
445 47 m 1,78,79
 314 -42 314 -42 314 -155 c 0,80,81
 314 -253 314 -253 428 -304 c 1,82,83
 519 -346 519 -346 652 -346 c 0,84,85
 773 -346 773 -346 876 -306 c 0,86,87
 1011 -253 1011 -253 1011 -133 c 0,88,89
 1011 28 1011 28 750 28 c 1,90,-1
 661 27 l 1,91,92
 525 27 525 27 445 47 c 1,78,79
EndSplineSet
EndChar

StartChar: h
Encoding: 104 104 94
Width: 1461
GlyphClass: 2
Flags: W
LayerCount: 2
Fore
SplineSet
630 -5 m 1,0,1
 610 0 610 0 566 0 c 2,2,-1
 247 0 l 2,3,4
 151 0 151 0 124 34 c 0,5,6
 113 47 113 47 113 64 c 0,7,8
 113 106 113 106 129 126 c 1,9,10
 153 118 153 118 184 118 c 128,-1,11
 215 118 215 118 230 143 c 128,-1,12
 245 168 245 168 244 236 c 1,13,-1
 244 1475 l 2,14,15
 244 1544 244 1544 230 1564 c 0,16,17
 209 1596 209 1596 156 1596 c 2,18,-1
 136 1596 l 2,19,20
 127 1596 127 1596 115.5 1593.5 c 128,-1,21
 104 1591 104 1591 96 1595.5 c 128,-1,22
 88 1600 88 1600 82 1608 c 0,23,24
 61 1639 61 1639 130 1692 c 0,25,26
 231 1769 231 1769 336 1769 c 0,27,28
 450 1769 450 1769 464 1646 c 0,29,30
 468 1609 468 1609 468 1568 c 2,31,-1
 468 1023 l 1,32,33
 619 1150 619 1150 791 1200 c 0,34,35
 854 1219 854 1219 918.5 1219 c 128,-1,36
 983 1219 983 1219 1041.5 1202 c 128,-1,37
 1100 1185 1100 1185 1142 1147 c 0,38,39
 1234 1065 1234 1065 1234 897 c 2,40,-1
 1234 226 l 2,41,42
 1234 143 1234 143 1290 124 c 0,43,44
 1306 118 1306 118 1328 114 c 128,-1,45
 1350 110 1350 110 1367.5 104.5 c 128,-1,46
 1385 99 1385 99 1395 92 c 0,47,48
 1412 79 1412 79 1412 50 c 0,49,50
 1412 14 1412 14 1397 -5 c 1,51,52
 1376 0 1376 0 1333 0 c 2,53,-1
 1014 0 l 2,54,55
 918 0 918 0 891 34 c 0,56,57
 880 47 880 47 880 64 c 0,58,59
 880 107 880 107 895 126 c 1,60,61
 920 118 920 118 949 118 c 128,-1,62
 978 118 978 118 993.5 139 c 128,-1,63
 1009 160 1009 160 1011 216 c 1,64,-1
 1011 826 l 2,65,66
 1011 996 1011 996 910 1016 c 0,67,68
 879 1022 879 1022 832.5 1022 c 128,-1,69
 786 1022 786 1022 730.5 1008 c 128,-1,70
 675 994 675 994 626 972 c 0,71,72
 529 928 529 928 468 867 c 1,73,-1
 468 226 l 2,74,75
 468 143 468 143 524 124 c 0,76,77
 540 118 540 118 562 114 c 128,-1,78
 584 110 584 110 601.5 104.5 c 128,-1,79
 619 99 619 99 629 92 c 0,80,81
 646 79 646 79 646 50 c 0,82,83
 646 15 646 15 630 -5 c 1,0,1
EndSplineSet
EndChar

StartChar: i
Encoding: 105 105 95
Width: 717
GlyphClass: 2
Flags: W
LayerCount: 2
Fore
SplineSet
334 1405 m 0,0,1
 300 1405 300 1405 271.5 1415.5 c 128,-1,2
 243 1426 243 1426 222 1446 c 0,3,4
 178 1488 178 1488 178 1559 c 0,5,6
 178 1627 178 1627 230 1674 c 1,7,8
 280 1721 280 1721 350 1721 c 128,-1,9
 420 1721 420 1721 462 1679 c 128,-1,10
 504 1637 504 1637 504 1565 c 0,11,12
 504 1497 504 1497 454 1450 c 0,13,14
 405 1405 405 1405 334 1405 c 0,0,1
273 0 m 2,15,16
 119 0 119 0 119 70 c 0,17,18
 119 106 119 106 135 126 c 1,19,20
 159 118 159 118 179 118 c 0,21,22
 272 118 272 118 270 236 c 1,23,-1
 270 906 l 2,24,25
 270 976 270 976 250.5 1003.5 c 128,-1,26
 231 1031 231 1031 181 1031 c 0,27,28
 144 1031 144 1031 114 1022 c 1,29,30
 96 1020 96 1020 88 1050 c 0,31,32
 81 1077 81 1077 96 1097.5 c 128,-1,33
 111 1118 111 1118 142.5 1140.5 c 128,-1,34
 174 1163 174 1163 212 1180 c 0,35,36
 294 1219 294 1219 349 1219 c 128,-1,37
 404 1219 404 1219 430.5 1203 c 128,-1,38
 457 1187 457 1187 471 1160 c 0,39,40
 493 1116 493 1116 493 1018 c 2,41,-1
 493 219 l 1,42,43
 496 140 496 140 550 123 c 0,44,45
 565 118 565 118 587 114 c 128,-1,46
 609 110 609 110 626.5 104.5 c 128,-1,47
 644 99 644 99 654 92 c 0,48,49
 671 79 671 79 671 50 c 0,50,51
 671 14 671 14 656 -5 c 1,52,53
 635 0 635 0 592 0 c 2,54,-1
 273 0 l 2,15,16
EndSplineSet
EndChar

StartChar: j
Encoding: 106 106 96
Width: 717
GlyphClass: 2
Flags: W
LayerCount: 2
Fore
SplineSet
221.5 1446 m 128,-1,1
 178 1487 178 1487 178 1559 c 0,2,3
 178 1627 178 1627 230 1674 c 1,4,5
 280 1721 280 1721 349.5 1721 c 128,-1,6
 419 1721 419 1721 461 1679 c 128,-1,7
 503 1637 503 1637 503 1565 c 0,8,9
 503 1497 503 1497 453 1450 c 0,10,11
 404 1405 404 1405 334.5 1405 c 128,-1,0
 265 1405 265 1405 221.5 1446 c 128,-1,1
10 -250 m 1,12,13
 14 -282 14 -282 37.5 -307 c 128,-1,14
 61 -332 61 -332 104.5 -332 c 128,-1,15
 148 -332 148 -332 177.5 -323 c 128,-1,16
 207 -314 207 -314 228 -290 c 0,17,18
 270 -239 270 -239 270 -108 c 2,19,-1
 270 906 l 2,20,21
 270 976 270 976 250.5 1003.5 c 128,-1,22
 231 1031 231 1031 181 1031 c 0,23,24
 155 1031 155 1031 134 1022 c 1,25,26
 115 1020 115 1020 107 1050 c 0,27,28
 100 1076 100 1076 115 1096.5 c 128,-1,29
 130 1117 130 1117 159 1140 c 128,-1,30
 188 1163 188 1163 222 1180 c 0,31,32
 298 1219 298 1219 351 1219 c 128,-1,33
 404 1219 404 1219 430.5 1203 c 128,-1,34
 457 1187 457 1187 471 1160 c 0,35,36
 493 1116 493 1116 493 1018 c 2,37,-1
 493 37 l 2,38,39
 493 -225 493 -225 368 -376 c 0,40,41
 254 -514 254 -514 86 -514 c 0,42,43
 -72 -514 -72 -514 -122 -424 c 0,44,45
 -136 -397 -136 -397 -136 -352.5 c 128,-1,46
 -136 -308 -136 -308 -101.5 -277.5 c 128,-1,47
 -67 -247 -67 -247 -36 -247 c 128,-1,48
 -5 -247 -5 -247 10 -250 c 1,12,13
EndSplineSet
EndChar

StartChar: k
Encoding: 107 107 97
Width: 1325
GlyphClass: 2
Flags: W
LayerCount: 2
Fore
SplineSet
611 -5 m 1,0,1
 591 0 591 0 547 0 c 2,2,-1
 247 0 l 2,3,4
 151 0 151 0 124 34 c 0,5,6
 113 47 113 47 113 64 c 0,7,8
 113 106 113 106 129 126 c 1,9,10
 153 118 153 118 184 118 c 128,-1,11
 215 118 215 118 230 143 c 128,-1,12
 245 168 245 168 244 236 c 1,13,-1
 244 1475 l 2,14,15
 244 1544 244 1544 230 1564 c 0,16,17
 209 1596 209 1596 156 1596 c 0,18,19
 140 1596 140 1596 123.5 1592.5 c 128,-1,20
 107 1589 107 1589 98.5 1593.5 c 128,-1,21
 90 1598 90 1598 85 1606 c 0,22,23
 72 1626 72 1626 87.5 1646.5 c 128,-1,24
 103 1667 103 1667 132 1690 c 128,-1,25
 161 1713 161 1713 196 1730 c 1,26,27
 271 1769 271 1769 325.5 1769 c 128,-1,28
 380 1769 380 1769 406.5 1753 c 128,-1,29
 433 1737 433 1737 446 1710 c 0,30,31
 468 1666 468 1666 468 1568 c 2,32,-1
 468 226 l 2,33,34
 468 143 468 143 518 124 c 0,35,36
 532 118 532 118 551.5 114 c 128,-1,37
 571 110 571 110 587 104.5 c 128,-1,38
 603 99 603 99 612 92 c 0,39,40
 627 79 627 79 627 50 c 0,41,42
 627 15 627 15 611 -5 c 1,0,1
1034 1219 m 0,43,44
 1190 1219 1190 1219 1190 1123 c 0,45,46
 1190 1002 1190 1002 947 789 c 0,47,48
 853 706 853 706 758 647 c 1,49,50
 822 588 822 588 889 494 c 2,51,-1
 994 346 l 1,52,53
 1126 157 1126 157 1193 157 c 0,54,55
 1248 157 1248 157 1265.5 168 c 128,-1,56
 1283 179 1283 179 1291 180 c 128,-1,57
 1299 181 1299 181 1312 173 c 128,-1,58
 1325 165 1325 165 1325 146 c 128,-1,59
 1325 127 1325 127 1309.5 98.5 c 128,-1,60
 1294 70 1294 70 1266 44 c 0,61,62
 1198 -19 1198 -19 1119 -19 c 128,-1,63
 1040 -19 1040 -19 986 18.5 c 128,-1,64
 932 56 932 56 885 115.5 c 128,-1,65
 838 175 838 175 796 248 c 2,66,-1
 713 390 l 2,67,68
 612 564 612 564 540 616 c 1,69,70
 498 645 498 645 512 653 c 2,71,-1
 541 669 l 1,72,-1
 702 784 l 1,73,74
 805 861 805 861 844 905 c 0,75,76
 920 990 920 990 920 1047 c 0,77,78
 920 1087 920 1087 840 1093 c 1,79,80
 830 1109 830 1109 830 1127 c 128,-1,81
 830 1145 830 1145 849.5 1162.5 c 128,-1,82
 869 1180 869 1180 899 1192 c 0,83,84
 963 1219 963 1219 1034 1219 c 0,43,44
EndSplineSet
EndChar

StartChar: l
Encoding: 108 108 98
Width: 715
GlyphClass: 2
Flags: W
LayerCount: 2
Fore
SplineSet
263 0 m 2,0,1
 110 0 110 0 110 70 c 0,2,3
 110 107 110 107 125 126 c 1,4,5
 149 118 149 118 170 118 c 0,6,7
 257 118 257 118 260 223 c 1,8,-1
 260 1475 l 2,9,10
 260 1545 260 1545 246 1564 c 0,11,12
 223 1596 223 1596 172 1596 c 0,13,14
 149 1596 149 1596 127.5 1591.5 c 128,-1,15
 106 1587 106 1587 97.5 1591.5 c 128,-1,16
 89 1596 89 1596 84 1604 c 0,17,18
 64 1637 64 1637 134 1688 c 0,19,20
 244 1769 244 1769 351 1769 c 0,21,22
 465 1769 465 1769 479 1646 c 0,23,24
 483 1609 483 1609 483 1568 c 2,25,-1
 483 219 l 1,26,27
 486 141 486 141 540 123 c 0,28,29
 556 118 556 118 577.5 114 c 128,-1,30
 599 110 599 110 617 104.5 c 128,-1,31
 635 99 635 99 645 92 c 0,32,33
 662 79 662 79 662 50 c 0,34,35
 662 15 662 15 646 -5 c 1,36,37
 626 0 626 0 582 0 c 2,38,-1
 263 0 l 2,0,1
EndSplineSet
EndChar

StartChar: m
Encoding: 109 109 99
Width: 2190
GlyphClass: 2
Flags: W
LayerCount: 2
Fore
SplineSet
646 -5 m 1,0,1
 626 0 626 0 582 0 c 2,2,-1
 263 0 l 2,3,4
 167 0 167 0 140 34 c 0,5,6
 129 47 129 47 129 64 c 0,7,8
 129 106 129 106 145 126 c 1,9,10
 169 118 169 118 199.5 118 c 128,-1,11
 230 118 230 118 245.5 143 c 128,-1,12
 261 168 261 168 260 236 c 1,13,-1
 260 890 l 2,14,15
 260 984 260 984 225 1007 c 0,16,17
 211 1016 211 1016 188 1016 c 256,18,19
 165 1016 165 1016 151.5 1009 c 128,-1,20
 138 1002 138 1002 129.5 999 c 128,-1,21
 121 996 121 996 115 999.5 c 128,-1,22
 109 1003 109 1003 103 1010 c 0,23,24
 88 1026 88 1026 88 1043.5 c 128,-1,25
 88 1061 88 1061 100.5 1080.5 c 128,-1,26
 113 1100 113 1100 141 1125.5 c 128,-1,27
 169 1151 169 1151 205 1172 c 0,28,29
 286 1219 286 1219 367 1219 c 0,30,31
 456 1219 456 1219 474 1106 c 0,32,33
 480 1072 480 1072 482 1036 c 1,34,35
 632 1155 632 1155 796 1202 c 0,36,37
 856 1219 856 1219 912 1219 c 0,38,39
 1150 1219 1150 1219 1213 1031 c 1,40,41
 1369 1155 1369 1155 1530 1202 c 0,42,43
 1591 1219 1591 1219 1654 1219 c 128,-1,44
 1717 1219 1717 1219 1775.5 1202 c 128,-1,45
 1834 1185 1834 1185 1876 1147 c 0,46,47
 1968 1065 1968 1065 1968 897 c 2,48,-1
 1968 226 l 2,49,50
 1968 144 1968 144 2024 124 c 0,51,52
 2040 118 2040 118 2062 114 c 128,-1,53
 2084 110 2084 110 2102 104.5 c 128,-1,54
 2120 99 2120 99 2130 92 c 0,55,56
 2147 79 2147 79 2147 50 c 0,57,58
 2147 15 2147 15 2131 -5 c 1,59,60
 2111 0 2111 0 2067 0 c 2,61,-1
 1748 0 l 2,62,63
 1652 0 1652 0 1625 34 c 0,64,65
 1614 47 1614 47 1614 64 c 0,66,67
 1614 106 1614 106 1630 126 c 1,68,69
 1654 118 1654 118 1683 118 c 128,-1,70
 1712 118 1712 118 1727.5 137.5 c 128,-1,71
 1743 157 1743 157 1745 210 c 1,72,-1
 1745 826 l 2,73,74
 1745 996 1745 996 1644 1016 c 0,75,76
 1613 1022 1613 1022 1570.5 1022 c 128,-1,77
 1528 1022 1528 1022 1478.5 1011.5 c 128,-1,78
 1429 1001 1429 1001 1384 983 c 0,79,80
 1297 948 1297 948 1232 894 c 1,81,-1
 1232 226 l 2,82,83
 1232 143 1232 143 1288 124 c 0,84,85
 1304 118 1304 118 1326 114 c 128,-1,86
 1348 110 1348 110 1365.5 104.5 c 128,-1,87
 1383 99 1383 99 1393 92 c 0,88,89
 1410 79 1410 79 1410 50 c 0,90,91
 1410 14 1410 14 1395 -5 c 1,92,93
 1375 0 1375 0 1331 0 c 2,94,-1
 1012 0 l 2,95,96
 916 0 916 0 889 34 c 0,97,98
 878 47 878 47 878 64 c 0,99,100
 878 107 878 107 893 126 c 1,101,102
 918 118 918 118 947 118 c 128,-1,103
 976 118 976 118 991.5 139 c 128,-1,104
 1007 160 1007 160 1009 216 c 1,105,-1
 1009 826 l 2,106,107
 1009 996 1009 996 908 1016 c 0,108,109
 877 1022 877 1022 833 1022 c 128,-1,110
 789 1022 789 1022 737 1010 c 128,-1,111
 685 998 685 998 638 978 c 0,112,113
 548 941 548 941 483 884 c 1,114,-1
 483 226 l 2,115,116
 483 144 483 144 540 124 c 0,117,118
 555 118 555 118 577 114 c 128,-1,119
 599 110 599 110 617 104.5 c 128,-1,120
 635 99 635 99 645 92 c 0,121,122
 662 79 662 79 662 50 c 0,123,124
 662 15 662 15 646 -5 c 1,0,1
EndSplineSet
EndChar

StartChar: n
Encoding: 110 110 100
Width: 1472
GlyphClass: 2
Flags: W
LayerCount: 2
Fore
SplineSet
646 -5 m 1,0,1
 626 0 626 0 582 0 c 2,2,-1
 263 0 l 2,3,4
 167 0 167 0 140 34 c 0,5,6
 129 47 129 47 129 64 c 0,7,8
 129 106 129 106 145 126 c 1,9,10
 169 118 169 118 199.5 118 c 128,-1,11
 230 118 230 118 245.5 143 c 128,-1,12
 261 168 261 168 260 236 c 1,13,-1
 260 890 l 2,14,15
 260 984 260 984 225 1007 c 0,16,17
 211 1016 211 1016 188 1016 c 256,18,19
 165 1016 165 1016 151.5 1009 c 128,-1,20
 138 1002 138 1002 129.5 999 c 128,-1,21
 121 996 121 996 115 999.5 c 128,-1,22
 109 1003 109 1003 103 1010 c 0,23,24
 88 1026 88 1026 88 1043.5 c 128,-1,25
 88 1061 88 1061 100.5 1080.5 c 128,-1,26
 113 1100 113 1100 141 1125.5 c 128,-1,27
 169 1151 169 1151 205 1172 c 0,28,29
 286 1219 286 1219 367 1219 c 0,30,31
 460 1219 460 1219 477 1096 c 0,32,33
 482 1060 482 1060 483 1022 c 1,34,35
 632 1147 632 1147 807 1200 c 0,36,37
 870 1219 870 1219 934.5 1219 c 128,-1,38
 999 1219 999 1219 1057.5 1202 c 128,-1,39
 1116 1185 1116 1185 1159 1147 c 0,40,41
 1250 1067 1250 1067 1250 897 c 2,42,-1
 1250 219 l 1,43,44
 1253 141 1253 141 1308 123 c 0,45,46
 1323 118 1323 118 1345 114 c 128,-1,47
 1367 110 1367 110 1384.5 104.5 c 128,-1,48
 1402 99 1402 99 1412 92 c 0,49,50
 1429 79 1429 79 1429 50 c 0,51,52
 1429 15 1429 15 1413 -5 c 1,53,54
 1393 0 1393 0 1349 0 c 2,55,-1
 1030 0 l 2,56,57
 934 0 934 0 907 34 c 0,58,59
 896 47 896 47 896 64 c 0,60,61
 896 106 896 106 912 126 c 1,62,63
 936 118 936 118 956.5 118 c 128,-1,64
 977 118 977 118 991 123.5 c 128,-1,65
 1005 129 1005 129 1013 142 c 0,66,67
 1027 166 1027 166 1027 236 c 2,68,-1
 1027 826 l 2,69,70
 1027 996 1027 996 926 1016 c 0,71,72
 895 1022 895 1022 848.5 1022 c 128,-1,73
 802 1022 802 1022 746 1008 c 128,-1,74
 690 994 690 994 641 972 c 0,75,76
 547 930 547 930 483 866 c 1,77,-1
 483 219 l 1,78,79
 486 141 486 141 540 123 c 0,80,81
 556 118 556 118 577.5 114 c 128,-1,82
 599 110 599 110 617 104.5 c 128,-1,83
 635 99 635 99 645 92 c 0,84,85
 662 79 662 79 662 50 c 0,86,87
 662 15 662 15 646 -5 c 1,0,1
EndSplineSet
EndChar

StartChar: o
Encoding: 111 111 101
Width: 1270
GlyphClass: 2
Flags: W
LayerCount: 2
Fore
SplineSet
99 552 m 0,0,1
 99 674 99 674 123 771 c 128,-1,2
 147 868 147 868 189 942 c 128,-1,3
 231 1016 231 1016 288 1068.5 c 128,-1,4
 345 1121 345 1121 410 1154 c 0,5,6
 537 1219 537 1219 689 1219 c 0,7,8
 884 1219 884 1219 1020 1077 c 1,9,10
 1171 921 1171 921 1171 665 c 0,11,12
 1171 329 1171 329 988 142 c 1,13,14
 829 -19 829 -19 607 -19 c 0,15,16
 375 -19 375 -19 235 144 c 0,17,18
 99 301 99 301 99 552 c 0,0,1
666 144 m 0,19,20
 733 144 733 144 786 175.5 c 128,-1,21
 839 207 839 207 876 262 c 1,22,23
 950 376 950 376 950 558 c 0,24,25
 950 758 950 758 872 898 c 1,26,27
 784 1059 784 1059 619 1059 c 0,28,29
 486 1059 486 1059 406 957 c 0,30,31
 321 849 321 849 321 655 c 0,32,33
 321 412 321 412 428 271 c 0,34,35
 524 144 524 144 666 144 c 0,19,20
EndSplineSet
EndChar

StartChar: p
Encoding: 112 112 102
Width: 1369
GlyphClass: 2
Flags: W
LayerCount: 2
Fore
SplineSet
620 -374 m 1,0,1
 633 -391 633 -391 633 -417 c 128,-1,2
 633 -443 633 -443 610 -461.5 c 128,-1,3
 587 -480 587 -480 554 -492 c 0,4,5
 491 -514 491 -514 433 -514 c 128,-1,6
 375 -514 375 -514 337 -506 c 128,-1,7
 299 -498 299 -498 274 -478 c 0,8,9
 226 -438 226 -438 226 -343 c 2,10,-1
 226 890 l 2,11,12
 226 984 226 984 191 1007 c 0,13,14
 177 1016 177 1016 154 1016 c 256,15,16
 131 1016 131 1016 117.5 1009 c 128,-1,17
 104 1002 104 1002 95.5 999 c 128,-1,18
 87 996 87 996 81 999.5 c 128,-1,19
 75 1003 75 1003 69 1010 c 0,20,21
 54 1028 54 1028 54 1044.5 c 128,-1,22
 54 1061 54 1061 66.5 1080.5 c 128,-1,23
 79 1100 79 1100 107 1125.5 c 128,-1,24
 135 1151 135 1151 171 1172 c 0,25,26
 252 1219 252 1219 333 1219 c 0,27,28
 431 1219 431 1219 446 1072 c 1,29,30
 603 1219 603 1219 788 1219 c 0,31,32
 992 1219 992 1219 1122 1078 c 0,33,34
 1263 926 1263 926 1263 654 c 0,35,36
 1263 451 1263 451 1171 291 c 0,37,38
 1087 145 1087 145 940 62 c 1,39,40
 799 -19 799 -19 640 -19 c 0,41,42
 551 -19 551 -19 449 9 c 1,43,-1
 449 -130 l 2,44,45
 449 -292 449 -292 467.5 -329.5 c 128,-1,46
 486 -367 486 -367 505.5 -374 c 128,-1,47
 525 -381 525 -381 550.5 -381 c 128,-1,48
 576 -381 576 -381 620 -374 c 1,0,1
449 916 m 1,49,-1
 449 222 l 1,50,51
 544 141 544 141 678 141 c 0,52,53
 834 141 834 141 932 256 c 0,54,55
 1036 379 1036 379 1036 591 c 0,56,57
 1036 814 1036 814 944 928 c 0,58,59
 862 1031 862 1031 716 1031 c 128,-1,60
 570 1031 570 1031 449 916 c 1,49,-1
EndSplineSet
EndChar

StartChar: q
Encoding: 113 113 103
Width: 1354
GlyphClass: 2
Flags: W
LayerCount: 2
Fore
SplineSet
929 132 m 1,0,1
 772 -20 772 -20 581 -20 c 0,2,3
 376 -20 376 -20 248 120 c 0,4,5
 107 274 107 274 107 545 c 0,6,7
 107 849 107 849 300 1040 c 0,8,9
 388 1127 388 1127 499.5 1172.5 c 128,-1,10
 611 1218 611 1218 731.5 1218 c 128,-1,11
 852 1218 852 1218 966 1178 c 1,12,13
 1007 1221 1007 1221 1065 1221 c 0,14,15
 1111 1221 1111 1221 1130 1184 c 0,16,17
 1152 1143 1152 1143 1152 1042 c 2,18,-1
 1152 -130 l 2,19,20
 1152 -253 1152 -253 1163 -286 c 128,-1,21
 1174 -319 1174 -319 1190 -330.5 c 128,-1,22
 1206 -342 1206 -342 1227 -342 c 0,23,24
 1258 -342 1258 -342 1277.5 -335 c 128,-1,25
 1297 -328 1297 -328 1303 -328.5 c 128,-1,26
 1309 -329 1309 -329 1314 -333 c 0,27,28
 1329 -344 1329 -344 1329 -362 c 128,-1,29
 1329 -380 1329 -380 1318 -401 c 128,-1,30
 1307 -422 1307 -422 1281.5 -443.5 c 128,-1,31
 1256 -465 1256 -465 1223 -480 c 0,32,33
 1152 -514 1152 -514 1083 -514 c 128,-1,34
 1014 -514 1014 -514 971.5 -468 c 128,-1,35
 929 -422 929 -422 929 -323 c 2,36,-1
 929 132 l 1,0,1
929 968 m 1,37,38
 830 1058 830 1058 691 1058 c 0,39,40
 535 1058 535 1058 438 943 c 0,41,42
 334 820 334 820 334 608 c 0,43,44
 334 384 334 384 425 270 c 0,45,46
 507 168 507 168 656 168 c 128,-1,47
 805 168 805 168 929 292 c 1,48,-1
 929 968 l 1,37,38
EndSplineSet
EndChar

StartChar: r
Encoding: 114 114 104
Width: 1052
GlyphClass: 2
Flags: W
LayerCount: 2
Fore
SplineSet
661 -5 m 1,0,1
 640 0 640 0 597 0 c 2,2,-1
 258 0 l 2,3,4
 162 0 162 0 135 34 c 0,5,6
 124 47 124 47 124 64 c 0,7,8
 124 106 124 106 140 126 c 1,9,10
 164 118 164 118 184.5 118 c 128,-1,11
 205 118 205 118 219 123.5 c 128,-1,12
 233 129 233 129 241 142 c 0,13,14
 255 166 255 166 255 236 c 2,15,-1
 255 890 l 2,16,17
 255 984 255 984 220 1007 c 0,18,19
 206 1016 206 1016 183 1016 c 256,20,21
 160 1016 160 1016 146.5 1009 c 128,-1,22
 133 1002 133 1002 124.5 999 c 128,-1,23
 116 996 116 996 110 999.5 c 128,-1,24
 104 1003 104 1003 98 1010 c 0,25,26
 83 1028 83 1028 83 1044.5 c 128,-1,27
 83 1061 83 1061 95.5 1080.5 c 128,-1,28
 108 1100 108 1100 136 1125.5 c 128,-1,29
 164 1151 164 1151 200 1172 c 0,30,31
 281 1219 281 1219 362 1219 c 0,32,33
 454 1219 454 1219 471 1099 c 0,34,35
 476 1064 476 1064 477 1026 c 1,36,37
 623 1155 623 1155 778 1203 c 0,38,39
 830 1219 830 1219 872.5 1219 c 128,-1,40
 915 1219 915 1219 942.5 1207 c 128,-1,41
 970 1195 970 1195 986 1174 c 0,42,43
 1016 1133 1016 1133 1016 1069 c 128,-1,44
 1016 1005 1016 1005 1010 967 c 128,-1,45
 1004 929 1004 929 995 900 c 0,46,47
 977 841 977 841 961 825 c 0,48,49
 933 796 933 796 886 796 c 0,50,51
 838 796 838 796 838 824 c 0,52,53
 838 931 838 931 829 961 c 0,54,55
 812 1016 812 1016 765 1016 c 128,-1,56
 718 1016 718 1016 680 1005.5 c 128,-1,57
 642 995 642 995 606 977 c 0,58,59
 533 941 533 941 478 884 c 1,60,-1
 478 219 l 1,61,62
 481 140 481 140 547 123 c 0,63,64
 566 118 566 118 590 114 c 128,-1,65
 614 110 614 110 631.5 104.5 c 128,-1,66
 649 99 649 99 659 92 c 0,67,68
 676 79 676 79 676 50 c 0,69,70
 676 14 676 14 661 -5 c 1,0,1
EndSplineSet
EndChar

StartChar: s
Encoding: 115 115 105
Width: 1114
GlyphClass: 2
Flags: W
LayerCount: 2
Fore
SplineSet
794 864 m 0,0,1
 794 1018 794 1018 666 1068 c 0,2,3
 625 1084 625 1084 577.5 1084 c 128,-1,4
 530 1084 530 1084 489.5 1076 c 128,-1,5
 449 1068 449 1068 418 1051 c 0,6,7
 348 1013 348 1013 348 942 c 0,8,9
 348 874 348 874 406 824 c 1,10,11
 470 771 470 771 644 693.5 c 128,-1,12
 818 616 818 616 912.5 524.5 c 128,-1,13
 1007 433 1007 433 1007 314 c 0,14,15
 1007 180 1007 180 897 88 c 0,16,17
 768 -19 768 -19 540 -19 c 0,18,19
 261 -19 261 -19 154 100 c 0,20,21
 117 142 117 142 117 207 c 0,22,23
 117 364 117 364 194 390 c 0,24,25
 213 396 213 396 230 396 c 0,26,27
 277 396 277 396 281 367 c 1,28,29
 303 117 303 117 561 117 c 0,30,31
 716 117 716 117 768 204 c 0,32,33
 785 232 785 232 785 272 c 128,-1,34
 785 312 785 312 759.5 345 c 128,-1,35
 734 378 734 378 689 406.5 c 128,-1,36
 644 435 644 435 582 462 c 2,37,-1
 449 522 l 1,38,39
 143 662 143 662 143 894 c 0,40,41
 143 1044 143 1044 276 1134 c 0,42,43
 402 1219 402 1219 601 1219 c 0,44,45
 871 1219 871 1219 937 1102 c 0,46,47
 954 1072 954 1072 954 1036 c 128,-1,48
 954 1000 954 1000 950 971.5 c 128,-1,49
 946 943 946 943 940 920 c 0,50,51
 930 876 930 876 917 858 c 1,52,53
 891 839 891 839 842.5 839 c 128,-1,54
 794 839 794 839 794 864 c 0,0,1
EndSplineSet
EndChar

StartChar: t
Encoding: 116 116 106
Width: 887
GlyphClass: 2
Flags: W
LayerCount: 2
Fore
SplineSet
452 682 m 1,0,-1
 451 419 l 2,1,2
 451 254 451 254 468 220.5 c 128,-1,3
 485 187 485 187 508 180.5 c 128,-1,4
 531 174 531 174 567 174 c 128,-1,5
 603 174 603 174 632.5 179.5 c 128,-1,6
 662 185 662 185 688 194 c 128,-1,7
 714 203 714 203 738 214 c 2,8,-1
 787 235 l 1,9,10
 804 241 804 241 825 200 c 0,11,12
 831 189 831 189 831 174.5 c 128,-1,13
 831 160 831 160 819 137 c 128,-1,14
 807 114 807 114 772.5 84.5 c 128,-1,15
 738 55 738 55 692 32 c 0,16,17
 592 -19 592 -19 512.5 -19 c 128,-1,18
 433 -19 433 -19 383 -10 c 128,-1,19
 333 -1 333 -1 298 26 c 0,20,21
 226 82 226 82 226 231 c 2,22,-1
 226 1018 l 1,23,-1
 127 1018 l 2,24,25
 96 1018 96 1018 82 1038 c 1,26,27
 58 1069 58 1069 58 1090 c 0,28,29
 58 1125 58 1125 75 1129 c 1,30,31
 234 1156 234 1156 300 1365 c 0,32,33
 319 1428 319 1428 330 1514 c 1,34,35
 378 1522 378 1522 402.5 1522 c 128,-1,36
 427 1522 427 1522 445 1497 c 128,-1,37
 463 1472 463 1472 462.5 1439 c 128,-1,38
 462 1406 462 1406 461 1377 c 128,-1,39
 460 1348 460 1348 459 1314 c 2,40,-1
 455 1174 l 1,41,-1
 801 1174 l 1,42,43
 814 1151 814 1151 814 1125 c 2,44,-1
 814 1094 l 2,45,46
 814 1052 814 1052 769 1025.5 c 128,-1,47
 724 999 724 999 669.5 999 c 128,-1,48
 615 999 615 999 591.5 1000.5 c 128,-1,49
 568 1002 568 1002 546 1004 c 2,50,-1
 502 1010 l 1,51,52
 479 1012 479 1012 453 1014 c 1,53,-1
 453 1003 l 1,54,-1
 452 682 l 1,0,-1
EndSplineSet
EndChar

StartChar: u
Encoding: 117 117 107
Width: 1370
GlyphClass: 2
Flags: W
LayerCount: 2
Fore
SplineSet
193 890 m 2,0,1
 193 947 193 947 184.5 981.5 c 128,-1,2
 176 1016 176 1016 150 1016 c 0,3,4
 131 1016 131 1016 120 1012 c 2,5,-1
 96 1002 l 2,6,7
 89 1000 89 1000 79 1010 c 0,8,9
 60 1031 60 1031 60 1048.5 c 128,-1,10
 60 1066 60 1066 71.5 1085.5 c 128,-1,11
 83 1105 83 1105 106.5 1130 c 128,-1,12
 130 1155 130 1155 160 1174 c 0,13,14
 228 1219 228 1219 283 1219 c 128,-1,15
 338 1219 338 1219 361 1200 c 128,-1,16
 384 1181 384 1181 396 1150 c 0,17,18
 416 1100 416 1100 416 999 c 2,19,-1
 416 373 l 2,20,21
 416 204 416 204 518 184 c 0,22,23
 549 178 549 178 591.5 178 c 128,-1,24
 634 178 634 178 682.5 189 c 128,-1,25
 731 200 731 200 775 218 c 0,26,27
 860 253 860 253 925 307 c 1,28,-1
 925 890 l 2,29,30
 925 985 925 985 891 1007 c 0,31,32
 877 1016 877 1016 854 1016 c 256,33,34
 831 1016 831 1016 817.5 1009 c 128,-1,35
 804 1002 804 1002 795.5 999 c 128,-1,36
 787 996 787 996 781 999.5 c 128,-1,37
 775 1003 775 1003 768 1010 c 0,38,39
 753 1027 753 1027 753 1044 c 128,-1,40
 753 1061 753 1061 765.5 1080.5 c 128,-1,41
 778 1100 778 1100 806 1125.5 c 128,-1,42
 834 1151 834 1151 870 1172 c 0,43,44
 951 1219 951 1219 1032 1219 c 0,45,46
 1130 1219 1130 1219 1144 1080 c 0,47,48
 1148 1041 1148 1041 1148 999 c 2,49,-1
 1148 407 l 2,50,51
 1148 253 1148 253 1160 215 c 128,-1,52
 1172 177 1172 177 1189 165.5 c 128,-1,53
 1206 154 1206 154 1231 154 c 128,-1,54
 1256 154 1256 154 1272 162 c 2,55,-1
 1302 175 l 1,56,57
 1315 178 1315 178 1325 163 c 0,58,59
 1346 132 1346 132 1331 107 c 128,-1,60
 1316 82 1316 82 1284.5 59 c 128,-1,61
 1253 36 1253 36 1214 19 c 0,62,63
 1041 -57 1041 -57 968 22 c 0,64,65
 930 63 930 63 925 152 c 1,66,67
 778 39 778 39 624 -4 c 0,68,69
 568 -19 568 -19 506.5 -19 c 128,-1,70
 445 -19 445 -19 386.5 -2 c 128,-1,71
 328 15 328 15 285 53 c 0,72,73
 193 134 193 134 193 303 c 2,74,-1
 193 890 l 2,0,1
EndSplineSet
EndChar

StartChar: v
Encoding: 118 118 108
Width: 1231
GlyphClass: 2
Flags: W
LayerCount: 2
Fore
SplineSet
477 49 m 0,0,1
 143 921 143 921 133 949.5 c 128,-1,2
 123 978 123 978 112 1002 c 0,3,4
 87 1058 87 1058 67 1058 c 0,5,6
 54 1058 54 1058 38 1055 c 128,-1,7
 22 1052 22 1052 12 1066 c 128,-1,8
 2 1080 2 1080 2 1101 c 128,-1,9
 2 1122 2 1122 21.5 1144 c 128,-1,10
 41 1166 41 1166 70 1182 c 0,11,12
 133 1219 133 1219 170 1219 c 128,-1,13
 207 1219 207 1219 229 1217 c 128,-1,14
 251 1215 251 1215 270 1202 c 0,15,16
 310 1176 310 1176 337 1090 c 1,17,-1
 630 216 l 1,18,19
 700 357 700 357 734 432 c 1,20,-1
 796 578 l 1,21,22
 908 854 908 854 908 966 c 2,23,-1
 908 979 l 2,24,25
 908 1029 908 1029 885.5 1058 c 128,-1,26
 863 1087 863 1087 806 1093 c 1,27,28
 796 1109 796 1109 796 1126.5 c 128,-1,29
 796 1144 796 1144 815.5 1161.5 c 128,-1,30
 835 1179 835 1179 865 1192 c 0,31,32
 927 1219 927 1219 1000.5 1219 c 128,-1,33
 1074 1219 1074 1219 1114.5 1196.5 c 128,-1,34
 1155 1174 1155 1174 1155 1108 c 0,35,36
 1155 968 1155 968 965 551 c 1,37,-1
 874 360 l 1,38,39
 780 170 780 170 732 102 c 0,40,41
 646 -19 646 -19 581 -19 c 0,42,43
 534 -19 534 -19 497 18 c 0,44,45
 484 31 484 31 477 49 c 0,0,1
EndSplineSet
EndChar

StartChar: w
Encoding: 119 119 109
Width: 1869
GlyphClass: 2
Flags: W
LayerCount: 2
Fore
SplineSet
446 49 m 2,0,-1
 125 956 l 2,1,2
 89 1058 89 1058 62 1058 c 0,3,4
 50 1058 50 1058 34 1055 c 128,-1,5
 18 1052 18 1052 8 1066 c 128,-1,6
 -2 1080 -2 1080 -2 1101 c 128,-1,7
 -2 1122 -2 1122 15 1144 c 128,-1,8
 32 1166 32 1166 58 1182 c 0,9,10
 116 1219 116 1219 159.5 1219 c 128,-1,11
 203 1219 203 1219 224 1217 c 128,-1,12
 245 1215 245 1215 264 1203 c 0,13,14
 302 1178 302 1178 328 1090 c 2,15,-1
 585 220 l 1,16,17
 680 500 680 500 708 590 c 1,18,19
 807 924 807 924 840 1084 c 0,20,21
 847 1120 847 1120 906 1145 c 0,22,23
 952 1164 952 1164 984 1164 c 128,-1,24
 1016 1164 1016 1164 1026.5 1159.5 c 128,-1,25
 1037 1155 1037 1155 1042 1143 c 0,26,27
 1054 1119 1054 1119 1060 1085 c 1,28,-1
 1326 213 l 1,29,30
 1401 396 1401 396 1428 470 c 2,31,-1
 1480 616 l 1,32,33
 1563 855 1563 855 1563 989 c 0,34,35
 1563 1084 1563 1084 1471 1095 c 1,36,37
 1461 1111 1461 1111 1461 1128.5 c 128,-1,38
 1461 1146 1461 1146 1478 1163.5 c 128,-1,39
 1495 1181 1495 1181 1522 1194 c 0,40,41
 1576 1219 1576 1219 1631.5 1219 c 128,-1,42
 1687 1219 1687 1219 1717 1213 c 128,-1,43
 1747 1207 1747 1207 1765 1192 c 0,44,45
 1799 1162 1799 1162 1799 1102.5 c 128,-1,46
 1799 1043 1799 1043 1786 982.5 c 128,-1,47
 1773 922 1773 922 1751 850 c 128,-1,48
 1729 778 1729 778 1700 699 c 0,49,50
 1591 409 1591 409 1541 301 c 1,51,-1
 1468 149 l 2,52,53
 1446 105 1446 105 1434 85 c 2,54,-1
 1409 46 l 2,55,56
 1367 -19 1367 -19 1310 -19 c 0,57,58
 1248 -19 1248 -19 1208 14 c 0,59,60
 1192 28 1192 28 1185 49 c 2,61,-1
 937 765 l 1,62,63
 837 452 837 452 810 373 c 1,64,65
 728 143 728 143 711 108.5 c 128,-1,66
 694 74 694 74 681 52.5 c 128,-1,67
 668 31 668 31 652 16 c 0,68,69
 616 -19 616 -19 573 -19 c 0,70,71
 513 -19 513 -19 470 16 c 0,72,73
 454 29 454 29 446 49 c 2,0,-1
EndSplineSet
EndChar

StartChar: x
Encoding: 120 120 110
Width: 1247
GlyphClass: 2
Flags: W
LayerCount: 2
Fore
SplineSet
93 94 m 0,0,1
 93 131 93 131 127 186.5 c 128,-1,2
 161 242 161 242 218.5 309.5 c 128,-1,3
 276 377 276 377 354 455 c 2,4,-1
 518 622 l 1,5,-1
 313 922 l 1,6,7
 239 1033 239 1033 175 1033 c 0,8,9
 148 1033 148 1033 128.5 1024.5 c 128,-1,10
 109 1016 109 1016 97.5 1016 c 128,-1,11
 86 1016 86 1016 79 1021 c 128,-1,12
 72 1026 72 1026 67 1034 c 0,13,14
 47 1064 47 1064 72.5 1101 c 128,-1,15
 98 1138 98 1138 128 1162 c 0,16,17
 201 1219 201 1219 290 1219 c 0,18,19
 349 1219 349 1219 377 1202 c 0,20,21
 427 1173 427 1173 465 1104 c 2,22,-1
 677 709 l 1,23,24
 810 845 810 845 878 962 c 1,25,26
 901 1007 901 1007 901 1038 c 0,27,28
 901 1091 901 1091 799 1103 c 1,29,30
 790 1118 790 1118 790 1135 c 128,-1,31
 790 1152 790 1152 809.5 1168.5 c 128,-1,32
 829 1185 829 1185 858 1196 c 0,33,34
 916 1219 916 1219 988 1219 c 128,-1,35
 1060 1219 1060 1219 1102.5 1186.5 c 128,-1,36
 1145 1154 1145 1154 1145 1113.5 c 128,-1,37
 1145 1073 1145 1073 1127 1033 c 128,-1,38
 1109 993 1109 993 1078 948 c 128,-1,39
 1047 903 1047 903 1007 855 c 128,-1,40
 967 807 967 807 923 760 c 1,41,42
 804 637 804 637 750 589 c 1,43,-1
 963 282 l 2,44,45
 1003 226 1003 226 1035.5 191.5 c 128,-1,46
 1068 157 1068 157 1100 157 c 128,-1,47
 1132 157 1132 157 1152 165 c 0,48,49
 1196 183 1196 183 1208 166 c 0,50,51
 1229 135 1229 135 1207 97.5 c 128,-1,52
 1185 60 1185 60 1158 36 c 0,53,54
 1094 -19 1094 -19 1019 -19 c 0,55,56
 870 -19 870 -19 807 108 c 1,57,-1
 589 500 l 1,58,59
 414 313 414 313 368 194 c 0,60,61
 359 173 359 173 359 150.5 c 128,-1,62
 359 128 359 128 388.5 112.5 c 128,-1,63
 418 97 418 97 461 92 c 1,64,65
 471 82 471 82 471 62 c 128,-1,66
 471 42 471 42 453 27 c 128,-1,67
 435 12 435 12 407 2 c 0,68,69
 317 -30 317 -30 214 -14 c 0,70,71
 93 5 93 5 93 94 c 0,0,1
EndSplineSet
EndChar

StartChar: y
Encoding: 121 121 111
Width: 1203
GlyphClass: 2
Flags: W
LayerCount: 2
Fore
SplineSet
60 1058 m 1,0,-1
 39 1054 l 1,1,2
 17 1054 17 1054 8 1084 c 0,3,4
 5 1092 5 1092 5 1107 c 128,-1,5
 5 1122 5 1122 22 1144 c 128,-1,6
 39 1166 39 1166 66 1182 c 0,7,8
 126 1219 126 1219 193 1219 c 0,9,10
 246 1219 246 1219 269 1204 c 0,11,12
 314 1176 314 1176 339 1090 c 1,13,-1
 644 205 l 1,14,15
 738 414 738 414 773 501 c 2,16,-1
 834 656 l 1,17,18
 919 884 919 884 919 953.5 c 128,-1,19
 919 1023 919 1023 895 1055 c 128,-1,20
 871 1087 871 1087 812 1093 c 1,21,22
 801 1105 801 1105 801 1125.5 c 128,-1,23
 801 1146 801 1146 819.5 1163.5 c 128,-1,24
 838 1181 838 1181 868 1194 c 0,25,26
 929 1219 929 1219 993.5 1219 c 128,-1,27
 1058 1219 1058 1219 1085 1212.5 c 128,-1,28
 1112 1206 1112 1206 1128 1191 c 0,29,30
 1159 1163 1159 1163 1159 1087 c 0,31,32
 1159 1019 1159 1019 1052 728 c 1,33,34
 952 468 952 468 902 351 c 1,35,36
 718 -59 718 -59 625 -223 c 128,-1,37
 532 -387 532 -387 449 -450.5 c 128,-1,38
 366 -514 366 -514 274 -514 c 128,-1,39
 182 -514 182 -514 135 -474.5 c 128,-1,40
 88 -435 88 -435 88 -366 c 0,41,42
 88 -314 88 -314 114 -288 c 0,43,44
 163 -239 163 -239 218 -250 c 1,45,46
 227 -325 227 -325 308 -325 c 0,47,48
 381 -325 381 -325 439 -230 c 0,49,50
 466 -185 466 -185 492 -125 c 2,51,-1
 550 4 l 1,52,-1
 570 45 l 1,53,54
 512 53 512 53 472 102 c 0,55,56
 456 121 456 121 446 150 c 2,57,-1
 166 885 l 1,58,-1
 142 944 l 2,59,60
 96 1058 96 1058 60 1058 c 1,0,-1
EndSplineSet
EndChar

StartChar: z
Encoding: 122 122 112
Width: 1173
GlyphClass: 2
Flags: W
LayerCount: 2
Fore
SplineSet
939 345 m 1,0,1
 941 367 941 367 999 367 c 0,2,3
 1026 367 1026 367 1034 356.5 c 128,-1,4
 1042 346 1042 346 1052 322.5 c 128,-1,5
 1062 299 1062 299 1070 268 c 0,6,7
 1088 198 1088 198 1088 130 c 128,-1,8
 1088 62 1088 62 1053 31 c 128,-1,9
 1018 0 1018 0 939 0 c 2,10,-1
 244 0 l 2,11,12
 180 0 180 0 145 53 c 1,13,14
 112 86 112 86 112 142 c 0,15,16
 112 173 112 173 125 186 c 1,17,18
 515 664 515 664 593 767 c 128,-1,19
 671 870 671 870 712 932 c 128,-1,20
 753 994 753 994 772 1018 c 2,21,-1
 811 1068 l 1,22,-1
 486 1057 l 2,23,24
 397 1053 397 1053 353 1016 c 128,-1,25
 309 979 309 979 310 893 c 1,26,27
 308 872 308 872 256 872 c 0,28,29
 229 872 229 872 221 882.5 c 128,-1,30
 213 893 213 893 201.5 910.5 c 128,-1,31
 190 928 190 928 180 952 c 0,32,33
 157 1006 157 1006 157 1072 c 128,-1,34
 157 1138 157 1138 189.5 1169 c 128,-1,35
 222 1200 222 1200 301 1200 c 2,36,-1
 986 1200 l 2,37,38
 1032 1200 1032 1200 1054 1104 c 0,39,40
 1060 1080 1060 1080 1060 1063 c 128,-1,41
 1060 1046 1060 1046 1052 1035 c 2,42,-1
 895 826 l 1,43,-1
 570 410 l 2,44,45
 490 307 490 307 448.5 247 c 128,-1,46
 407 187 407 187 392 168 c 2,47,-1
 363 131 l 1,48,-1
 763 146 l 1,49,50
 853 151 853 151 896.5 205.5 c 128,-1,51
 940 260 940 260 939 345 c 1,0,1
EndSplineSet
EndChar

StartChar: braceleft
Encoding: 123 123 113
Width: 1026
GlyphClass: 2
Flags: W
LayerCount: 2
Fore
SplineSet
346 -164.5 m 128,-1,1
 320 -98 320 -98 320 -26.5 c 128,-1,2
 320 45 320 45 327 104 c 128,-1,3
 334 163 334 163 343 220 c 0,4,5
 366 364 366 364 366 421.5 c 128,-1,6
 366 479 366 479 352.5 513.5 c 128,-1,7
 339 548 339 548 316.5 574.5 c 128,-1,8
 294 601 294 601 266 621 c 128,-1,9
 238 641 238 641 209 654 c 0,10,11
 157 679 157 679 105 689 c 1,12,13
 97 701 97 701 97 738 c 0,14,15
 97 776 97 776 105 788 c 1,16,17
 265 820 265 820 336 930 c 0,18,19
 366 976 366 976 366 1034.5 c 128,-1,20
 366 1093 366 1093 359 1147 c 128,-1,21
 352 1201 352 1201 343 1258 c 0,22,23
 320 1402 320 1402 320 1488 c 128,-1,24
 320 1574 320 1574 346 1640.5 c 128,-1,25
 372 1707 372 1707 415.5 1759 c 128,-1,26
 459 1811 459 1811 514 1848.5 c 128,-1,27
 569 1886 569 1886 628 1910 c 0,28,29
 741 1958 741 1958 844 1958 c 0,30,31
 891 1958 891 1958 914 1920 c 0,32,33
 933 1889 933 1889 928 1859 c 1,34,35
 764 1859 764 1859 664 1763 c 1,36,37
 556 1661 556 1661 556 1479 c 0,38,39
 556 1398 556 1398 573 1295 c 0,40,41
 605 1101 605 1101 605 1044 c 128,-1,42
 605 987 605 987 576.5 934 c 128,-1,43
 548 881 548 881 504 843 c 0,44,45
 428 776 428 776 313 741 c 1,46,-1
 313 735 l 1,47,48
 503 677 503 677 576 541 c 0,49,50
 605 488 605 488 605 436 c 128,-1,51
 605 384 605 384 597.5 334 c 128,-1,52
 590 284 590 284 580 227 c 0,53,54
 556 80 556 80 556 -8 c 128,-1,55
 556 -96 556 -96 584.5 -167 c 128,-1,56
 613 -238 613 -238 664 -286 c 0,57,58
 766 -383 766 -383 928 -383 c 1,59,60
 933 -412 933 -412 919 -435 c 0,61,62
 891 -482 891 -482 845 -482 c 128,-1,63
 799 -482 799 -482 742.5 -470.5 c 128,-1,64
 686 -459 686 -459 627.5 -434.5 c 128,-1,65
 569 -410 569 -410 514 -372.5 c 128,-1,66
 459 -335 459 -335 415.5 -283 c 128,-1,0
 372 -231 372 -231 346 -164.5 c 128,-1,1
EndSplineSet
EndChar

StartChar: bar
Encoding: 124 124 114
Width: 825
GlyphClass: 2
Flags: W
LayerCount: 2
Fore
SplineSet
318 1860 m 1,0,1
 340 1873 340 1873 374.5 1873 c 128,-1,2
 409 1873 409 1873 430 1869.5 c 128,-1,3
 451 1866 451 1866 468 1858 c 0,4,5
 506 1842 506 1842 506 1814 c 2,6,-1
 506 -210 l 1,7,8
 476 -221 476 -221 446 -221 c 128,-1,9
 416 -221 416 -221 394.5 -217.5 c 128,-1,10
 373 -214 373 -214 356 -206 c 0,11,12
 318 -190 318 -190 318 -165 c 2,13,-1
 318 1860 l 1,0,1
EndSplineSet
EndChar

StartChar: asciitilde
Encoding: 126 126 116
Width: 1192
GlyphClass: 2
Flags: W
LayerCount: 2
Fore
SplineSet
378 1029 m 0,0,1
 264 1029 264 1029 183 902 c 1,2,3
 122 919 122 919 122 977 c 0,4,5
 122 1038 122 1038 212 1130 c 0,6,7
 312 1231 312 1231 426 1231 c 0,8,9
 493 1231 493 1231 542 1204.5 c 128,-1,10
 591 1178 591 1178 619.5 1159.5 c 128,-1,11
 648 1141 648 1141 678 1125 c 0,12,13
 749 1088 749 1088 820 1088 c 0,14,15
 921 1088 921 1088 1009 1217 c 1,16,17
 1047 1217 1047 1217 1065 1168 c 0,18,19
 1070 1155 1070 1155 1070 1133 c 128,-1,20
 1070 1111 1070 1111 1044 1068 c 128,-1,21
 1018 1025 1018 1025 976 985 c 0,22,23
 874 889 874 889 766 889 c 0,24,25
 699 889 699 889 649.5 915 c 128,-1,26
 600 941 600 941 572 959 c 128,-1,27
 544 977 544 977 514 992 c 0,28,29
 443 1029 443 1029 378 1029 c 0,0,1
EndSplineSet
EndChar

StartChar: cent
Encoding: 162 162 119
Width: 1164
GlyphClass: 2
Flags: W
LayerCount: 2
Fore
SplineSet
865 854 m 1,0,-1
 866 886 l 1,1,2
 866 977 866 977 814 1015 c 0,3,4
 778 1041 778 1041 727 1052 c 1,5,-1
 680 169 l 1,6,7
 686 168 686 168 692 168 c 2,8,-1
 703 168 l 2,9,10
 842 168 842 168 970 244 c 0,11,12
 1002 262 1002 262 1019 276 c 1,13,14
 1039 276 1039 276 1061 234 c 0,15,16
 1067 222 1067 222 1067 206 c 128,-1,17
 1067 190 1067 190 1037 153 c 128,-1,18
 1007 116 1007 116 954 79 c 0,19,20
 823 -13 823 -13 670 -18 c 1,21,-1
 663 -159 l 1,22,23
 641 -167 641 -167 621 -167 c 128,-1,24
 601 -167 601 -167 583.5 -161.5 c 128,-1,25
 566 -156 566 -156 552 -146 c 0,26,27
 523 -124 523 -124 523 -95 c 1,28,-1
 527 -7 l 1,29,30
 338 30 338 30 228 173 c 0,31,32
 114 322 114 322 114 555 c 0,33,34
 114 819 114 819 259 999 c 0,35,36
 388 1159 388 1159 591 1205 c 1,37,-1
 600 1368 l 1,38,39
 618 1377 618 1377 638.5 1377 c 128,-1,40
 659 1377 659 1377 676.5 1371.5 c 128,-1,41
 694 1366 694 1366 708 1356 c 0,42,43
 740 1335 740 1335 740 1302 c 1,44,-1
 735 1219 l 1,45,46
 875 1215 875 1215 967 1152 c 1,47,48
 1064 1087 1064 1087 1064 982 c 0,49,50
 1064 922 1064 922 1038 892 c 0,51,52
 993 840 993 840 940.5 840 c 128,-1,53
 888 840 888 840 865 854 c 1,0,-1
583 1047 m 1,54,55
 461 1015 461 1015 399 886 c 0,56,57
 344 772 344 772 344 618 c 0,58,59
 344 315 344 315 539 208 c 1,60,-1
 583 1047 l 1,54,55
EndSplineSet
EndChar

StartChar: sterling
Encoding: 163 163 120
Width: 1650
GlyphClass: 2
Flags: W
LayerCount: 2
Fore
SplineSet
1135 182 m 0,0,1
 1286 182 1286 182 1364 294 c 1,2,3
 1437 287 1437 287 1456 253 c 1,4,5
 1460 233 1460 233 1460 203 c 128,-1,6
 1460 173 1460 173 1445 132 c 128,-1,7
 1430 91 1430 91 1394 58 c 0,8,9
 1313 -19 1313 -19 1155 -19 c 0,10,11
 1009 -19 1009 -19 812 46 c 0,12,13
 739 71 739 71 669 91.5 c 128,-1,14
 599 112 599 112 542 112 c 128,-1,15
 485 112 485 112 456 108.5 c 128,-1,16
 427 105 427 105 402.5 97.5 c 128,-1,17
 378 90 378 90 355.5 79 c 128,-1,18
 333 68 333 68 306 54 c 1,19,-1
 248 20 l 1,20,21
 215 2 215 2 172 -19 c 1,22,23
 153 -8 153 -8 138.5 17.5 c 128,-1,24
 124 43 124 43 124 65.5 c 128,-1,25
 124 88 124 88 128 100 c 1,26,-1
 169 140 l 2,27,28
 249 217 249 217 367 248 c 1,29,30
 485 393 485 393 485 608 c 0,31,32
 485 634 485 634 482 663 c 1,33,-1
 252 663 l 1,34,35
 244 685 244 685 244 706 c 128,-1,36
 244 727 244 727 249.5 746 c 128,-1,37
 255 765 255 765 265 780 c 0,38,39
 287 812 287 812 316 812 c 2,40,-1
 457 812 l 1,41,42
 429 949 429 949 429 1032 c 128,-1,43
 429 1115 429 1115 453 1188 c 128,-1,44
 477 1261 477 1261 517.5 1319 c 128,-1,45
 558 1377 558 1377 612 1421 c 128,-1,46
 666 1465 666 1465 726 1494 c 0,47,48
 844 1552 844 1552 968 1552 c 0,49,50
 1197 1552 1197 1552 1284 1436 c 1,51,52
 1316 1395 1316 1395 1316 1346.5 c 128,-1,53
 1316 1298 1316 1298 1304 1266 c 128,-1,54
 1292 1234 1292 1234 1274 1208 c 0,55,56
 1239 1159 1239 1159 1195 1135 c 1,57,58
 1158 1132 1158 1132 1135 1155 c 1,59,60
 1136 1163 1136 1163 1136 1170 c 2,61,-1
 1136 1183 l 2,62,63
 1136 1281 1136 1281 1074 1336 c 1,64,65
 1015 1386 1015 1386 915 1386 c 0,66,67
 796 1386 796 1386 733 1323 c 0,68,69
 654 1244 654 1244 654 1062 c 0,70,71
 654 1012 654 1012 669 949.5 c 128,-1,72
 684 887 684 887 695 812 c 1,73,-1
 1047 812 l 1,74,75
 1056 794 1056 794 1056 773 c 128,-1,76
 1056 752 1056 752 1050.5 733 c 128,-1,77
 1045 714 1045 714 1036 698 c 0,78,79
 1014 663 1014 663 981 663 c 2,80,-1
 706 663 l 1,81,82
 702 417 702 417 563 274 c 1,83,84
 577 275 577 275 592 275 c 2,85,-1
 625 275 l 2,86,87
 704 275 704 275 824 243 c 128,-1,88
 944 211 944 211 1009 196.5 c 128,-1,89
 1074 182 1074 182 1135 182 c 0,0,1
EndSplineSet
EndChar

StartChar: currency
Encoding: 164 164 121
Width: 1320
GlyphClass: 2
Flags: W
LayerCount: 2
Fore
SplineSet
927 306 m 1,0,1
 806 225 806 225 660.5 225 c 128,-1,2
 515 225 515 225 392 308 c 1,3,-1
 174 82 l 1,4,5
 89 116 89 116 46 212 c 1,6,-1
 272 428 l 1,7,8
 187 548 187 548 187 700 c 128,-1,9
 187 852 187 852 274 974 c 1,10,-1
 49 1195 l 1,11,12
 93 1271 93 1271 176 1323 c 1,13,-1
 396 1092 l 1,14,15
 516 1174 516 1174 661 1174 c 0,16,17
 804 1174 804 1174 927 1092 c 1,18,-1
 1148 1323 l 1,19,20
 1209 1301 1209 1301 1257 1231 c 0,21,22
 1270 1212 1270 1212 1277 1195 c 1,23,-1
 1049 973 l 1,24,25
 1136 853 1136 853 1136 699.5 c 128,-1,26
 1136 546 1136 546 1048 424 c 1,27,-1
 1275 203 l 1,28,29
 1232 128 1232 128 1148 75 c 1,30,-1
 927 306 l 1,0,1
660 395 m 0,31,32
 722 395 722 395 776.5 419 c 128,-1,33
 831 443 831 443 872 484 c 0,34,35
 959 574 959 574 959 699 c 256,36,37
 959 824 959 824 871.5 913.5 c 128,-1,38
 784 1003 784 1003 661 1003 c 0,39,40
 537 1003 537 1003 451 914 c 0,41,42
 364 823 364 823 364 699 c 256,43,44
 364 575 364 575 451 484 c 0,45,46
 537 395 537 395 660 395 c 0,31,32
EndSplineSet
EndChar

StartChar: yen
Encoding: 165 165 122
Width: 1647
GlyphClass: 2
Flags: W
LayerCount: 2
Fore
SplineSet
643 122 m 0,0,1
 753 122 753 122 753 226 c 2,2,-1
 753 356 l 1,3,-1
 378 353 l 1,4,5
 370 375 370 375 370 396 c 128,-1,6
 370 417 370 417 375.5 436 c 128,-1,7
 381 455 381 455 391 470 c 0,8,9
 413 502 413 502 442 502 c 2,10,-1
 753 499 l 1,11,-1
 753 674 l 1,12,-1
 386 671 l 1,13,14
 378 693 378 693 378 714 c 128,-1,15
 378 735 378 735 383.5 754 c 128,-1,16
 389 773 389 773 399 788 c 0,17,18
 421 821 421 821 450 821 c 2,19,-1
 715 818 l 1,20,-1
 303 1309 l 2,21,22
 236 1388 236 1388 195 1403 c 128,-1,23
 154 1418 154 1418 132 1434 c 128,-1,24
 110 1450 110 1450 110 1478 c 0,25,26
 110 1520 110 1520 126 1540 c 1,27,28
 149 1532 149 1532 225 1532 c 2,29,-1
 605 1532 l 2,30,31
 672 1532 672 1532 696 1523 c 0,32,33
 743 1505 743 1505 743 1455 c 0,34,35
 743 1425 743 1425 724 1404 c 1,36,37
 688 1414 688 1414 659.5 1414 c 128,-1,38
 631 1414 631 1414 617.5 1410 c 128,-1,39
 604 1406 604 1406 592 1397 c 0,40,41
 562 1376 562 1376 562 1347 c 0,42,43
 562 1304 562 1304 616 1238 c 1,44,-1
 890 889 l 1,45,46
 1001 1012 1001 1012 1054 1076 c 1,47,48
 1228 1293 1228 1293 1231.5 1310.5 c 128,-1,49
 1235 1328 1235 1328 1235 1349 c 0,50,51
 1235 1388 1235 1388 1158 1406 c 2,52,-1
 1104 1418 l 2,53,54
 1056 1428 1056 1428 1045 1448.5 c 128,-1,55
 1034 1469 1034 1469 1034 1496.5 c 128,-1,56
 1034 1524 1034 1524 1050 1540 c 1,57,58
 1073 1532 1073 1532 1139 1532 c 2,59,-1
 1485 1532 l 2,60,61
 1554 1532 1554 1532 1578 1523 c 0,62,63
 1628 1505 1628 1505 1628 1454 c 0,64,65
 1628 1425 1628 1425 1609 1404 c 1,66,67
 1578 1413 1578 1413 1555 1413 c 128,-1,68
 1532 1413 1532 1413 1503.5 1387.5 c 128,-1,69
 1475 1362 1475 1362 1444 1325 c 1,70,-1
 1383 1248 l 1,71,72
 1352 1207 1352 1207 1324 1174 c 2,73,-1
 1024 817 l 1,74,-1
 1358 821 l 1,75,76
 1367 803 1367 803 1367 781.5 c 128,-1,77
 1367 760 1367 760 1361.5 741 c 128,-1,78
 1356 722 1356 722 1346 706 c 0,79,80
 1325 671 1325 671 1292 671 c 2,81,-1
 986 674 l 1,82,-1
 986 499 l 1,83,-1
 1350 502 l 1,84,85
 1359 484 1359 484 1359 463 c 128,-1,86
 1359 442 1359 442 1353.5 423 c 128,-1,87
 1348 404 1348 404 1338 388 c 0,88,89
 1317 353 1317 353 1284 353 c 2,90,-1
 986 356 l 1,91,-1
 986 226 l 2,92,93
 986 163 986 163 1044 142 c 0,94,95
 1070 132 1070 132 1099 127.5 c 128,-1,96
 1128 123 1128 123 1154 116 c 1,97,98
 1212 98 1212 98 1212 50 c 0,99,100
 1212 15 1212 15 1197 -8 c 1,101,102
 1174 0 1174 0 1098 0 c 2,103,-1
 678 0 l 2,104,105
 580 0 580 0 555 37 c 0,106,107
 544 53 544 53 544 72 c 0,108,109
 544 112 544 112 560 132 c 1,110,111
 594 122 594 122 643 122 c 0,0,1
EndSplineSet
EndChar

StartChar: brokenbar
Encoding: 166 166 123
Width: 825
GlyphClass: 2
Flags: W
LayerCount: 2
Fore
SplineSet
318 1860 m 1,0,1
 340 1873 340 1873 374.5 1873 c 128,-1,2
 409 1873 409 1873 430 1869.5 c 128,-1,3
 451 1866 451 1866 468 1858 c 0,4,5
 506 1842 506 1842 506 1814 c 2,6,-1
 506 953 l 1,7,8
 477 941 477 941 446 941 c 128,-1,9
 415 941 415 941 394 944.5 c 128,-1,10
 373 948 373 948 356 956 c 0,11,12
 318 972 318 972 318 997 c 2,13,-1
 318 1860 l 1,0,1
318 695 m 1,14,15
 340 708 340 708 374.5 708 c 128,-1,16
 409 708 409 708 430 704.5 c 128,-1,17
 451 701 451 701 468 694 c 0,18,19
 506 677 506 677 506 649 c 2,20,-1
 506 -210 l 1,21,22
 476 -221 476 -221 446 -221 c 128,-1,23
 416 -221 416 -221 394.5 -217.5 c 128,-1,24
 373 -214 373 -214 356 -206 c 0,25,26
 318 -190 318 -190 318 -165 c 2,27,-1
 318 695 l 1,14,15
EndSplineSet
EndChar

StartChar: section
Encoding: 167 167 124
Width: 1486
GlyphClass: 2
Flags: W
LayerCount: 2
Fore
SplineSet
1050 1450 m 0,0,1
 1050 1762 1050 1762 748 1762 c 0,2,3
 615 1762 615 1762 535 1698 c 0,4,5
 459 1638 459 1638 459 1547 c 0,6,7
 459 1404 459 1404 687 1283 c 1,8,9
 841 1197 841 1197 898.5 1167.5 c 128,-1,10
 956 1138 956 1138 1007 1107.5 c 128,-1,11
 1058 1077 1058 1077 1105 1040 c 128,-1,12
 1152 1003 1152 1003 1188 958 c 1,13,14
 1268 862 1268 862 1268 739 c 0,15,16
 1268 523 1268 523 1086 416 c 0,17,18
 1030 384 1030 384 965 364 c 1,19,20
 1101 288 1101 288 1158.5 223 c 128,-1,21
 1216 158 1216 158 1242 98.5 c 128,-1,22
 1268 39 1268 39 1268 -53 c 128,-1,23
 1268 -145 1268 -145 1222 -222.5 c 128,-1,24
 1176 -300 1176 -300 1100 -350 c 1,25,26
 952 -445 952 -445 718 -445 c 0,27,28
 419 -445 419 -445 284 -330 c 1,29,30
 200 -260 200 -260 200 -151 c 0,31,32
 200 -47 200 -47 256 37 c 1,33,34
 271 56 271 56 303 56 c 0,35,36
 369 56 369 56 377 22 c 1,37,38
 383 -42 383 -42 394 -93 c 128,-1,39
 405 -144 405 -144 434.5 -184.5 c 128,-1,40
 464 -225 464 -225 509 -254 c 0,41,42
 602 -314 602 -314 744 -314 c 0,43,44
 940 -314 940 -314 1008 -182 c 0,45,46
 1032 -137 1032 -137 1032 -76.5 c 128,-1,47
 1032 -16 1032 -16 998 30.5 c 128,-1,48
 964 77 964 77 908.5 116.5 c 128,-1,49
 853 156 853 156 782 191 c 2,50,-1
 640 263 l 1,51,52
 469 344 469 344 390 417.5 c 128,-1,53
 311 491 311 491 270.5 564.5 c 128,-1,54
 230 638 230 638 230 718.5 c 128,-1,55
 230 799 230 799 251.5 855 c 128,-1,56
 273 911 273 911 313 956 c 0,57,58
 392 1043 392 1043 533 1084 c 1,59,60
 230 1263 230 1263 230 1506 c 0,61,62
 230 1690 230 1690 386 1794 c 0,63,64
 533 1891 533 1891 775 1891 c 0,65,66
 1083 1891 1083 1891 1178 1752 c 0,67,68
 1213 1701 1213 1701 1213 1646.5 c 128,-1,69
 1213 1592 1213 1592 1206.5 1562.5 c 128,-1,70
 1200 1533 1200 1533 1190 1510 c 0,71,72
 1172 1464 1172 1464 1158 1449 c 0,73,74
 1135 1424 1135 1424 1092.5 1424 c 128,-1,75
 1050 1424 1050 1424 1050 1450 c 0,0,1
476 850 m 0,76,77
 459 812 459 812 459 762 c 128,-1,78
 459 712 459 712 491.5 667 c 128,-1,79
 524 622 524 622 574.5 585 c 128,-1,80
 625 548 625 548 687 516 c 1,81,-1
 809 450 l 1,82,-1
 814 447 l 1,83,84
 965 480 965 480 1015 606 c 0,85,86
 1032 649 1032 649 1032 700.5 c 128,-1,87
 1032 752 1032 752 1004.5 793 c 128,-1,88
 977 834 977 834 930.5 869.5 c 128,-1,89
 884 905 884 905 824 936 c 2,90,-1
 700 998 l 1,91,92
 532 977 532 977 476 850 c 0,76,77
EndSplineSet
EndChar

StartChar: dieresis
Encoding: 168 168 125
Width: 1052
GlyphClass: 2
Flags: W
LayerCount: 2
Fore
SplineSet
769 1401 m 0,0,1
 735 1401 735 1401 706.5 1411.5 c 128,-1,2
 678 1422 678 1422 657 1442 c 0,3,4
 613 1484 613 1484 613 1555 c 0,5,6
 613 1623 613 1623 664 1670 c 256,7,8
 715 1717 715 1717 785 1717 c 128,-1,9
 855 1717 855 1717 897 1675 c 128,-1,10
 939 1633 939 1633 939 1561 c 0,11,12
 939 1493 939 1493 888 1446 c 0,13,14
 839 1401 839 1401 769 1401 c 0,0,1
262 1401 m 0,15,16
 228 1401 228 1401 199.5 1411.5 c 128,-1,17
 171 1422 171 1422 150 1442 c 0,18,19
 106 1484 106 1484 106 1555 c 0,20,21
 106 1623 106 1623 158 1670 c 1,22,23
 208 1717 208 1717 278 1717 c 128,-1,24
 348 1717 348 1717 390 1675 c 128,-1,25
 432 1633 432 1633 432 1561 c 0,26,27
 432 1493 432 1493 382 1446 c 1,28,29
 332 1401 332 1401 262 1401 c 0,15,16
EndSplineSet
EndChar

StartChar: copyright
Encoding: 169 169 126
Width: 2614
GlyphClass: 2
Flags: W
LayerCount: 2
Fore
SplineSet
194 619 m 0,0,1
 194 922 194 922 346 1181 c 0,2,3
 493 1433 493 1433 745 1580 c 0,4,5
 1006 1733 1006 1733 1307 1733 c 0,6,7
 1609 1733 1609 1733 1868 1580 c 1,8,9
 2120 1433 2120 1433 2268 1181 c 1,10,11
 2420 920 2420 920 2420 619 c 0,12,13
 2420 316 2420 316 2268 56 c 1,14,15
 2119 -196 2119 -196 1868 -342 c 0,16,17
 1609 -493 1609 -493 1307 -493 c 256,18,19
 1005 -493 1005 -493 745 -342 c 0,20,21
 494 -196 494 -196 346 56 c 0,22,23
 194 315 194 315 194 619 c 0,0,1
356 616 m 0,24,25
 356 353 356 353 484 126 c 1,26,27
 608 -96 608 -96 822 -224 c 1,28,29
 1044 -358 1044 -358 1307 -358 c 256,30,31
 1570 -358 1570 -358 1792 -224 c 1,32,33
 2006 -96 2006 -96 2130 126 c 1,34,35
 2257 351 2257 351 2257 616 c 0,36,37
 2257 882 2257 882 2130 1109 c 0,38,39
 2005 1333 2005 1333 1792 1462 c 0,40,41
 1569 1597 1569 1597 1307 1597 c 256,42,43
 1045 1597 1045 1597 822 1462 c 0,44,45
 609 1333 609 1333 484 1109 c 0,46,47
 356 880 356 880 356 616 c 0,24,25
1559 885 m 1,48,-1
 1560 917 l 1,49,50
 1560 989 1560 989 1535.5 1017.5 c 128,-1,51
 1511 1046 1511 1046 1486 1060 c 0,52,53
 1433 1089 1433 1089 1348.5 1089 c 128,-1,54
 1264 1089 1264 1089 1197.5 1051.5 c 128,-1,55
 1131 1014 1131 1014 1089 950 c 0,56,57
 1009 830 1009 830 1009 630 c 0,58,59
 1009 440 1009 440 1114 322 c 1,60,61
 1221 199 1221 199 1397 199 c 0,62,63
 1546 199 1546 199 1681 274 c 0,64,65
 1714 293 1714 293 1732 307 c 1,66,67
 1753 307 1753 307 1774 265 c 0,68,69
 1780 253 1780 253 1780 237 c 128,-1,70
 1780 221 1780 221 1747.5 182.5 c 128,-1,71
 1715 144 1715 144 1657 106 c 0,72,73
 1514 12 1514 12 1369 12 c 128,-1,74
 1224 12 1224 12 1119.5 49.5 c 128,-1,75
 1015 87 1015 87 940 160 c 0,76,77
 779 315 779 315 779 586 c 0,78,79
 779 895 779 895 980 1081 c 0,80,81
 1162 1250 1162 1250 1410 1250 c 0,82,83
 1564 1250 1564 1250 1668 1188 c 1,84,85
 1777 1121 1777 1121 1777 1013 c 0,86,87
 1777 953 1777 953 1751 923 c 0,88,89
 1706 871 1706 871 1647 871 c 128,-1,90
 1588 871 1588 871 1559 885 c 1,48,-1
EndSplineSet
EndChar

StartChar: ordfeminine
Encoding: 170 170 127
Width: 998
GlyphClass: 2
Flags: W
LayerCount: 2
Fore
SplineSet
630 917 m 1,0,1
 521 813 521 813 394 813 c 0,2,3
 266 813 266 813 189 878 c 0,4,5
 111 945 111 945 111 1051 c 0,6,7
 111 1303 111 1303 486 1303 c 2,8,-1
 630 1303 l 1,9,-1
 630 1398 l 2,10,11
 630 1560 630 1560 479 1560 c 0,12,13
 422 1560 422 1560 384 1538 c 128,-1,14
 346 1516 346 1516 337 1483 c 1,15,16
 329 1463 329 1463 332 1435 c 1,17,18
 302 1423 302 1423 259 1423 c 128,-1,19
 216 1423 216 1423 188.5 1447 c 128,-1,20
 161 1471 161 1471 161 1512.5 c 128,-1,21
 161 1554 161 1554 187 1590 c 128,-1,22
 213 1626 213 1626 256 1649 c 0,23,24
 342 1694 342 1694 481 1694 c 0,25,26
 706 1694 706 1694 792 1567 c 0,27,28
 826 1517 826 1517 826 1439 c 1,29,-1
 821 1117 l 1,30,31
 821 1024 821 1024 830 1002 c 0,32,33
 843 966 843 966 886 966 c 0,34,35
 905 966 905 966 917.5 972 c 128,-1,36
 930 978 930 978 934.5 973.5 c 128,-1,37
 939 969 939 969 943 961 c 0,38,39
 954 939 954 939 954 925.5 c 128,-1,40
 954 912 954 912 945.5 897.5 c 128,-1,41
 937 883 937 883 917 867 c 128,-1,42
 897 851 897 851 872 839 c 0,43,44
 818 813 818 813 771 813 c 128,-1,45
 724 813 724 813 683 838.5 c 128,-1,46
 642 864 642 864 630 917 c 1,0,1
302 1086 m 0,47,48
 302 956 302 956 444 956 c 0,49,50
 541 956 541 956 627 1024 c 1,51,52
 627 1111 627 1111 629 1195 c 1,53,-1
 519 1188 l 2,54,55
 357 1178 357 1178 318 1132 c 0,56,57
 302 1114 302 1114 302 1086 c 0,47,48
EndSplineSet
EndChar

StartChar: logicalnot
Encoding: 172 172 129
Width: 1393
GlyphClass: 2
Flags: W
LayerCount: 2
Fore
SplineSet
151 661 m 1,0,1
 140 691 140 691 140 721 c 128,-1,2
 140 751 140 751 143.5 772.5 c 128,-1,3
 147 794 147 794 154 811 c 0,4,5
 171 849 171 849 196 849 c 2,6,-1
 1065 849 l 2,7,8
 1169 849 1169 849 1199 842 c 0,9,10
 1253 828 1253 828 1253 787 c 2,11,-1
 1253 311 l 1,12,13
 1223 300 1223 300 1193 300 c 128,-1,14
 1163 300 1163 300 1141.5 303.5 c 128,-1,15
 1120 307 1120 307 1103 314 c 0,16,17
 1065 331 1065 331 1065 356 c 2,18,-1
 1065 661 l 1,19,-1
 151 661 l 1,0,1
EndSplineSet
EndChar

StartChar: registered
Encoding: 174 174 131
Width: 2021
GlyphClass: 2
Flags: W
LayerCount: 2
Fore
SplineSet
91 1005 m 0,0,1
 91 1257 91 1257 216 1473 c 0,2,3
 336 1682 336 1682 545 1806 c 0,4,5
 758 1932 758 1932 1011 1932 c 0,6,7
 1263 1932 1263 1932 1476 1806 c 0,8,9
 1684 1682 1684 1682 1804 1473 c 0,10,11
 1929 1257 1929 1257 1929 1005 c 0,12,13
 1929 754 1929 754 1804 538 c 0,14,15
 1684 329 1684 329 1476 207 c 0,16,17
 1262 81 1262 81 1011 81 c 0,18,19
 759 81 759 81 545 207 c 0,20,21
 336 330 336 330 216 538 c 0,22,23
 91 754 91 754 91 1005 c 0,0,1
241 1004 m 0,24,25
 241 789 241 789 344 606 c 0,26,27
 499 329 499 329 803 242 c 0,28,29
 902 213 902 213 1011 213 c 0,30,31
 1223 213 1223 213 1404 322 c 1,32,33
 1577 425 1577 425 1678 606 c 0,34,35
 1781 789 1781 789 1781 1004 c 0,36,37
 1781 1218 1781 1218 1678 1403 c 0,38,39
 1523 1682 1523 1682 1219 1770 c 0,40,41
 1120 1798 1120 1798 1011 1798 c 0,42,43
 798 1798 798 1798 618 1689 c 0,44,45
 445 1584 445 1584 344 1403 c 0,46,47
 241 1218 241 1218 241 1004 c 0,24,25
661 630 m 2,48,49
 587 630 587 630 587 695 c 0,50,51
 587 714 587 714 597 724 c 1,52,53
 609 718 609 718 640 718 c 128,-1,54
 671 718 671 718 691 731 c 128,-1,55
 711 744 711 744 713 783 c 1,56,-1
 713 1305 l 2,57,58
 713 1361 713 1361 644 1376 c 0,59,60
 601 1386 601 1386 588 1395.5 c 128,-1,61
 575 1405 575 1405 575 1420 c 0,62,63
 575 1455 575 1455 584 1468 c 1,64,65
 600 1465 600 1465 622 1465 c 2,66,-1
 745 1465 l 1,67,-1
 973 1471 l 1,68,-1
 1003 1471 l 2,69,70
 1303 1471 1303 1471 1365 1341 c 0,71,72
 1385 1299 1385 1299 1385 1256 c 128,-1,73
 1385 1213 1385 1213 1373 1179 c 128,-1,74
 1361 1145 1361 1145 1336 1114 c 0,75,76
 1283 1045 1283 1045 1185 1011 c 1,77,78
 1214 989 1214 989 1252 938 c 2,79,-1
 1312 858 l 2,80,81
 1392 750 1392 750 1449 750 c 0,82,83
 1471 750 1471 750 1498 760 c 1,84,85
 1529 760 1529 760 1529 717 c 0,86,87
 1529 694 1529 694 1494 668 c 0,88,89
 1427 617 1427 617 1372.5 617 c 128,-1,90
 1318 617 1318 617 1278.5 643.5 c 128,-1,91
 1239 670 1239 670 1206 709.5 c 128,-1,92
 1173 749 1173 749 1146 796 c 1,93,-1
 1094 882 l 1,94,95
 1035 974 1035 974 996 974 c 2,96,-1
 888 974 l 1,97,-1
 888 782 l 2,98,99
 888 750 888 750 906 738.5 c 128,-1,100
 924 727 924 727 957 721 c 128,-1,101
 990 715 990 715 1012 706 c 128,-1,102
 1034 697 1034 697 1034 667.5 c 128,-1,103
 1034 638 1034 638 1024 625 c 1,104,105
 1012 630 1012 630 965 630 c 2,106,-1
 661 630 l 2,48,49
981 1378 m 0,107,108
 911 1379 911 1379 888 1361 c 1,109,-1
 888 1061 l 1,110,111
 900 1060 900 1060 911 1060 c 128,-1,112
 922 1060 922 1060 933 1060 c 0,113,114
 1060 1060 1060 1060 1126.5 1101.5 c 128,-1,115
 1193 1143 1193 1143 1193 1221 c 0,116,117
 1193 1377 1193 1377 981 1378 c 0,107,108
EndSplineSet
EndChar

StartChar: macron
Encoding: 175 175 132
Width: 1044
GlyphClass: 2
Flags: W
LayerCount: 2
Fore
SplineSet
94 1456 m 1,0,1
 86 1478 86 1478 86 1500 c 128,-1,2
 86 1522 86 1522 91.5 1542.5 c 128,-1,3
 97 1563 97 1563 107 1579 c 0,4,5
 130 1615 130 1615 158 1615 c 2,6,-1
 889 1615 l 1,7,8
 898 1597 898 1597 898 1574.5 c 128,-1,9
 898 1552 898 1552 892.5 1531.5 c 128,-1,10
 887 1511 887 1511 878 1494 c 1,11,12
 855 1456 855 1456 823 1456 c 2,13,-1
 94 1456 l 1,0,1
EndSplineSet
EndChar

StartChar: degree
Encoding: 176 176 133
Width: 1149
GlyphClass: 2
Flags: W
LayerCount: 2
Fore
SplineSet
548 1002 m 0,0,1
 469 1002 469 1002 401 1027 c 128,-1,2
 333 1052 333 1052 286 1096 c 0,3,4
 189 1188 189 1188 189 1335 c 0,5,6
 189 1535 189 1535 324 1640 c 0,7,8
 437 1727 437 1727 613 1727 c 0,9,10
 756 1727 756 1727 852 1645 c 0,11,12
 960 1554 960 1554 960 1402 c 0,13,14
 960 1206 960 1206 829 1096 c 0,15,16
 716 1002 716 1002 548 1002 c 0,0,1
512.5 1156.5 m 128,-1,18
 551 1141 551 1141 593.5 1141 c 128,-1,19
 636 1141 636 1141 669.5 1156 c 128,-1,20
 703 1171 703 1171 726 1198 c 0,21,22
 771 1253 771 1253 771 1342 c 0,23,24
 771 1507 771 1507 660 1568 c 0,25,26
 621 1590 621 1590 572.5 1590 c 128,-1,27
 524 1590 524 1590 489.5 1578 c 128,-1,28
 455 1566 455 1566 430 1542 c 1,29,30
 378 1489 378 1489 378 1408.5 c 128,-1,31
 378 1328 378 1328 396 1281 c 128,-1,32
 414 1234 414 1234 444 1203 c 128,-1,17
 474 1172 474 1172 512.5 1156.5 c 128,-1,18
EndSplineSet
EndChar

StartChar: plusminus
Encoding: 177 177 134
Width: 1157
GlyphClass: 2
Flags: W
LayerCount: 2
Fore
SplineSet
168 210 m 1,0,1
 157 236 157 236 157 267.5 c 128,-1,2
 157 299 157 299 160.5 320 c 128,-1,3
 164 341 164 341 171 358 c 0,4,5
 186 394 186 394 212 394 c 2,6,-1
 486 394 l 1,7,-1
 486 664 l 1,8,-1
 151 664 l 1,9,10
 140 694 140 694 140 723.5 c 128,-1,11
 140 753 140 753 143.5 774 c 128,-1,12
 147 795 147 795 154 812 c 1,13,14
 172 849 172 849 196 849 c 2,15,-1
 486 849 l 1,16,-1
 486 1203 l 1,17,18
 512 1216 512 1216 543.5 1216 c 128,-1,19
 575 1216 575 1216 596.5 1212.5 c 128,-1,20
 618 1209 618 1209 635 1202 c 0,21,22
 674 1184 674 1184 674 1156 c 2,23,-1
 674 849 l 1,24,-1
 1004 849 l 1,25,26
 1017 823 1017 823 1017 791 c 128,-1,27
 1017 759 1017 759 1013.5 738.5 c 128,-1,28
 1010 718 1010 718 1002 702 c 0,29,30
 985 664 985 664 957 664 c 2,31,-1
 674 664 l 1,32,-1
 674 394 l 1,33,-1
 982 394 l 1,34,35
 995 368 995 368 995 337 c 128,-1,36
 995 306 995 306 991.5 285.5 c 128,-1,37
 988 265 988 265 980 248 c 0,38,39
 964 210 964 210 935 210 c 2,40,-1
 168 210 l 1,0,1
EndSplineSet
EndChar

StartChar: twosuperior
Encoding: 178 178 135
Width: 1057
GlyphClass: 2
Flags: W
LayerCount: 2
Fore
SplineSet
784 1141 m 1,0,-1
 806 1143 l 1,1,2
 862 1143 862 1143 869 1131 c 128,-1,3
 876 1119 876 1119 880 1096 c 128,-1,4
 884 1073 884 1073 886 1047 c 0,5,6
 890 1011 890 1011 890 977 c 128,-1,7
 890 943 890 943 884.5 925.5 c 128,-1,8
 879 908 879 908 867 894 c 0,9,10
 841 865 841 865 787 865 c 2,11,-1
 200 865 l 1,12,13
 186 875 186 875 179 900.5 c 128,-1,14
 172 926 172 926 171 937 c 0,15,16
 167 986 167 986 178 994 c 2,17,-1
 366 1146 l 1,18,19
 544 1295 544 1295 608 1414 c 0,20,21
 643 1477 643 1477 643 1542 c 0,22,23
 643 1700 643 1700 494 1700 c 0,24,25
 440 1700 440 1700 400 1650 c 0,26,27
 355 1592 355 1592 361 1495 c 1,28,29
 334 1482 334 1482 308 1482 c 128,-1,30
 282 1482 282 1482 258 1487 c 128,-1,31
 234 1492 234 1492 216 1504 c 0,32,33
 173 1532 173 1532 173 1580.5 c 128,-1,34
 173 1629 173 1629 196 1671 c 128,-1,35
 219 1713 219 1713 262 1746 c 0,36,37
 358 1818 358 1818 509 1818 c 0,38,39
 678 1818 678 1818 769 1736 c 0,40,41
 852 1662 852 1662 852 1550 c 0,42,43
 852 1352 852 1352 564 1124 c 0,44,45
 480 1058 480 1058 387 999 c 1,46,-1
 516 999 l 2,47,48
 659 999 659 999 702.5 1019.5 c 128,-1,49
 746 1040 746 1040 763.5 1068 c 128,-1,50
 781 1096 781 1096 784 1141 c 1,0,-1
EndSplineSet
EndChar

StartChar: threesuperior
Encoding: 179 179 136
Width: 1057
GlyphClass: 2
Flags: W
LayerCount: 2
Fore
SplineSet
855 1588 m 0,0,1
 855 1451 855 1451 712 1364 c 1,2,3
 839 1323 839 1323 879 1214 c 0,4,5
 892 1179 892 1179 892 1125.5 c 128,-1,6
 892 1072 892 1072 862.5 1019.5 c 128,-1,7
 833 967 833 967 781 931 c 0,8,9
 676 858 676 858 504 858 c 0,10,11
 381 858 381 858 286 914 c 0,12,13
 184 975 184 975 184 1066 c 0,14,15
 184 1148 184 1148 255 1168 c 0,16,17
 267 1171 267 1171 287 1171 c 0,18,19
 335 1171 335 1171 350 1165 c 1,20,21
 350 1088 350 1088 370 1055 c 0,22,23
 410 986 410 986 506 986 c 0,24,25
 693 986 693 986 693 1150 c 0,26,27
 693 1235 693 1235 592 1268 c 1,28,29
 552 1280 552 1280 508 1280 c 128,-1,30
 464 1280 464 1280 432 1276 c 1,31,32
 413 1276 413 1276 402 1318 c 0,33,34
 381 1397 381 1397 398 1397 c 0,35,36
 517 1397 517 1397 590 1452 c 0,37,38
 656 1502 656 1502 656 1568.5 c 128,-1,39
 656 1635 656 1635 619.5 1666.5 c 128,-1,40
 583 1698 583 1698 525 1698 c 128,-1,41
 467 1698 467 1698 444 1688 c 128,-1,42
 421 1678 421 1678 408 1662 c 0,43,44
 383 1633 383 1633 383 1585 c 1,45,46
 356 1573 356 1573 326.5 1573 c 128,-1,47
 297 1573 297 1573 279 1580 c 128,-1,48
 261 1587 261 1587 247 1600 c 0,49,50
 215 1630 215 1630 215 1665 c 128,-1,51
 215 1700 215 1700 236 1727 c 128,-1,52
 257 1754 257 1754 298 1774 c 0,53,54
 385 1817 385 1817 528 1817 c 0,55,56
 752 1817 752 1817 829 1690 c 0,57,58
 855 1647 855 1647 855 1588 c 0,0,1
EndSplineSet
EndChar

StartChar: acute
Encoding: 180 180 137
Width: 582
GlyphClass: 2
Flags: W
LayerCount: 2
Fore
SplineSet
219 1347 m 1,0,1
 191 1347 191 1347 173 1364 c 0,2,3
 143 1391 143 1391 143 1401 c 0,4,5
 143 1420 143 1420 149 1428 c 1,6,-1
 469 1747 l 2,7,8
 491 1769 491 1769 520.5 1769 c 128,-1,9
 550 1769 550 1769 581 1751.5 c 128,-1,10
 612 1734 612 1734 638 1708 c 0,11,12
 695 1649 695 1649 695 1602 c 0,13,14
 695 1578 695 1578 675 1568 c 2,15,-1
 219 1347 l 1,0,1
EndSplineSet
EndChar

StartChar: mu
Encoding: 181 181 138
Width: 1398
GlyphClass: 2
Flags: W
LayerCount: 2
Fore
SplineSet
248 -446 m 0,0,1
 206 -446 206 -446 178 -420 c 1,2,-1
 215 301 l 1,3,-1
 215 890 l 2,4,5
 215 946 215 946 204.5 981 c 128,-1,6
 194 1016 194 1016 167 1016 c 128,-1,7
 140 1016 140 1016 126.5 1009 c 128,-1,8
 113 1002 113 1002 104.5 999 c 128,-1,9
 96 996 96 996 90 999.5 c 128,-1,10
 84 1003 84 1003 78 1010 c 0,11,12
 63 1026 63 1026 63 1043.5 c 128,-1,13
 63 1061 63 1061 75 1080.5 c 128,-1,14
 87 1100 87 1100 112.5 1125.5 c 128,-1,15
 138 1151 138 1151 170 1172 c 0,16,17
 242 1219 242 1219 322 1219 c 0,18,19
 420 1219 420 1219 434 1080 c 0,20,21
 438 1041 438 1041 438 999 c 2,22,-1
 438 373 l 2,23,24
 438 204 438 204 540 184 c 0,25,26
 570 178 570 178 612.5 178 c 128,-1,27
 655 178 655 178 704.5 189 c 128,-1,28
 754 200 754 200 798 218 c 0,29,30
 885 253 885 253 951 308 c 1,31,-1
 952 890 l 2,32,33
 952 984 952 984 917 1007 c 0,34,35
 903 1016 903 1016 880 1016 c 256,36,37
 857 1016 857 1016 843.5 1009 c 128,-1,38
 830 1002 830 1002 821.5 999 c 128,-1,39
 813 996 813 996 807 999.5 c 128,-1,40
 801 1003 801 1003 795 1010 c 0,41,42
 780 1026 780 1026 780 1044.5 c 128,-1,43
 780 1063 780 1063 792 1081.5 c 128,-1,44
 804 1100 804 1100 832 1125.5 c 128,-1,45
 860 1151 860 1151 896 1172 c 0,46,47
 977 1219 977 1219 1058 1219 c 0,48,49
 1157 1219 1157 1219 1171 1080 c 0,50,51
 1175 1041 1175 1041 1175 999 c 2,52,-1
 1175 407 l 2,53,54
 1175 253 1175 253 1187 215 c 128,-1,55
 1199 177 1199 177 1215.5 165.5 c 128,-1,56
 1232 154 1232 154 1257 154 c 128,-1,57
 1282 154 1282 154 1298 162 c 2,58,-1
 1328 175 l 1,59,60
 1341 178 1341 178 1351 163 c 0,61,62
 1372 132 1372 132 1357 107 c 128,-1,63
 1342 82 1342 82 1312 59 c 128,-1,64
 1282 36 1282 36 1244 19 c 0,65,66
 1076 -57 1076 -57 997 22 c 0,67,68
 956 63 956 63 951 152 c 1,69,70
 805 40 805 40 646 -4 c 0,71,72
 589 -19 589 -19 520 -19 c 128,-1,73
 451 -19 451 -19 390 4 c 1,74,75
 399 -180 399 -180 422 -363 c 1,76,77
 386 -446 386 -446 248 -446 c 0,0,1
EndSplineSet
EndChar

StartChar: paragraph
Encoding: 182 182 139
Width: 1825
GlyphClass: 2
Flags: W
LayerCount: 2
Fore
SplineSet
922 -290 m 0,0,1
 897 -295 897 -295 863 -295 c 128,-1,2
 829 -295 829 -295 807 -283 c 1,3,-1
 807 523 l 1,4,5
 388 536 388 536 263 801 c 0,6,7
 221 890 221 890 221 1012 c 128,-1,8
 221 1134 221 1134 266 1232.5 c 128,-1,9
 311 1331 311 1331 395 1398 c 0,10,11
 567 1537 567 1537 873 1537 c 0,12,13
 998 1537 998 1537 1015 1523 c 1,14,-1
 1015 -217 l 2,15,16
 1015 -274 1015 -274 922 -290 c 0,0,1
1389 -290 m 0,17,18
 1364 -295 1364 -295 1330.5 -295 c 128,-1,19
 1297 -295 1297 -295 1275 -283 c 1,20,-1
 1275 1465 l 2,21,22
 1275 1516 1275 1516 1371 1534 c 0,23,24
 1397 1539 1397 1539 1428 1539 c 128,-1,25
 1459 1539 1459 1539 1482 1529 c 1,26,-1
 1482 -217 l 2,27,28
 1482 -274 1482 -274 1389 -290 c 0,17,18
EndSplineSet
EndChar

StartChar: periodcentered
Encoding: 183 183 140
Width: 664
GlyphClass: 2
Flags: W
LayerCount: 2
Fore
SplineSet
330 656 m 0,0,1
 295 656 295 656 265 668.5 c 128,-1,2
 235 681 235 681 212 704 c 0,3,4
 165 751 165 751 165 823 c 0,5,6
 165 894 165 894 212.5 941.5 c 128,-1,7
 260 989 260 989 330 989 c 0,8,9
 444 989 444 989 487 889 c 0,10,11
 500 859 500 859 500 823 c 0,12,13
 500 752 500 752 452 704 c 256,14,15
 404 656 404 656 330 656 c 0,0,1
EndSplineSet
EndChar

StartChar: cedilla
Encoding: 184 184 141
Width: 582
GlyphClass: 2
Flags: W
LayerCount: 2
Fore
SplineSet
329 -111 m 1,0,1
 559 -116 559 -116 559 -268 c 0,2,3
 559 -425 559 -425 300 -482 c 0,4,5
 207 -503 207 -503 134 -501 c 1,6,7
 115 -489 115 -489 115 -450 c 0,8,9
 115 -408 115 -408 143.5 -404 c 128,-1,10
 172 -400 172 -400 207 -393 c 128,-1,11
 242 -386 242 -386 272 -374 c 0,12,13
 345 -345 345 -345 345 -296 c 0,14,15
 345 -229 345 -229 207 -224 c 0,16,17
 196 -224 196 -224 189.5 -202.5 c 128,-1,18
 183 -181 183 -181 183 -178 c 2,19,-1
 227 15 l 1,20,-1
 349 15 l 1,21,-1
 329 -111 l 1,0,1
EndSplineSet
EndChar

StartChar: onesuperior
Encoding: 185 185 142
Width: 1019
GlyphClass: 2
Flags: W
LayerCount: 2
Fore
SplineSet
816 861 m 1,0,1
 796 865 796 865 733 865 c 2,2,-1
 347 865 l 2,3,4
 305 865 305 865 278 889.5 c 128,-1,5
 251 914 251 914 251 951 c 0,6,7
 251 972 251 972 265 983 c 1,8,9
 295 977 295 977 346.5 977 c 128,-1,10
 398 977 398 977 416 984.5 c 128,-1,11
 434 992 434 992 442 1006 c 0,12,13
 453 1025 453 1025 453 1085 c 2,14,-1
 453 1530 l 2,15,16
 453 1602 453 1602 391 1602 c 2,17,-1
 358 1602 l 2,18,19
 324 1602 324 1602 277 1595 c 1,20,21
 262 1595 262 1595 252 1629 c 0,22,23
 233 1694 233 1694 246 1700 c 1,24,25
 426 1742 426 1742 567 1809 c 0,26,27
 570 1811 570 1811 579.5 1811 c 128,-1,28
 589 1811 589 1811 601 1805.5 c 128,-1,29
 613 1800 613 1800 624 1792 c 0,30,31
 648 1775 648 1775 648 1761 c 2,32,-1
 648 1068 l 2,33,34
 648 998 648 998 673 988 c 0,35,36
 683 984 683 984 704.5 981.5 c 128,-1,37
 726 979 726 979 749.5 974.5 c 128,-1,38
 773 970 773 970 790 963 c 0,39,40
 829 948 829 948 829 918 c 0,41,42
 829 874 829 874 816 861 c 1,0,1
EndSplineSet
EndChar

StartChar: ordmasculine
Encoding: 186 186 143
Width: 998
GlyphClass: 2
Flags: W
LayerCount: 2
Fore
SplineSet
464 813 m 0,0,1
 380 813 380 813 310 846 c 128,-1,2
 240 879 240 879 192 936 c 0,3,4
 93 1052 93 1052 93 1232 c 0,5,6
 93 1470 93 1470 230 1592 c 0,7,8
 346 1694 346 1694 528 1694 c 0,9,10
 701 1694 701 1694 805 1571 c 0,11,12
 904 1453 904 1453 904 1275 c 0,13,14
 904 1037 904 1037 766 916 c 1,15,16
 651 813 651 813 464 813 c 0,0,1
417.5 962.5 m 128,-1,18
 456 947 456 947 501.5 947 c 128,-1,19
 547 947 547 947 582.5 965.5 c 128,-1,20
 618 984 618 984 644 1018 c 0,21,22
 699 1090 699 1090 699 1202.5 c 128,-1,23
 699 1315 699 1315 685 1382 c 128,-1,24
 671 1449 671 1449 644 1488 c 1,25,26
 597 1560 597 1560 491 1562 c 1,27,28
 406 1562 406 1562 353 1490 c 0,29,30
 297 1415 297 1415 297 1303.5 c 128,-1,31
 297 1192 297 1192 311 1124.5 c 128,-1,32
 325 1057 325 1057 352 1017.5 c 128,-1,17
 379 978 379 978 417.5 962.5 c 128,-1,18
EndSplineSet
EndChar

StartChar: onequarter
Encoding: 188 188 145
Width: 2182
GlyphClass: 2
Flags: W
LayerCount: 2
Fore
SplineSet
1659 -163 m 0,0,1
 1614 -163 1614 -163 1614 -148 c 2,2,-1
 1614 102 l 1,3,-1
 1217 102 l 2,4,5
 1191 102 1191 102 1170 143 c 0,6,7
 1148 184 1148 184 1160 198 c 0,8,9
 1211 264 1211 264 1267 364 c 2,10,-1
 1358 529 l 1,11,12
 1468 741 1468 741 1507 873 c 1,13,14
 1540 873 1540 873 1586 854 c 0,15,16
 1671 818 1671 818 1678 793 c 1,17,18
 1695 742 1695 742 1576 546 c 1,19,-1
 1504 432 l 1,20,21
 1435 328 1435 328 1356 232 c 1,22,-1
 1614 232 l 1,23,-1
 1614 372 l 2,24,25
 1614 403 1614 403 1706 436 c 0,26,27
 1759 455 1759 455 1779 453 c 128,-1,28
 1799 451 1799 451 1799 442 c 2,29,-1
 1799 232 l 1,30,-1
 1991 232 l 2,31,32
 2013 232 2013 232 1997 167 c 128,-1,33
 1981 102 1981 102 1958 102 c 2,34,-1
 1799 102 l 1,35,-1
 1799 -129 l 2,36,37
 1799 -163 1799 -163 1659 -163 c 0,0,1
745 759 m 1,38,39
 725 763 725 763 662 763 c 2,40,-1
 276 763 l 2,41,42
 234 763 234 763 207 787.5 c 128,-1,43
 180 812 180 812 180 849 c 0,44,45
 180 870 180 870 194 881 c 1,46,47
 224 875 224 875 275.5 875 c 128,-1,48
 327 875 327 875 345 882.5 c 128,-1,49
 363 890 363 890 371 904 c 0,50,51
 382 923 382 923 382 983 c 2,52,-1
 382 1428 l 2,53,54
 382 1500 382 1500 320 1500 c 2,55,-1
 287 1500 l 2,56,57
 253 1500 253 1500 206 1493 c 1,58,59
 191 1493 191 1493 181 1527 c 0,60,61
 162 1592 162 1592 175 1598 c 1,62,63
 355 1640 355 1640 496 1707 c 0,64,65
 499 1709 499 1709 508.5 1709 c 128,-1,66
 518 1709 518 1709 530 1703.5 c 128,-1,67
 542 1698 542 1698 552 1690 c 0,68,69
 577 1673 577 1673 577 1659 c 2,70,-1
 577 966 l 2,71,72
 577 896 577 896 602 886 c 0,73,74
 612 882 612 882 633.5 879.5 c 128,-1,75
 655 877 655 877 678.5 872.5 c 128,-1,76
 702 868 702 868 720 861 c 0,77,78
 758 846 758 846 758 816 c 0,79,80
 758 772 758 772 745 759 c 1,38,39
1379 1441 m 1,81,82
 1427 1446 1427 1446 1463 1419 c 0,83,84
 1530 1369 1530 1369 1508 1335 c 2,85,-1
 644 -4 l 1,86,87
 590 -2 590 -2 557 24 c 1,88,89
 495 70 495 70 514 102 c 1,90,-1
 1379 1441 l 1,81,82
EndSplineSet
EndChar

StartChar: threequarters
Encoding: 190 190 147
Width: 2182
GlyphClass: 2
Flags: W
LayerCount: 2
Fore
SplineSet
1659 -163 m 0,0,1
 1614 -163 1614 -163 1614 -148 c 2,2,-1
 1614 102 l 1,3,-1
 1217 102 l 2,4,5
 1191 102 1191 102 1170 143 c 0,6,7
 1148 184 1148 184 1160 198 c 0,8,9
 1211 264 1211 264 1267 364 c 2,10,-1
 1358 529 l 1,11,12
 1468 741 1468 741 1507 873 c 1,13,14
 1540 873 1540 873 1586 854 c 0,15,16
 1671 818 1671 818 1678 793 c 1,17,18
 1695 742 1695 742 1576 546 c 1,19,-1
 1504 432 l 1,20,21
 1435 328 1435 328 1356 232 c 1,22,-1
 1614 232 l 1,23,-1
 1614 372 l 2,24,25
 1614 403 1614 403 1706 436 c 0,26,27
 1759 455 1759 455 1779 453 c 128,-1,28
 1799 451 1799 451 1799 442 c 2,29,-1
 1799 232 l 1,30,-1
 1991 232 l 2,31,32
 2013 232 2013 232 1997 167 c 128,-1,33
 1981 102 1981 102 1958 102 c 2,34,-1
 1799 102 l 1,35,-1
 1799 -129 l 2,36,37
 1799 -163 1799 -163 1659 -163 c 0,0,1
1379 1441 m 1,38,39
 1427 1446 1427 1446 1463 1419 c 0,40,41
 1530 1369 1530 1369 1508 1335 c 2,42,-1
 644 -4 l 1,43,44
 590 -2 590 -2 557 24 c 1,45,46
 495 70 495 70 514 102 c 1,47,-1
 1379 1441 l 1,38,39
806 1472 m 0,48,49
 806 1335 806 1335 663 1248 c 1,50,51
 790 1207 790 1207 830 1098 c 0,52,53
 843 1063 843 1063 843 1009.5 c 128,-1,54
 843 956 843 956 813.5 903.5 c 128,-1,55
 784 851 784 851 732 815 c 0,56,57
 627 742 627 742 455 742 c 0,58,59
 332 742 332 742 238 798 c 0,60,61
 135 859 135 859 135 950 c 0,62,63
 135 1032 135 1032 206 1052 c 0,64,65
 218 1055 218 1055 238 1055 c 0,66,67
 286 1055 286 1055 301 1049 c 1,68,69
 301 972 301 972 320 939 c 0,70,71
 361 870 361 870 457 870 c 0,72,73
 644 870 644 870 644 1034 c 0,74,75
 644 1119 644 1119 542 1152 c 0,76,77
 503 1164 503 1164 459 1164 c 128,-1,78
 415 1164 415 1164 383 1160 c 1,79,80
 364 1160 364 1160 353 1202 c 0,81,82
 332 1281 332 1281 349 1281 c 0,83,84
 468 1281 468 1281 542 1336 c 1,85,86
 607 1386 607 1386 607 1452.5 c 128,-1,87
 607 1519 607 1519 570.5 1550.5 c 128,-1,88
 534 1582 534 1582 476 1582 c 128,-1,89
 418 1582 418 1582 395 1572 c 128,-1,90
 372 1562 372 1562 358 1546 c 0,91,92
 334 1517 334 1517 334 1469 c 1,93,94
 307 1457 307 1457 277.5 1457 c 128,-1,95
 248 1457 248 1457 230 1464 c 128,-1,96
 212 1471 212 1471 198 1484 c 0,97,98
 166 1514 166 1514 166 1549 c 128,-1,99
 166 1584 166 1584 187 1611 c 128,-1,100
 208 1638 208 1638 248 1658 c 0,101,102
 336 1701 336 1701 479 1701 c 0,103,104
 703 1701 703 1701 780 1574 c 0,105,106
 806 1531 806 1531 806 1472 c 0,48,49
EndSplineSet
EndChar

StartChar: AE
Encoding: 198 198 155
Width: 2280
GlyphClass: 2
Flags: W
LayerCount: 2
Fore
SplineSet
927 129 m 1,0,1
 963 119 963 119 1000 119 c 128,-1,2
 1037 119 1037 119 1062.5 124 c 128,-1,3
 1088 129 1088 129 1108 145 c 0,4,5
 1153 181 1153 181 1153 270 c 2,6,-1
 1153 589 l 1,7,-1
 649 589 l 1,8,-1
 442 254 l 2,9,10
 417 214 417 214 417 187 c 128,-1,11
 417 160 417 160 424.5 151.5 c 128,-1,12
 432 143 432 143 446 137 c 0,13,14
 463 129 463 129 503.5 120 c 128,-1,15
 544 111 544 111 565 105.5 c 128,-1,16
 586 100 586 100 601 92 c 0,17,18
 633 73 633 73 633 48 c 0,19,20
 633 14 633 14 618 -5 c 1,21,22
 600 0 600 0 589 0 c 2,23,-1
 154 0 l 2,24,25
 88 0 88 0 61 22.5 c 128,-1,26
 34 45 34 45 34 75.5 c 128,-1,27
 34 106 34 106 49 129 c 1,28,-1
 74 122 l 2,29,30
 87 119 87 119 103.5 119 c 128,-1,31
 120 119 120 119 141.5 130.5 c 128,-1,32
 163 142 163 142 185 165 c 0,33,34
 221 202 221 202 282 303 c 1,35,-1
 979 1424 l 1,36,37
 932 1442 932 1442 932 1479 c 0,38,39
 932 1520 932 1520 948 1538 c 1,40,41
 966 1533 966 1533 984 1533 c 2,42,-1
 2007 1533 l 2,43,44
 2099 1533 2099 1533 2122 1516 c 0,45,46
 2164 1486 2164 1486 2164 1384 c 0,47,48
 2164 1284 2164 1284 2148 1224.5 c 128,-1,49
 2132 1165 2132 1165 2124 1152 c 0,50,51
 2111 1130 2111 1130 2093 1130 c 128,-1,52
 2075 1130 2075 1130 2062.5 1133 c 128,-1,53
 2050 1136 2050 1136 2040 1141 c 0,54,55
 2014 1153 2014 1153 2014 1164 c 0,56,57
 2001 1310 2001 1310 1969 1347 c 128,-1,58
 1937 1384 1937 1384 1893.5 1396.5 c 128,-1,59
 1850 1409 1850 1409 1780 1409 c 2,60,-1
 1554 1409 l 2,61,62
 1448 1409 1448 1409 1424.5 1388 c 128,-1,63
 1401 1367 1401 1367 1395 1339.5 c 128,-1,64
 1389 1312 1389 1312 1389 1269 c 2,65,-1
 1389 732 l 1,66,-1
 1447 731 l 1,67,68
 1713 731 1713 731 1883 770 c 1,69,70
 1919 755 1919 755 1919 662 c 0,71,72
 1919 610 1919 610 1900 572 c 1,73,74
 1852 567 1852 567 1768.5 567 c 128,-1,75
 1685 567 1685 567 1586 577 c 2,76,-1
 1389 598 l 1,77,-1
 1389 254 l 2,78,79
 1389 179 1389 179 1429 153 c 0,80,81
 1463 131 1463 131 1551 131 c 1,82,-1
 1706 135 l 1,83,84
 1926 143 1926 143 1991 194 c 0,85,86
 2028 224 2028 224 2040 272.5 c 128,-1,87
 2052 321 2052 321 2052 370.5 c 128,-1,88
 2052 420 2052 420 2050 442 c 1,89,90
 2073 459 2073 459 2103 459 c 0,91,92
 2146 459 2146 459 2156 452 c 1,93,94
 2195 376 2195 376 2195 197 c 0,95,96
 2195 72 2195 72 2166 16 c 0,97,98
 2158 0 2158 0 2149 0 c 2,99,-1
 1034 0 l 2,100,101
 982 0 982 0 947 18 c 128,-1,102
 912 36 912 36 912 62 c 0,103,104
 912 110 912 110 927 129 c 1,0,1
1153 731 m 1,105,-1
 1153 1283 l 2,106,107
 1153 1338 1153 1338 1128 1365 c 1,108,-1
 736 731 l 1,109,-1
 1153 731 l 1,105,-1
EndSplineSet
EndChar

StartChar: Ccedilla
Encoding: 199 199 156
Width: 1457
GlyphClass: 2
Flags: W
LayerCount: 2
Fore
SplineSet
827 -111 m 1,0,1
 1057 -116 1057 -116 1057 -268 c 0,2,3
 1057 -425 1057 -425 798 -482 c 0,4,5
 705 -503 705 -503 632 -501 c 1,6,7
 613 -489 613 -489 613 -450 c 0,8,9
 613 -408 613 -408 641.5 -404 c 128,-1,10
 670 -400 670 -400 705 -393 c 128,-1,11
 740 -386 740 -386 770 -374 c 0,12,13
 843 -345 843 -345 843 -296 c 0,14,15
 843 -229 843 -229 705 -224 c 0,16,17
 694 -224 694 -224 687.5 -202.5 c 128,-1,18
 681 -181 681 -181 681 -178 c 2,19,-1
 718 -15 l 1,20,21
 438 17 438 17 278 208 c 1,22,23
 118 397 118 397 118 693 c 0,24,25
 118 891 118 891 181 1050 c 128,-1,26
 244 1209 244 1209 353 1320.5 c 128,-1,27
 462 1432 462 1432 607.5 1492 c 128,-1,28
 753 1552 753 1552 890.5 1552 c 128,-1,29
 1028 1552 1028 1552 1111 1529 c 128,-1,30
 1194 1506 1194 1506 1249 1466 c 0,31,32
 1359 1384 1359 1384 1359 1248 c 0,33,34
 1359 1144 1359 1144 1282 1101 c 0,35,36
 1256 1086 1256 1086 1226 1086 c 0,37,38
 1164 1086 1164 1086 1138 1100 c 1,39,40
 1142 1128 1142 1128 1142 1182 c 128,-1,41
 1142 1236 1142 1236 1121 1280.5 c 128,-1,42
 1100 1325 1100 1325 1064 1350 c 0,43,44
 1001 1393 1001 1393 874.5 1393 c 128,-1,45
 748 1393 748 1393 651.5 1347.5 c 128,-1,46
 555 1302 555 1302 490 1220 c 0,47,48
 359 1055 359 1055 359 771 c 0,49,50
 359 502 359 502 492 342 c 0,51,52
 630 175 630 175 865 175 c 0,53,54
 1096 175 1096 175 1225 276 c 0,55,56
 1264 306 1264 306 1296 341 c 1,57,58
 1326 332 1326 332 1345 288 c 0,59,60
 1351 273 1351 273 1351 254 c 128,-1,61
 1351 235 1351 235 1335.5 206.5 c 128,-1,62
 1320 178 1320 178 1290 148 c 128,-1,63
 1260 118 1260 118 1216.5 88.5 c 128,-1,64
 1173 59 1173 59 1116 36 c 0,65,66
 987 -18 987 -18 841 -20 c 1,67,-1
 827 -111 l 1,0,1
EndSplineSet
EndChar

StartChar: Eth
Encoding: 208 208 165
Width: 1725
GlyphClass: 2
Flags: W
LayerCount: 2
Fore
SplineSet
739 -10 m 1,0,-1
 454 1 l 1,1,-1
 196 1 l 2,2,3
 144 1 144 1 109 18.5 c 128,-1,4
 74 36 74 36 74 62 c 0,5,6
 74 110 74 110 89 129 c 1,7,8
 125 119 125 119 162 119 c 128,-1,9
 199 119 199 119 224.5 124 c 128,-1,10
 250 129 250 129 270 145 c 0,11,12
 316 181 316 181 316 270 c 2,13,-1
 316 694 l 1,14,-1
 133 694 l 1,15,16
 122 720 122 720 122 748 c 128,-1,17
 122 776 122 776 125.5 794 c 128,-1,18
 129 812 129 812 136 826 c 0,19,20
 153 857 153 857 178 857 c 2,21,-1
 316 857 l 1,22,-1
 316 1289 l 2,23,24
 316 1382 316 1382 200 1405 c 0,25,26
 128 1420 128 1420 106.5 1437.5 c 128,-1,27
 85 1455 85 1455 85 1476 c 0,28,29
 85 1522 85 1522 101 1538 c 1,30,31
 119 1533 119 1533 134 1533 c 2,32,-1
 437 1533 l 2,33,34
 460 1533 460 1533 498 1535 c 2,35,-1
 583 1540 l 1,36,37
 708 1546 708 1546 839.5 1546 c 128,-1,38
 971 1546 971 1546 1095 1514.5 c 128,-1,39
 1219 1483 1219 1483 1309.5 1429 c 128,-1,40
 1400 1375 1400 1375 1460.5 1303.5 c 128,-1,41
 1521 1232 1521 1232 1558 1152 c 0,42,43
 1624 1005 1624 1005 1624 822 c 0,44,45
 1624 490 1624 490 1452 270 c 0,46,47
 1317 97 1317 97 1055 26 c 0,48,49
 919 -10 919 -10 739 -10 c 1,0,-1
859 857 m 1,50,51
 872 835 872 835 872 794 c 0,52,53
 872 728 872 728 839 702 c 0,54,55
 828 694 828 694 813 694 c 2,56,-1
 552 694 l 1,57,-1
 552 241 l 2,58,59
 552 166 552 166 599 144 c 0,60,61
 639 126 639 126 790.5 126 c 128,-1,62
 942 126 942 126 1060 176 c 128,-1,63
 1178 226 1178 226 1248 311 c 0,64,65
 1374 464 1374 464 1374 742 c 0,66,67
 1374 1219 1374 1219 1037 1365 c 0,68,69
 915 1418 915 1418 736 1418 c 0,70,71
 617 1418 617 1418 591 1394.5 c 128,-1,72
 565 1371 565 1371 558.5 1336.5 c 128,-1,73
 552 1302 552 1302 552 1244 c 2,74,-1
 552 857 l 1,75,-1
 859 857 l 1,50,51
EndSplineSet
EndChar

StartChar: multiply
Encoding: 215 215 172
Width: 1101
GlyphClass: 2
Flags: W
LayerCount: 2
Fore
SplineSet
267 336 m 1,0,1
 217 355 217 355 178 412 c 0,2,3
 139 470 139 470 165 496 c 2,4,-1
 420 752 l 1,5,-1
 170 1004 l 1,6,7
 159 1017 159 1017 159 1033.5 c 128,-1,8
 159 1050 159 1050 170.5 1071.5 c 128,-1,9
 182 1093 182 1093 198 1112 c 0,10,11
 235 1155 235 1155 271 1165 c 1,12,-1
 550 884 l 1,13,-1
 830 1165 l 1,14,15
 866 1154 866 1154 893 1123 c 0,16,17
 942 1067 942 1067 942 1042 c 128,-1,18
 942 1017 942 1017 931 1004 c 1,19,-1
 681 752 l 1,20,-1
 936 496 l 1,21,22
 961 469 961 469 922 412 c 0,23,24
 884 355 884 355 834 336 c 1,25,-1
 550 621 l 1,26,-1
 267 336 l 1,0,1
EndSplineSet
EndChar

StartChar: Oslash
Encoding: 216 216 173
Width: 1697
GlyphClass: 2
Flags: W
LayerCount: 2
Fore
SplineSet
1217 1477 m 1,0,-1
 1299 1613 l 1,1,2
 1317 1639 1317 1639 1348 1639 c 0,3,4
 1408 1639 1408 1639 1441 1594 c 1,5,-1
 1328 1407 l 1,6,7
 1449 1313 1449 1313 1519 1164 c 128,-1,8
 1589 1015 1589 1015 1589 851.5 c 128,-1,9
 1589 688 1589 688 1559 575 c 128,-1,10
 1529 462 1529 462 1476 368.5 c 128,-1,11
 1423 275 1423 275 1350 203 c 128,-1,12
 1277 131 1277 131 1192 82 c 0,13,14
 1018 -19 1018 -19 832.5 -19 c 128,-1,15
 647 -19 647 -19 505 45 c 1,16,-1
 425 -88 l 1,17,18
 404 -115 404 -115 372 -115 c 0,19,20
 307 -115 307 -115 281 -70 c 1,21,-1
 390 111 l 1,22,23
 186 258 186 258 128 520 c 0,24,25
 109 609 109 609 109 726 c 128,-1,26
 109 843 109 843 139 958 c 128,-1,27
 169 1073 169 1073 222 1166.5 c 128,-1,28
 275 1260 275 1260 348 1332 c 128,-1,29
 421 1404 421 1404 507 1453 c 0,30,31
 681 1552 681 1552 873 1552 c 128,-1,32
 1065 1552 1065 1552 1217 1477 c 1,0,-1
1118 1314 m 1,33,34
 1003 1397 1003 1397 861.5 1397 c 128,-1,35
 720 1397 720 1397 629 1352 c 128,-1,36
 538 1307 538 1307 479 1224 c 0,37,38
 364 1062 364 1062 364 760 c 0,39,40
 364 454 364 454 498 290 c 1,41,-1
 1118 1314 l 1,33,34
600 201 m 1,42,43
 701 139 701 139 833.5 139 c 128,-1,44
 966 139 966 139 1059 180.5 c 128,-1,45
 1152 222 1152 222 1214 300 c 1,46,47
 1336 457 1336 457 1336 747 c 0,48,49
 1336 1044 1336 1044 1213 1216 c 1,50,-1
 600 201 l 1,42,43
EndSplineSet
EndChar

StartChar: Thorn
Encoding: 222 222 179
Width: 1429
GlyphClass: 2
Flags: W
LayerCount: 2
Fore
SplineSet
731 -8 m 1,0,1
 708 0 708 0 632 0 c 2,2,-1
 225 0 l 2,3,4
 173 0 173 0 142 16.5 c 128,-1,5
 111 33 111 33 111 77 c 0,6,7
 111 109 111 109 126 128 c 1,8,9
 164 118 164 118 199 118 c 128,-1,10
 234 118 234 118 254 125.5 c 128,-1,11
 274 133 274 133 288 152 c 0,12,13
 319 192 319 192 319 285 c 2,14,-1
 319 1297 l 2,15,16
 319 1352 319 1352 298 1371 c 0,17,18
 269 1399 269 1399 231 1407 c 2,19,-1
 169 1420 l 2,20,21
 120 1430 120 1430 107.5 1447.5 c 128,-1,22
 95 1465 95 1465 95 1483 c 0,23,24
 95 1518 95 1518 111 1538 c 1,25,26
 126 1532 126 1532 164 1532 c 2,27,-1
 210 1533 l 1,28,-1
 630 1533 l 2,29,30
 744 1533 744 1533 744 1456 c 0,31,32
 744 1423 744 1423 728 1405 c 1,33,34
 690 1415 690 1415 656 1415 c 128,-1,35
 622 1415 622 1415 605.5 1408 c 128,-1,36
 589 1401 589 1401 578 1384 c 0,37,38
 557 1351 557 1351 555 1266 c 1,39,-1
 555 1233 l 1,40,-1
 782 1234 l 1,41,42
 1233 1234 1233 1234 1346 978 c 0,43,44
 1380 899 1380 899 1380 818 c 128,-1,45
 1380 737 1380 737 1364 680.5 c 128,-1,46
 1348 624 1348 624 1312.5 572 c 128,-1,47
 1277 520 1277 520 1220.5 475 c 128,-1,48
 1164 430 1164 430 1082 396 c 0,49,50
 909 325 909 325 646 325 c 2,51,-1
 555 325 l 1,52,-1
 555 236 l 2,53,54
 555 177 555 177 566 160 c 0,55,56
 582 134 582 134 617 127 c 128,-1,57
 652 120 652 120 675.5 114.5 c 128,-1,58
 699 109 699 109 715 101 c 0,59,60
 747 85 747 85 747 47 c 0,61,62
 747 12 747 12 731 -8 c 1,0,1
654 454 m 2,63,64
 1019 454 1019 454 1108 636 c 0,65,66
 1135 692 1135 692 1135 745 c 128,-1,67
 1135 798 1135 798 1127.5 837.5 c 128,-1,68
 1120 877 1120 877 1101.5 915.5 c 128,-1,69
 1083 954 1083 954 1053.5 989.5 c 128,-1,70
 1024 1025 1024 1025 980 1052 c 1,71,72
 881 1110 881 1110 735 1110 c 2,73,-1
 555 1110 l 1,74,-1
 555 454 l 1,75,-1
 654 454 l 2,63,64
EndSplineSet
EndChar

StartChar: germandbls
Encoding: 223 223 180
Width: 1328
GlyphClass: 2
Flags: W
LayerCount: 2
Fore
SplineSet
464 45 m 1,0,1
 396 -19 396 -19 308 -19 c 128,-1,2
 220 -19 220 -19 187.5 26.5 c 128,-1,3
 155 72 155 72 155 172 c 2,4,-1
 155 1088 l 2,5,6
 155 1434 155 1434 342 1611 c 0,7,8
 500 1761 500 1761 733 1761 c 0,9,10
 1043 1761 1043 1761 1146 1559 c 0,11,12
 1180 1492 1180 1492 1180 1409.5 c 128,-1,13
 1180 1327 1180 1327 1153 1269.5 c 128,-1,14
 1126 1212 1126 1212 1086 1168 c 128,-1,15
 1046 1124 1046 1124 999 1090 c 2,16,-1
 912 1026 l 1,17,18
 872 995 872 995 845 965.5 c 128,-1,19
 818 936 818 936 818 904.5 c 128,-1,20
 818 873 818 873 826.5 849 c 128,-1,21
 835 825 835 825 856 802 c 0,22,23
 895 758 895 758 987.5 702.5 c 128,-1,24
 1080 647 1080 647 1135 606 c 128,-1,25
 1190 565 1190 565 1224 524 c 0,26,27
 1289 447 1289 447 1289 351 c 128,-1,28
 1289 255 1289 255 1248.5 187.5 c 128,-1,29
 1208 120 1208 120 1144 74 c 0,30,31
 1013 -19 1013 -19 835 -19 c 0,32,33
 667 -19 667 -19 598 44 c 0,34,35
 567 71 567 71 567 105 c 128,-1,36
 567 139 567 139 575 160.5 c 128,-1,37
 583 182 583 182 596 202 c 0,38,39
 621 242 621 242 649 258 c 1,40,41
 769 132 769 132 881 132 c 0,42,43
 961 132 961 132 1016 174 c 0,44,45
 1072 218 1072 218 1072 283 c 0,46,47
 1072 342 1072 342 1017 392 c 0,48,49
 973 433 973 433 874.5 493.5 c 128,-1,50
 776 554 776 554 728 597 c 128,-1,51
 680 640 680 640 652 681 c 0,52,53
 604 753 604 753 604 832 c 128,-1,54
 604 911 604 911 629 961.5 c 128,-1,55
 654 1012 654 1012 691 1053.5 c 128,-1,56
 728 1095 728 1095 772 1131 c 128,-1,57
 816 1167 816 1167 853 1206 c 0,58,59
 940 1298 940 1298 940 1394 c 0,60,61
 940 1598 940 1598 709 1598 c 0,62,63
 559 1598 559 1598 473.5 1466 c 128,-1,64
 388 1334 388 1334 388 1109 c 2,65,-1
 388 432 l 2,66,67
 388 233 388 233 441 94 c 0,68,69
 454 60 454 60 464 45 c 1,0,1
EndSplineSet
EndChar

StartChar: ae
Encoding: 230 230 187
Width: 1920
GlyphClass: 2
Flags: W
LayerCount: 2
Fore
SplineSet
915 179 m 1,0,1
 730 -19 730 -19 462 -19 c 0,2,3
 302 -19 302 -19 206 73 c 0,4,5
 109 166 109 166 109 314 c 0,6,7
 109 499 109 499 264 590 c 1,8,9
 405 674 405 674 670 674 c 2,10,-1
 816 674 l 1,11,-1
 816 828 l 2,12,13
 816 969 816 969 770 1023 c 0,14,15
 726 1074 726 1074 616 1074 c 0,16,17
 471 1074 471 1074 410 998 c 0,18,19
 368 945 368 945 378 855 c 1,20,21
 358 839 358 839 310.5 839 c 128,-1,22
 263 839 263 839 241.5 850 c 128,-1,23
 220 861 220 861 204 880 c 0,24,25
 170 919 170 919 170 980.5 c 128,-1,26
 170 1042 170 1042 205 1087.5 c 128,-1,27
 240 1133 240 1133 300 1162 c 0,28,29
 418 1219 418 1219 610 1219 c 0,30,31
 907 1219 907 1219 1000 1043 c 1,32,33
 1087 1131 1087 1131 1193.5 1175 c 128,-1,34
 1300 1219 1300 1219 1407.5 1219 c 128,-1,35
 1515 1219 1515 1219 1591 1174.5 c 128,-1,36
 1667 1130 1667 1130 1714 1056 c 0,37,38
 1803 914 1803 914 1803 681 c 0,39,40
 1803 594 1803 594 1730 592 c 2,41,-1
 1034 577 l 1,42,-1
 1033 550 l 1,43,44
 1044 349 1044 349 1150 250 c 0,45,46
 1239 168 1239 168 1377 168 c 0,47,48
 1590 168 1590 168 1723 257 c 1,49,50
 1732 257 1732 257 1745 242 c 0,51,52
 1770 212 1770 212 1770 190 c 0,53,54
 1770 141 1770 141 1650 67 c 1,55,56
 1513 -19 1513 -19 1328 -19 c 0,57,58
 1051 -19 1051 -19 915 179 c 1,0,1
1038 706 m 1,59,60
 1326 720 1326 720 1565 743 c 1,61,62
 1576 1061 1576 1061 1345 1061 c 0,63,64
 1216 1061 1216 1061 1134 961 c 0,65,66
 1059 869 1059 869 1038 706 c 1,59,60
818 236 m 1,67,-1
 817 512 l 2,68,69
 816 520 816 520 816 528 c 2,70,-1
 816 543 l 1,71,72
 524 534 524 534 424 484 c 0,73,74
 374 458 374 458 357.5 422 c 128,-1,75
 341 386 341 386 341 320.5 c 128,-1,76
 341 255 341 255 395 207.5 c 128,-1,77
 449 160 449 160 568.5 160 c 128,-1,78
 688 160 688 160 818 236 c 1,67,-1
EndSplineSet
EndChar

StartChar: ccedilla
Encoding: 231 231 188
Width: 1134
GlyphClass: 2
Flags: W
LayerCount: 2
Fore
SplineSet
655 -110 m 1,0,1
 885 -115 885 -115 885 -267 c 0,2,3
 885 -424 885 -424 626 -482 c 0,4,5
 533 -502 533 -502 460 -500 c 1,6,7
 441 -488 441 -488 441 -449 c 0,8,9
 441 -407 441 -407 469.5 -403 c 128,-1,10
 498 -399 498 -399 533 -392 c 128,-1,11
 568 -385 568 -385 598 -373 c 0,12,13
 671 -344 671 -344 671 -295 c 0,14,15
 671 -228 671 -228 533 -223 c 0,16,17
 522 -223 522 -223 515.5 -201.5 c 128,-1,18
 509 -180 509 -180 509 -177 c 2,19,-1
 546 -13 l 1,20,21
 351 14 351 14 235 160 c 0,22,23
 114 313 114 313 114 555 c 0,24,25
 114 863 114 863 302 1050 c 0,26,27
 473 1219 473 1219 697 1219 c 0,28,29
 844 1219 844 1219 942 1156 c 0,30,31
 1045 1090 1045 1090 1045 982 c 0,32,33
 1045 923 1045 923 1019 893 c 0,34,35
 974 840 974 840 914.5 840 c 128,-1,36
 855 840 855 840 826 854 c 1,37,-1
 827 890 l 2,38,39
 827 909 827 909 818 954.5 c 128,-1,40
 809 1000 809 1000 760.5 1029 c 128,-1,41
 712 1058 712 1058 637.5 1058 c 128,-1,42
 563 1058 563 1058 505.5 1020.5 c 128,-1,43
 448 983 448 983 412 920 c 0,44,45
 344 800 344 800 344 599 c 0,46,47
 344 409 344 409 436 290 c 0,48,49
 530 168 530 168 684 168 c 0,50,51
 824 168 824 168 952 245 c 0,52,53
 983 264 983 264 1000 278 c 1,54,55
 1010 278 1010 278 1023 262 c 0,56,57
 1048 233 1048 233 1048 215.5 c 128,-1,58
 1048 198 1048 198 1035 177.5 c 128,-1,59
 1022 157 1022 157 998.5 133 c 128,-1,60
 975 109 975 109 941 84 c 128,-1,61
 907 59 907 59 865 38 c 0,62,63
 770 -10 770 -10 669 -17 c 1,64,-1
 655 -110 l 1,0,1
EndSplineSet
EndChar

StartChar: eth
Encoding: 240 240 197
Width: 1288
GlyphClass: 2
Flags: W
LayerCount: 2
Fore
SplineSet
320 1828 m 0,0,1
 470 1828 470 1828 640 1738 c 1,2,-1
 760 1861 l 1,3,4
 781 1879 781 1879 802.5 1879 c 128,-1,5
 824 1879 824 1879 840.5 1873 c 128,-1,6
 857 1867 857 1867 872 1856 c 0,7,8
 903 1835 903 1835 917 1801 c 1,9,-1
 771 1655 l 1,10,11
 1061 1431 1061 1431 1155 1042 c 0,12,13
 1189 902 1189 902 1189 720.5 c 128,-1,14
 1189 539 1189 539 1145 396 c 128,-1,15
 1101 253 1101 253 1023 161 c 0,16,17
 870 -19 870 -19 606 -19 c 0,18,19
 350 -19 350 -19 211 162 c 0,20,21
 89 321 89 321 89 571 c 0,22,23
 89 886 89 886 270 1062 c 0,24,25
 425 1212 425 1212 624 1212 c 0,26,27
 804 1212 804 1212 913 1094 c 1,28,29
 848 1380 848 1380 654 1537 c 1,30,-1
 525 1414 l 1,31,32
 502 1394 502 1394 478.5 1394 c 128,-1,33
 455 1394 455 1394 438 1401 c 128,-1,34
 421 1408 421 1408 406 1419 c 0,35,36
 375 1443 375 1443 369 1472 c 1,37,-1
 525 1620 l 1,38,39
 431 1668 431 1668 309 1702 c 1,40,-1
 245 1719 l 2,41,42
 235 1722 235 1722 234.5 1739 c 128,-1,43
 234 1756 234 1756 243 1776 c 0,44,45
 266 1828 266 1828 320 1828 c 0,0,1
630 144 m 0,46,47
 708 144 708 144 772.5 178.5 c 128,-1,48
 837 213 837 213 877 282 c 0,49,50
 953 413 953 413 953 694 c 0,51,52
 953 806 953 806 943 908 c 1,53,54
 897 976 897 976 847 1004 c 0,55,56
 759 1052 759 1052 673.5 1052 c 128,-1,57
 588 1052 588 1052 529 1020 c 128,-1,58
 470 988 470 988 426 928 c 0,59,60
 331 797 331 797 331 577 c 0,61,62
 331 386 331 386 411 264 c 1,63,64
 491 144 491 144 630 144 c 0,46,47
EndSplineSet
EndChar

StartChar: divide
Encoding: 247 247 204
Width: 1177
GlyphClass: 2
Flags: W
LayerCount: 2
Fore
SplineSet
648 1042 m 0,0,1
 619 1030 619 1030 585.5 1030 c 128,-1,2
 552 1030 552 1030 523.5 1042 c 128,-1,3
 495 1054 495 1054 474 1075 c 0,4,5
 429 1120 429 1120 429 1188 c 256,6,7
 429 1256 429 1256 474 1301 c 128,-1,8
 519 1346 519 1346 569 1346 c 128,-1,9
 619 1346 619 1346 648.5 1334 c 128,-1,10
 678 1322 678 1322 700 1301 c 0,11,12
 746 1257 746 1257 746 1188 c 0,13,14
 746 1082 746 1082 648 1042 c 0,0,1
1023 850 m 1,15,16
 1036 828 1036 828 1036 794 c 128,-1,17
 1036 760 1036 760 1032.5 739.5 c 128,-1,18
 1029 719 1029 719 1022 702 c 1,19,20
 1004 665 1004 665 977 665 c 2,21,-1
 151 665 l 1,22,23
 140 695 140 695 140 724.5 c 128,-1,24
 140 754 140 754 143.5 775 c 128,-1,25
 147 796 147 796 154 812 c 0,26,27
 172 850 172 850 196 850 c 2,28,-1
 1023 850 l 1,15,16
429 339 m 0,29,30
 429 406 429 406 474 452 c 0,31,32
 518 498 518 498 585 498 c 0,33,34
 653 498 653 498 700 452 c 0,35,36
 746 408 746 408 746 339 c 0,37,38
 746 233 746 233 648 193 c 0,39,40
 619 181 619 181 585.5 181 c 128,-1,41
 552 181 552 181 523.5 193 c 128,-1,42
 495 205 495 205 474 226 c 0,43,44
 429 271 429 271 429 339 c 0,29,30
EndSplineSet
EndChar

StartChar: oslash
Encoding: 248 248 205
Width: 1270
GlyphClass: 2
Flags: W
LayerCount: 2
Fore
SplineSet
607 -19 m 0,0,1
 458 -19 458 -19 343 51 c 1,2,-1
 259 -78 l 1,3,4
 239 -104 239 -104 216 -104 c 0,5,6
 170 -104 170 -104 145 -59 c 1,7,-1
 260 116 l 1,8,9
 99 277 99 277 99 553 c 0,10,11
 99 995 99 995 410 1154 c 0,12,13
 537 1219 537 1219 677.5 1219 c 128,-1,14
 818 1219 818 1219 935 1147 c 1,15,-1
 1026 1286 l 2,16,17
 1044 1312 1044 1312 1066 1312 c 0,18,19
 1107 1312 1107 1312 1140 1267 c 1,20,-1
 1017 1080 l 1,21,22
 1171 922 1171 922 1171 665 c 0,23,24
 1171 329 1171 329 988 142 c 1,25,26
 829 -19 829 -19 607 -19 c 0,0,1
819 971 m 1,27,28
 737 1059 737 1059 619 1059 c 0,29,30
 486 1059 486 1059 406 957 c 0,31,32
 321 849 321 849 321 655 c 0,33,34
 321 455 321 455 394 322 c 1,35,-1
 819 971 l 1,27,28
462 231 m 1,36,37
 551 144 551 144 666 144 c 0,38,39
 798 144 798 144 876 262 c 1,40,41
 950 376 950 376 950 558 c 0,42,43
 950 742 950 742 884 876 c 1,44,-1
 462 231 l 1,36,37
EndSplineSet
EndChar

StartChar: thorn
Encoding: 254 254 211
Width: 1364
GlyphClass: 2
Flags: W
LayerCount: 2
Fore
SplineSet
603 -374 m 1,0,1
 617 -393 617 -393 617 -418 c 128,-1,2
 617 -443 617 -443 594 -461.5 c 128,-1,3
 571 -480 571 -480 538 -492 c 0,4,5
 473 -514 473 -514 389.5 -514 c 128,-1,6
 306 -514 306 -514 258 -468.5 c 128,-1,7
 210 -423 210 -423 210 -323 c 2,8,-1
 210 1475 l 2,9,10
 210 1545 210 1545 196 1564 c 0,11,12
 173 1596 173 1596 121 1596 c 0,13,14
 97 1596 97 1596 76.5 1591.5 c 128,-1,15
 56 1587 56 1587 47.5 1591.5 c 128,-1,16
 39 1596 39 1596 34 1604 c 0,17,18
 13 1637 13 1637 83 1688 c 0,19,20
 193 1769 193 1769 301 1769 c 0,21,22
 415 1769 415 1769 429 1646 c 0,23,24
 433 1609 433 1609 433 1568 c 2,25,-1
 433 1076 l 1,26,27
 591 1219 591 1219 771 1219 c 0,28,29
 976 1219 976 1219 1104 1078 c 1,30,31
 1245 925 1245 925 1245 654 c 0,32,33
 1245 350 1245 350 1052 158 c 1,34,35
 964 72 964 72 852.5 26.5 c 128,-1,36
 741 -19 741 -19 640 -19 c 128,-1,37
 539 -19 539 -19 433 8 c 1,38,-1
 433 -130 l 2,39,40
 433 -282 433 -282 452 -323 c 128,-1,41
 471 -364 471 -364 490.5 -372.5 c 128,-1,42
 510 -381 510 -381 534.5 -381 c 128,-1,43
 559 -381 559 -381 603 -374 c 1,0,1
433 917 m 1,44,-1
 433 221 l 1,45,46
 527 141 527 141 662 141 c 0,47,48
 817 141 817 141 914 256 c 0,49,50
 1018 380 1018 380 1018 591 c 0,51,52
 1018 815 1018 815 927 928 c 0,53,54
 845 1031 845 1031 699 1031 c 128,-1,55
 553 1031 553 1031 433 917 c 1,44,-1
EndSplineSet
EndChar

StartChar: Aogonek
Encoding: 260 260 217
Width: 1658
GlyphClass: 2
Flags: W
LayerCount: 2
Fore
SplineSet
1060 118 m 1,0,1
 1102 111 1102 111 1123 111 c 128,-1,2
 1144 111 1144 111 1164.5 115.5 c 128,-1,3
 1185 120 1185 120 1201 130 c 0,4,5
 1237 152 1237 152 1237 199 c 0,6,7
 1237 238 1237 238 1213 286 c 1,8,-1
 1119 519 l 1,9,-1
 486 519 l 1,10,-1
 374 235 l 2,11,12
 358 196 358 196 358 178.5 c 128,-1,13
 358 161 358 161 363.5 152.5 c 128,-1,14
 369 144 369 144 380.5 138 c 128,-1,15
 392 132 392 132 409 128 c 2,16,-1
 450 117 l 1,17,18
 516 106 516 106 535 97 c 0,19,20
 574 78 574 78 574 41 c 0,21,22
 574 14 574 14 559 -5 c 1,23,24
 540 0 540 0 524 0 c 2,25,-1
 117 0 l 2,26,27
 -16 0 -16 0 -16 73 c 0,28,29
 -16 107 -16 107 -1 128 c 1,30,31
 36 118 36 118 61.5 118 c 128,-1,32
 87 118 87 118 104.5 126 c 128,-1,33
 122 134 122 134 138 153 c 0,34,35
 165 186 165 186 201 285 c 1,36,-1
 695 1481 l 1,37,38
 716 1529 716 1529 814 1547 c 0,39,40
 841 1552 841 1552 871 1552 c 0,41,42
 932 1552 932 1552 946 1519 c 2,43,-1
 1046 1269 l 1,44,45
 1335 587 1335 587 1380 473 c 1,46,-1
 1470 237 l 1,47,48
 1497 160 1497 160 1515 142 c 128,-1,49
 1533 124 1533 124 1554 117 c 128,-1,50
 1575 110 1575 110 1597.5 105.5 c 128,-1,51
 1620 101 1620 101 1637 94 c 0,52,53
 1675 77 1675 77 1675 42 c 0,54,55
 1675 15 1675 15 1660 -4 c 1,56,57
 1641 1 1641 1 1626 1 c 2,58,-1
 1444 1 l 1,59,60
 1321 -126 1321 -126 1321 -226 c 0,61,62
 1321 -335 1321 -335 1449 -335 c 0,63,64
 1538 -335 1538 -335 1617 -262 c 1,65,66
 1660 -279 1660 -279 1660 -307 c 128,-1,67
 1660 -335 1660 -335 1633.5 -370 c 128,-1,68
 1607 -405 1607 -405 1564 -437 c 0,69,70
 1459 -514 1459 -514 1350 -514 c 0,71,72
 1203 -514 1203 -514 1146 -400 c 0,73,74
 1127 -362 1127 -362 1127 -312 c 0,75,76
 1127 -155 1127 -155 1304 1 c 1,77,-1
 1149 1 l 2,78,79
 1098 1 1098 1 1069.5 13.5 c 128,-1,80
 1041 26 1041 26 1041 52 c 0,81,82
 1041 97 1041 97 1060 118 c 1,0,1
1061 661 m 1,83,-1
 799 1309 l 1,84,-1
 542 661 l 1,85,-1
 1061 661 l 1,83,-1
EndSplineSet
EndChar

StartChar: aogonek
Encoding: 261 261 218
Width: 1247
GlyphClass: 2
Flags: W
LayerCount: 2
Fore
SplineSet
815 127 m 1,0,1
 669 -19 669 -19 462 -19 c 0,2,3
 302 -19 302 -19 206 73 c 0,4,5
 109 166 109 166 109 314 c 0,6,7
 109 498 109 498 273 590 c 0,8,9
 421 674 421 674 690 674 c 2,10,-1
 815 674 l 1,11,12
 816 712 816 712 816 748 c 2,13,-1
 816 823 l 2,14,15
 816 957 816 957 777 1012 c 0,16,17
 733 1074 733 1074 627 1074 c 0,18,19
 384 1074 384 1074 377 900 c 0,20,21
 376 873 376 873 378 855 c 1,22,23
 358 839 358 839 310.5 839 c 128,-1,24
 263 839 263 839 241.5 850 c 128,-1,25
 220 861 220 861 204 880 c 0,26,27
 170 919 170 919 170 979.5 c 128,-1,28
 170 1040 170 1040 205.5 1085.5 c 128,-1,29
 241 1131 241 1131 302 1160 c 1,30,31
 421 1219 421 1219 583 1219 c 128,-1,32
 745 1219 745 1219 826.5 1187.5 c 128,-1,33
 908 1156 908 1156 956 1104 c 0,34,35
 1041 1012 1041 1012 1041 857 c 1,36,-1
 1031 377 l 1,37,38
 1031 246 1031 246 1043.5 211 c 128,-1,39
 1056 176 1056 176 1073.5 164 c 128,-1,40
 1091 152 1091 152 1116.5 152 c 128,-1,41
 1142 152 1142 152 1158 160 c 2,42,-1
 1186 173 l 1,43,44
 1200 178 1200 178 1210.5 161.5 c 128,-1,45
 1221 145 1221 145 1221 137 c 0,46,47
 1221 87 1221 87 1148 41 c 1,48,-1
 1150 40 l 1,49,50
 895 -112 895 -112 895 -232 c 0,51,52
 895 -335 895 -335 1014 -335 c 0,53,54
 1082 -335 1082 -335 1150 -287 c 0,55,56
 1169 -274 1169 -274 1181 -262 c 1,57,58
 1224 -278 1224 -278 1224 -306.5 c 128,-1,59
 1224 -335 1224 -335 1197.5 -370 c 128,-1,60
 1171 -405 1171 -405 1128 -437 c 0,61,62
 1023 -514 1023 -514 915 -514 c 0,63,64
 773 -514 773 -514 719 -400 c 0,65,66
 701 -362 701 -362 701 -312 c 0,67,68
 701 -143 701 -143 920 -12 c 1,69,70
 830 16 830 16 815 127 c 1,0,1
812 258 m 1,71,72
 812 402 812 402 814 544 c 1,73,74
 606 536 606 536 531.5 517.5 c 128,-1,75
 457 499 457 499 424 482 c 128,-1,76
 391 465 391 465 372 442 c 0,77,78
 341 404 341 404 341 327.5 c 128,-1,79
 341 251 341 251 395 205.5 c 128,-1,80
 449 160 449 160 550 160 c 0,81,82
 693 160 693 160 812 258 c 1,71,72
EndSplineSet
EndChar

StartChar: Dcroat
Encoding: 272 272 229
Width: 1725
GlyphClass: 2
Flags: W
LayerCount: 2
Fore
SplineSet
739 -10 m 1,0,-1
 454 1 l 1,1,-1
 196 1 l 2,2,3
 144 1 144 1 109 18.5 c 128,-1,4
 74 36 74 36 74 62 c 0,5,6
 74 110 74 110 89 129 c 1,7,8
 125 119 125 119 162 119 c 128,-1,9
 199 119 199 119 224.5 124 c 128,-1,10
 250 129 250 129 270 145 c 0,11,12
 316 181 316 181 316 270 c 2,13,-1
 316 694 l 1,14,-1
 133 694 l 1,15,16
 122 720 122 720 122 748 c 128,-1,17
 122 776 122 776 125.5 794 c 128,-1,18
 129 812 129 812 136 826 c 0,19,20
 153 857 153 857 178 857 c 2,21,-1
 316 857 l 1,22,-1
 316 1289 l 2,23,24
 316 1382 316 1382 200 1405 c 0,25,26
 128 1420 128 1420 106.5 1437.5 c 128,-1,27
 85 1455 85 1455 85 1476 c 0,28,29
 85 1522 85 1522 101 1538 c 1,30,31
 119 1533 119 1533 134 1533 c 2,32,-1
 437 1533 l 2,33,34
 460 1533 460 1533 498 1535 c 2,35,-1
 583 1540 l 1,36,37
 708 1546 708 1546 839.5 1546 c 128,-1,38
 971 1546 971 1546 1095 1514.5 c 128,-1,39
 1219 1483 1219 1483 1309.5 1429 c 128,-1,40
 1400 1375 1400 1375 1460.5 1303.5 c 128,-1,41
 1521 1232 1521 1232 1558 1152 c 0,42,43
 1624 1005 1624 1005 1624 822 c 0,44,45
 1624 490 1624 490 1452 270 c 0,46,47
 1317 97 1317 97 1055 26 c 0,48,49
 919 -10 919 -10 739 -10 c 1,0,-1
859 857 m 1,50,51
 872 835 872 835 872 794 c 0,52,53
 872 728 872 728 839 702 c 0,54,55
 828 694 828 694 813 694 c 2,56,-1
 552 694 l 1,57,-1
 552 241 l 2,58,59
 552 166 552 166 599 144 c 0,60,61
 639 126 639 126 790.5 126 c 128,-1,62
 942 126 942 126 1060 176 c 128,-1,63
 1178 226 1178 226 1248 311 c 0,64,65
 1374 464 1374 464 1374 742 c 0,66,67
 1374 1219 1374 1219 1037 1365 c 0,68,69
 915 1418 915 1418 736 1418 c 0,70,71
 617 1418 617 1418 591 1394.5 c 128,-1,72
 565 1371 565 1371 558.5 1336.5 c 128,-1,73
 552 1302 552 1302 552 1244 c 2,74,-1
 552 857 l 1,75,-1
 859 857 l 1,50,51
EndSplineSet
EndChar

StartChar: dcroat
Encoding: 273 273 230
Width: 1378
GlyphClass: 2
Flags: W
LayerCount: 2
Fore
SplineSet
919 125 m 1,0,1
 764 -20 764 -20 578 -20 c 0,2,3
 373 -20 373 -20 244 120 c 1,4,5
 104 274 104 274 104 545 c 0,6,7
 104 850 104 850 298 1041 c 0,8,9
 479 1219 479 1219 726 1219 c 0,10,11
 825 1219 825 1219 916 1186 c 1,12,-1
 916 1300 l 1,13,-1
 704 1300 l 1,14,15
 696 1322 696 1322 696 1341.5 c 128,-1,16
 696 1361 696 1361 701.5 1378.5 c 128,-1,17
 707 1396 707 1396 717 1410 c 0,18,19
 739 1439 739 1439 768 1439 c 2,20,-1
 916 1439 l 1,21,-1
 916 1475 l 2,22,23
 916 1545 916 1545 902 1564 c 0,24,25
 879 1596 879 1596 827 1596 c 0,26,27
 805 1596 805 1596 783.5 1591.5 c 128,-1,28
 762 1587 762 1587 753.5 1591.5 c 128,-1,29
 745 1596 745 1596 740 1604 c 0,30,31
 720 1637 720 1637 790 1688 c 0,32,33
 900 1769 900 1769 1007 1769 c 0,34,35
 1120 1769 1120 1769 1136 1646 c 0,36,37
 1140 1609 1140 1609 1140 1568 c 2,38,-1
 1140 1439 l 1,39,-1
 1289 1439 l 1,40,41
 1298 1421 1298 1421 1298 1401 c 128,-1,42
 1298 1381 1298 1381 1292.5 1363.5 c 128,-1,43
 1287 1346 1287 1346 1278 1332 c 0,44,45
 1256 1300 1256 1300 1223 1300 c 2,46,-1
 1140 1300 l 1,47,-1
 1140 407 l 2,48,49
 1140 253 1140 253 1152 215 c 128,-1,50
 1164 177 1164 177 1180.5 165.5 c 128,-1,51
 1197 154 1197 154 1222 154 c 128,-1,52
 1247 154 1247 154 1263 162 c 2,53,-1
 1293 175 l 1,54,55
 1306 178 1306 178 1316 163 c 0,56,57
 1337 132 1337 132 1322 107 c 128,-1,58
 1307 82 1307 82 1277 59 c 128,-1,59
 1247 36 1247 36 1210 19 c 0,60,61
 1048 -54 1048 -54 968 16 c 0,62,63
 929 50 929 50 919 125 c 1,0,1
916 983 m 1,64,65
 818 1058 818 1058 688 1058 c 0,66,67
 532 1058 532 1058 435 943 c 0,68,69
 331 820 331 820 331 608 c 0,70,71
 331 271 331 271 523 192 c 0,72,73
 583 168 583 168 639.5 168 c 128,-1,74
 696 168 696 168 734 177 c 128,-1,75
 772 186 772 186 805 201 c 0,76,77
 871 231 871 231 916 274 c 1,78,-1
 916 983 l 1,64,65
EndSplineSet
EndChar

StartChar: Eogonek
Encoding: 280 280 237
Width: 1440
GlyphClass: 2
Flags: W
LayerCount: 2
Fore
SplineSet
806 -312 m 0,0,1
 806 -155 806 -155 982 0 c 1,2,-1
 207 0 l 2,3,4
 88 0 88 0 88 71 c 0,5,6
 88 109 88 109 104 129 c 1,7,8
 138 119 138 119 170 119 c 128,-1,9
 202 119 202 119 225 124 c 128,-1,10
 248 129 248 129 268 145 c 0,11,12
 316 182 316 182 316 270 c 2,13,-1
 316 1283 l 2,14,15
 316 1370 316 1370 246 1394 c 0,16,17
 226 1401 226 1401 204.5 1406.5 c 128,-1,18
 183 1412 183 1412 163.5 1417.5 c 128,-1,19
 144 1423 144 1423 129 1430 c 0,20,21
 95 1448 95 1448 95 1479 c 0,22,23
 95 1520 95 1520 111 1538 c 1,24,25
 129 1533 129 1533 147 1533 c 2,26,27
 147 1533 147 1533 1170 1533 c 0,28,29
 1262 1533 1262 1533 1285 1516 c 0,30,31
 1327 1486 1327 1486 1327 1384 c 0,32,33
 1327 1286 1327 1286 1310.5 1224 c 128,-1,34
 1294 1162 1294 1162 1287 1150 c 0,35,36
 1277 1132 1277 1132 1248 1132 c 0,37,38
 1206 1132 1206 1132 1190.5 1142.5 c 128,-1,39
 1175 1153 1175 1153 1174 1158 c 0,40,41
 1161 1301 1161 1301 1129 1340.5 c 128,-1,42
 1097 1380 1097 1380 1053.5 1394.5 c 128,-1,43
 1010 1409 1010 1409 940 1409 c 2,44,-1
 717 1409 l 2,45,46
 611 1409 611 1409 587.5 1388 c 128,-1,47
 564 1367 564 1367 558 1339.5 c 128,-1,48
 552 1312 552 1312 552 1269 c 2,49,-1
 552 843 l 1,50,-1
 611 842 l 1,51,52
 832 842 832 842 1021 881 c 1,53,54
 1035 874 1035 874 1046 841.5 c 128,-1,55
 1057 809 1057 809 1057 777 c 0,56,57
 1057 723 1057 723 1039 683 c 1,58,59
 973 677 973 677 887 677 c 128,-1,60
 801 677 801 677 552 705 c 1,61,-1
 552 254 l 2,62,63
 552 179 552 179 592 153 c 0,64,65
 626 131 626 131 714 131 c 1,66,-1
 865 135 l 1,67,68
 1084 143 1084 143 1150 196 c 0,69,70
 1187 226 1187 226 1199 275 c 128,-1,71
 1211 324 1211 324 1211 373.5 c 128,-1,72
 1211 423 1211 423 1209 445 c 1,73,74
 1236 468 1236 468 1266 468 c 0,75,76
 1312 468 1312 468 1319 455 c 0,77,78
 1358 377 1358 377 1358 197 c 0,79,80
 1358 72 1358 72 1330 16 c 0,81,82
 1321 0 1321 0 1311 0 c 2,83,-1
 1122 0 l 1,84,85
 1000 -129 1000 -129 1000 -226 c 0,86,87
 1000 -335 1000 -335 1128 -335 c 0,88,89
 1217 -335 1217 -335 1296 -262 c 1,90,91
 1339 -279 1339 -279 1339 -307 c 128,-1,92
 1339 -335 1339 -335 1312.5 -370 c 128,-1,93
 1286 -405 1286 -405 1242 -437 c 0,94,95
 1138 -514 1138 -514 1029 -514 c 0,96,97
 882 -514 882 -514 825 -400 c 0,98,99
 806 -362 806 -362 806 -312 c 0,0,1
EndSplineSet
EndChar

StartChar: eogonek
Encoding: 281 281 238
Width: 1209
GlyphClass: 2
Flags: W
LayerCount: 2
Fore
SplineSet
713 -12 m 1,0,1
 659 -19 659 -19 620 -19 c 0,2,3
 380 -19 380 -19 243 134 c 0,4,5
 108 284 108 284 108 547 c 0,6,7
 108 865 108 865 300 1052 c 0,8,9
 472 1219 472 1219 696 1219 c 0,10,11
 901 1219 901 1219 1006 1056 c 1,12,13
 1095 915 1095 915 1095 681 c 0,14,15
 1095 594 1095 594 1022 592 c 2,16,-1
 324 577 l 1,17,18
 330 360 330 360 436 256 c 0,19,20
 526 168 526 168 669 168 c 0,21,22
 882 168 882 168 1015 257 c 1,23,24
 1024 257 1024 257 1037 242 c 0,25,26
 1062 212 1062 212 1062 192.5 c 128,-1,27
 1062 173 1062 173 1036 142 c 128,-1,28
 1010 111 1010 111 961 79 c 1,29,30
 807 -39 807 -39 754 -154 c 0,31,32
 737 -193 737 -193 737 -226 c 0,33,34
 737 -335 737 -335 856 -335 c 0,35,36
 944 -335 944 -335 1023 -262 c 1,37,38
 1066 -278 1066 -278 1066 -306.5 c 128,-1,39
 1066 -335 1066 -335 1039.5 -370 c 128,-1,40
 1013 -405 1013 -405 970 -437 c 0,41,42
 865 -514 865 -514 757 -514 c 0,43,44
 615 -514 615 -514 561 -400 c 0,45,46
 543 -362 543 -362 543 -314 c 128,-1,47
 543 -266 543 -266 557 -224 c 128,-1,48
 571 -182 571 -182 595 -144 c 0,49,50
 638 -75 638 -75 713 -12 c 1,0,1
330 706 m 1,51,52
 618 720 618 720 857 743 c 1,53,54
 868 1061 868 1061 637 1061 c 0,55,56
 508 1061 508 1061 426 961 c 0,57,58
 351 869 351 869 330 706 c 1,51,52
EndSplineSet
EndChar

StartChar: Hbar
Encoding: 294 294 251
Width: 1892
GlyphClass: 2
Flags: W
LayerCount: 2
Fore
SplineSet
732 -8 m 1,0,1
 709 0 709 0 633 0 c 2,2,-1
 216 0 l 2,3,4
 164 0 164 0 133 16.5 c 128,-1,5
 102 33 102 33 102 77 c 0,6,7
 102 109 102 109 117 128 c 1,8,9
 157 118 157 118 191 118 c 128,-1,10
 225 118 225 118 245 125.5 c 128,-1,11
 265 133 265 133 280 152 c 0,12,13
 310 192 310 192 310 285 c 2,14,-1
 310 1014 l 1,15,-1
 138 1014 l 1,16,17
 130 1036 130 1036 130 1056 c 128,-1,18
 130 1076 130 1076 135.5 1093 c 128,-1,19
 141 1110 141 1110 150 1124 c 0,20,21
 171 1153 171 1153 202 1153 c 2,22,-1
 310 1153 l 1,23,-1
 310 1308 l 1,24,25
 307 1378 307 1378 264 1397 c 0,26,27
 251 1403 251 1403 228 1408 c 2,28,-1
 180 1418 l 1,29,30
 131 1430 131 1430 120 1447.5 c 128,-1,31
 109 1465 109 1465 109 1483 c 0,32,33
 109 1520 109 1520 124 1541 c 1,34,35
 147 1533 147 1533 223 1533 c 2,36,-1
 630 1533 l 2,37,38
 682 1533 682 1533 713.5 1516.5 c 128,-1,39
 745 1500 745 1500 745 1456 c 0,40,41
 745 1423 745 1423 729 1405 c 1,42,43
 691 1415 691 1415 646 1415 c 0,44,45
 549 1415 549 1415 546 1257 c 1,46,-1
 546 1153 l 1,47,-1
 1346 1153 l 1,48,-1
 1346 1308 l 1,49,50
 1343 1378 1343 1378 1300 1397 c 0,51,52
 1287 1403 1287 1403 1264 1408 c 2,53,-1
 1216 1418 l 1,54,55
 1167 1430 1167 1430 1156 1447.5 c 128,-1,56
 1145 1465 1145 1465 1145 1483 c 0,57,58
 1145 1523 1145 1523 1160 1541 c 1,59,60
 1183 1533 1183 1533 1259 1533 c 2,61,-1
 1666 1533 l 2,62,63
 1718 1533 1718 1533 1749.5 1516.5 c 128,-1,64
 1781 1500 1781 1500 1781 1456 c 0,65,66
 1781 1423 1781 1423 1765 1405 c 1,67,68
 1727 1415 1727 1415 1682 1415 c 0,69,70
 1585 1415 1585 1415 1582 1257 c 1,71,-1
 1582 1153 l 1,72,-1
 1761 1153 l 1,73,74
 1770 1135 1770 1135 1770 1115 c 128,-1,75
 1770 1095 1770 1095 1764.5 1077.5 c 128,-1,76
 1759 1060 1759 1060 1750 1046 c 0,77,78
 1728 1014 1728 1014 1695 1014 c 2,79,-1
 1582 1014 l 1,80,-1
 1582 236 l 2,81,82
 1582 180 1582 180 1599 162 c 0,83,84
 1624 135 1624 135 1661 127.5 c 128,-1,85
 1698 120 1698 120 1722 114.5 c 128,-1,86
 1746 109 1746 109 1762 101 c 0,87,88
 1794 85 1794 85 1794 47 c 0,89,90
 1794 12 1794 12 1778 -8 c 1,91,92
 1755 0 1755 0 1679 0 c 2,93,-1
 1262 0 l 2,94,95
 1210 0 1210 0 1179 16.5 c 128,-1,96
 1148 33 1148 33 1148 77 c 0,97,98
 1148 109 1148 109 1163 128 c 1,99,100
 1201 118 1201 118 1234 118 c 128,-1,101
 1267 118 1267 118 1285 125 c 128,-1,102
 1303 132 1303 132 1316 150 c 0,103,104
 1344 187 1344 187 1346 275 c 1,105,-1
 1346 677 l 1,106,-1
 546 677 l 1,107,-1
 546 236 l 2,108,109
 546 157 546 157 590 136 c 0,110,111
 604 130 604 130 628 125 c 128,-1,112
 652 120 652 120 675.5 114.5 c 128,-1,113
 699 109 699 109 715 101 c 0,114,115
 748 84 748 84 748 47 c 0,116,117
 748 12 748 12 732 -8 c 1,0,1
1346 815 m 1,118,-1
 1346 1014 l 1,119,-1
 546 1014 l 1,120,-1
 546 815 l 1,121,-1
 1346 815 l 1,118,-1
EndSplineSet
EndChar

